<?xml version="1.0" encoding="utf-8"?>
<!-- Generator: Adobe Illustrator 21.1.0, SVG Export Plug-In . SVG Version: 6.00 Build 0)  -->
<svg version="1.1" id="Layer_1" xmlns="http://www.w3.org/2000/svg" xmlns:xlink="http://www.w3.org/1999/xlink" x="0px" y="0px"
	 viewBox="0 0 144 74.9" style="enable-background:new 0 0 144 74.9;" xml:space="preserve">
<style type="text/css">
	.st0{fill:#ABB29B;}
	.st1{fill:#A7A9AC;}
	.st2{fill:#A788B2;}
	.st3{fill:#774E88;}
	.st4{fill:#97A080;}
</style>
<g>
	<g>
		<path class="st0" d="M69.4,23.2c-0.1,0.5-0.4,0.9-0.9,1.1c-0.8,3.2-2.1,6.1-3.7,8.6c-3.2,4.9-4.4,10.9-4.7,16.9
			c-0.1,1.8,0,3.7,0,5.5c0-0.6,0-1.2,0-1.9c0.3-6,1.7-12,5.5-16c3.5-3.7,4.9-9.3,5.1-15.1c0.3-5.5-0.5-11.1-1.3-15.6
			c0.3,3.1,0.4,6,0.3,8.7c-0.1,2.1-0.3,4.1-0.7,6.1c0,0.1,0.1,0.1,0.1,0.2C69.5,22.2,69.5,22.7,69.4,23.2"/>
		<path class="st1" d="M65.5,22C65.5,22,65.5,22,65.5,22C65.5,22,65.5,22,65.5,22C65.5,22,65.5,22,65.5,22C65.5,22,65.5,22,65.5,22z
			"/>
	</g>
	<g>
		<path class="st2" d="M71,50.9L71,50.9c0.1-0.7,0.1-1.3,0.1-1.9c0.2-6.9-2.2-12.2-7-15.5c-4.6-3.2-6.8-8.2-6.7-14.9
			c0-0.6,0-1.2,0.1-1.9c0.5-5.7,2.5-11.4,4.2-15.5c-0.9,3.1-1.6,6.1-1.8,8.9c-0.1,0.7-0.1,1.4-0.1,2.1c-0.2,6.9,1.9,12.7,6.2,17.2
			c4.1,4.3,6.1,9.9,5.9,16.6c0,0.7-0.1,1.4-0.1,2.1c-0.3,4.1-1.4,8-2.6,11.5C70.1,56.8,70.7,53.9,71,50.9z"/>
	</g>
	<path class="st3" d="M67.6,20.5c-0.4,0-0.8,0.1-1.1,0.3c0,0.8,0.2,1.3,0.7,1.4c0.5,0.1,0.7,0.6,0.7,1.5c0,0.1,0,0.2,0,0.3l-0.1,0.5
		c0-0.1,0-0.2,0-0.3c0-0.9-0.2-1.3-0.8-1.2c-0.5,0.1-0.8-0.3-0.8-1.2c0-0.1,0-0.2,0-0.3l0.1-0.6c-0.5,0.4-0.8,1-0.8,1.7
		c0,1.2,0.9,2.1,2.1,2.1c1.1,0,2.1-0.9,2.1-2.1C69.6,21.4,68.7,20.5,67.6,20.5z"/>
</g>
<g>
	<path class="st4" d="M62.1,74C62.1,74,62.1,74,62.1,74c-0.1,0-0.1,0-0.2-0.1c0-0.1-0.1-0.2,0-0.3c0.1-0.6,0.8-1.8,1.6-2.9
		c0.5-0.7,1.2-1.6,1.9-2.5l0,0l0,0l0,0c-0.1,0.1-0.4,0.4-0.6,0.5c0,0,0,0,0,0c0,0,0,0,0,0l0,0c-0.1,0.1-0.2,0.2-0.3,0.3
		c-0.2,0.1-0.3,0.2-0.4,0.2c0,0-0.1,0-0.1,0c-0.1,0-0.1,0-0.1,0l0,0l0,0c-0.2,0.1-0.7,0.5-1.2,0.5c-0.2,0-0.3,0-0.4-0.1
		c-0.1-0.1-0.1-0.2-0.1-0.3c0-0.2,0.1-0.5,0.3-0.7l0,0l0,0l0,0c0,0-0.1,0.1-0.1,0.1c0,0-0.1,0.1-0.1,0.1c-0.1,0.1-0.1,0.1-0.1,0.1
		c0,0,0,0,0.1-0.1c0.1-0.1,0.2-0.2,0.3-0.3c0.1-0.1,0.3-0.2,0.5-0.3c0.3-0.2,0.7-0.3,0.9-0.3c0,0,0.1,0,0.1,0c0,0,0,0,0,0
		c0,0,0,0-0.1,0c-0.3,0.1-0.5,0.3-0.8,0.6c-0.3,0.3-0.6,0.7-0.6,1c0,0.1,0,0.1,0,0.2c0,0,0.1,0.1,0.1,0.1c0.2,0,0.7-0.3,1-0.7l0,0
		l0,0c0-0.1,0.1-0.3,0.2-0.4c0.1-0.2,0.3-0.3,0.3-0.3l0,0l0,0c0-0.1,0-0.2,0-0.3c0-0.1,0-0.1,0-0.1c0,0,0,0,0,0c0,0,0,0,0,0
		c0,0,0,0,0,0c0,0,0.1,0,0.1,0.1c0.1,0.1,0.1,0.2,0.1,0.4c0,0.2-0.2,0.5-0.6,0.9l0,0l0,0c0,0,0.1,0,0.1,0c0,0,0.1,0,0.1,0
		c0.1,0,0.2-0.1,0.4-0.2c0.1-0.1,0.2-0.2,0.4-0.3c0,0,0,0,0,0c0,0,0,0,0,0c0,0,0,0,0,0c0.3-0.3,0.6-0.6,0.9-0.8l0,0l0,0
		c0.5-0.6,0.9-1.1,1.2-1.5c0.9-1,2-2.1,2.5-2.5c0.3-0.2,0.6-0.4,0.9-0.4h0c0.1,0,0.2,0,0.2,0.1c0.1,0.1,0.1,0.2,0.1,0.3
		c-0.1,0.5-1.1,1.4-2.2,2.2L68.4,66c-0.2,0.2-0.5,0.4-0.8,0.6c-0.5,0.4-1,0.8-1.4,1.1c-0.6,0.7-0.9,1.2-1.3,1.7l0,0.1l0.1,0
		c0.1,0,0.3-0.1,0.5-0.2c0.2-0.1,0.4-0.2,0.6-0.3c0.2-0.1,0.5-0.3,0.6-0.5c0.1-0.1,0.1-0.1,0.1-0.1c0,0,0,0-0.1,0.1l0,0
		c-0.2,0.2-0.5,0.4-0.7,0.6c-0.3,0.2-0.7,0.3-0.9,0.4c-0.1,0.1-0.2,0.1-0.3,0.2c-0.1,0.1-0.1,0.2-0.2,0.4c-0.2,0.5-0.5,1.4-0.9,2.1
		c-0.4,0.7-0.9,1.3-1.3,1.6C62.4,73.9,62.3,74,62.1,74z M64.7,69.8c-0.6,0.8-0.8,1-1.2,1.7l-0.2,0.3c-0.3,0.5-0.9,1.3-1.1,1.8
		c-0.1,0.2,0,0.3,0,0.3c0,0,0,0,0.1,0c0.1,0,0.1,0,0.2-0.1c0.3-0.2,0.8-0.9,1.2-1.6C64.2,71.3,64.6,70.2,64.7,69.8L64.7,69.8z
		 M70.3,63.4c-0.2,0-0.4,0.2-0.7,0.4c-0.4,0.3-0.9,0.9-1.4,1.6c-0.8,0.9-1.1,1.3-1.7,2.1l0,0l0,0c0.5-0.5,0.9-0.8,1.2-1
		c0.3-0.2,0.5-0.4,0.7-0.6l0.2-0.2c1-0.9,1.9-1.7,1.9-2.1c0-0.1,0-0.1,0-0.2C70.4,63.4,70.3,63.4,70.3,63.4z"/>
	<path class="st4" d="M23,69.6l-0.4-1h-2.1l-0.4,1h-0.3l1.6-3.5h0.3l1.6,3.5H23z M21.5,66.3l-0.9,2h1.8L21.5,66.3z"/>
	<path class="st4" d="M26.4,69.6h-0.2l-0.8-2.2l-0.8,2.2h-0.2L23.5,67h0.3l0.8,2.2l0.8-2.3h0.2l0.8,2.3l0.8-2.2h0.3L26.4,69.6z"/>
	<path class="st4" d="M29.7,69.6v-0.4c-0.2,0.2-0.5,0.5-1,0.5c-0.5,0-1-0.3-1-0.8v0c0-0.5,0.5-0.8,1.1-0.8c0.4,0,0.6,0,0.8,0.1V68
		c0-0.5-0.3-0.8-0.8-0.8c-0.3,0-0.6,0.1-0.8,0.2L28,67.2c0.3-0.1,0.6-0.2,0.9-0.2c0.7,0,1.1,0.3,1.1,1v1.6H29.7z M29.7,68.3
		c-0.2-0.1-0.5-0.1-0.9-0.1c-0.5,0-0.8,0.2-0.8,0.6v0c0,0.4,0.4,0.6,0.7,0.6c0.5,0,1-0.3,1-0.8V68.3z"/>
	<path class="st4" d="M32.2,67.2c-0.6,0-1.1,0.4-1.1,1.3v1h-0.2V67h0.2v0.7c0.2-0.5,0.6-0.8,1.1-0.8L32.2,67.2L32.2,67.2z"/>
	<path class="st4" d="M34.8,69.6V69c-0.2,0.3-0.5,0.6-1.1,0.6c-0.6,0-1.2-0.5-1.2-1.3v0c0-0.8,0.6-1.3,1.2-1.3
		c0.5,0,0.8,0.3,1.1,0.6v-1.7h0.2v3.7H34.8z M34.9,68.3c0-0.7-0.5-1.1-1-1.1c-0.6,0-1,0.4-1,1.1v0c0,0.7,0.5,1.1,1,1.1
		C34.3,69.4,34.9,68.9,34.9,68.3L34.9,68.3z"/>
	<path class="st4" d="M36.8,69.6c-0.4,0-0.8-0.1-1-0.4l0.1-0.2c0.3,0.2,0.6,0.3,0.9,0.3c0.3,0,0.6-0.2,0.6-0.5v0
		c0-0.3-0.3-0.4-0.7-0.5c-0.4-0.1-0.9-0.2-0.9-0.7v0c0-0.4,0.3-0.7,0.8-0.7c0.3,0,0.7,0.1,0.9,0.3l-0.1,0.2
		c-0.2-0.2-0.5-0.3-0.8-0.3c-0.4,0-0.6,0.2-0.6,0.4v0c0,0.3,0.3,0.4,0.7,0.5c0.4,0.1,0.8,0.3,0.8,0.7v0
		C37.7,69.3,37.3,69.6,36.8,69.6z"/>
	<path class="st4" d="M41.3,68.3h-0.9v1.3H40v-3.5h1.3c0.8,0,1.3,0.4,1.3,1.1v0C42.6,67.9,42,68.3,41.3,68.3z M42.4,67.1
		c0-0.6-0.4-0.8-1.1-0.8h-1V68h1C41.9,68,42.4,67.7,42.4,67.1L42.4,67.1z"/>
	<path class="st4" d="M44.7,67.2c-0.6,0-1.1,0.4-1.1,1.3v1h-0.2V67h0.2v0.7c0.2-0.5,0.6-0.8,1.1-0.8L44.7,67.2L44.7,67.2z"/>
	<path class="st4" d="M46.3,69.6c-0.8,0-1.3-0.6-1.3-1.3v0c0-0.7,0.6-1.3,1.3-1.3c0.8,0,1.3,0.6,1.3,1.3v0
		C47.7,69,47.1,69.6,46.3,69.6z M47.4,68.3c0-0.6-0.5-1.1-1.1-1.1c-0.6,0-1,0.5-1,1.1v0c0,0.6,0.5,1.1,1.1,1.1
		C47,69.4,47.4,68.9,47.4,68.3L47.4,68.3z"/>
	<path class="st4" d="M49.5,70.4c-0.4,0-0.8-0.1-1.2-0.4l0.1-0.2c0.3,0.2,0.7,0.4,1,0.4c0.6,0,1-0.3,1-1v-0.4
		c-0.2,0.3-0.6,0.6-1.1,0.6c-0.6,0-1.2-0.5-1.2-1.2v0c0-0.7,0.6-1.2,1.2-1.2c0.5,0,0.9,0.3,1.1,0.6V67h0.2v2.2
		C50.8,69.9,50.3,70.4,49.5,70.4z M50.6,68.2c0-0.6-0.5-1-1.1-1c-0.5,0-1,0.4-1,1v0c0,0.6,0.5,1,1,1C50,69.1,50.6,68.7,50.6,68.2
		L50.6,68.2z"/>
	<path class="st4" d="M53.1,67.2c-0.6,0-1.1,0.4-1.1,1.3v1h-0.2V67H52v0.7c0.2-0.5,0.6-0.8,1.1-0.8L53.1,67.2L53.1,67.2z"/>
	<path class="st4" d="M55.3,69.6v-0.4c-0.2,0.2-0.5,0.5-1,0.5c-0.5,0-1-0.3-1-0.8v0c0-0.5,0.5-0.8,1.1-0.8c0.4,0,0.6,0,0.8,0.1V68
		c0-0.5-0.3-0.8-0.8-0.8c-0.3,0-0.6,0.1-0.8,0.2l-0.1-0.2c0.3-0.1,0.6-0.2,0.9-0.2c0.7,0,1.1,0.3,1.1,1v1.6H55.3z M55.3,68.3
		c-0.2-0.1-0.5-0.1-0.9-0.1c-0.5,0-0.8,0.2-0.8,0.6v0c0,0.4,0.4,0.6,0.7,0.6c0.5,0,1-0.3,1-0.8V68.3z"/>
	<path class="st4" d="M60.1,69.6V68c0-0.6-0.3-0.9-0.8-0.9c-0.4,0-0.8,0.3-0.8,0.9v1.5h-0.2V68c0-0.5-0.3-0.9-0.7-0.9
		c-0.5,0-0.8,0.4-0.8,0.9v1.5h-0.2V67h0.2v0.5c0.2-0.3,0.4-0.5,0.9-0.5c0.4,0,0.7,0.3,0.9,0.5c0.2-0.3,0.4-0.5,0.9-0.5
		c0.6,0,1,0.4,1,1.1v1.5H60.1z"/>
	<path class="st4" d="M71.2,69.6c-1.1,0-1.8-0.8-1.8-1.8v0c0-0.9,0.7-1.8,1.7-1.8c0.6,0,0.9,0.2,1.3,0.5l-0.2,0.2
		c-0.3-0.2-0.6-0.4-1.1-0.4c-0.9,0-1.4,0.7-1.4,1.6v0c0,0.9,0.6,1.6,1.5,1.6c0.4,0,0.9-0.2,1.1-0.4v-1h-1.2v-0.2h1.4v1.4
		C72.2,69.4,71.7,69.6,71.2,69.6z"/>
	<path class="st4" d="M74.8,67.2c-0.6,0-1.1,0.4-1.1,1.3v1h-0.2V67h0.2v0.7c0.2-0.5,0.6-0.8,1.1-0.8L74.8,67.2L74.8,67.2z"/>
	<path class="st4" d="M76.4,69.4c0.4,0,0.7-0.2,0.9-0.4l0.2,0.2c-0.3,0.3-0.6,0.5-1.1,0.5c-0.7,0-1.3-0.5-1.3-1.3v0
		c0-0.7,0.5-1.3,1.2-1.3c0.7,0,1.2,0.6,1.2,1.3v0c0,0,0,0.1,0,0.1h-2.1C75.4,69,75.9,69.4,76.4,69.4z M77.2,68.2c0-0.5-0.3-1-0.9-1
		c-0.5,0-0.9,0.4-0.9,1H77.2z"/>
	<path class="st4" d="M80,69.6v-0.4c-0.2,0.2-0.5,0.5-1,0.5c-0.5,0-1-0.3-1-0.8v0c0-0.5,0.5-0.8,1.1-0.8c0.4,0,0.6,0,0.8,0.1V68
		c0-0.5-0.3-0.8-0.8-0.8c-0.3,0-0.6,0.1-0.8,0.2l-0.1-0.2c0.3-0.1,0.6-0.2,0.9-0.2c0.7,0,1.1,0.3,1.1,1v1.6H80z M80,68.3
		c-0.2-0.1-0.5-0.1-0.9-0.1c-0.5,0-0.8,0.2-0.8,0.6v0c0,0.4,0.4,0.6,0.7,0.6c0.5,0,1-0.3,1-0.8V68.3z"/>
	<path class="st4" d="M81.9,69.6c-0.4,0-0.7-0.2-0.7-0.7v-1.7h-0.4V67h0.4v-0.8h0.2V67h0.9v0.2h-0.9v1.6c0,0.4,0.2,0.5,0.5,0.5
		c0.1,0,0.2,0,0.4-0.1v0.2C82.2,69.6,82.1,69.6,81.9,69.6z"/>
	<path class="st4" d="M84.1,69.4c0.4,0,0.7-0.2,0.9-0.4l0.2,0.2c-0.3,0.3-0.6,0.5-1.1,0.5c-0.7,0-1.3-0.5-1.3-1.3v0
		c0-0.7,0.5-1.3,1.2-1.3c0.7,0,1.2,0.6,1.2,1.3v0c0,0,0,0.1,0,0.1h-2.1C83.1,69,83.6,69.4,84.1,69.4z M84.9,68.2c0-0.5-0.3-1-0.9-1
		c-0.5,0-0.9,0.4-0.9,1H84.9z"/>
	<path class="st4" d="M87.3,67.2c-0.6,0-1.1,0.4-1.1,1.3v1h-0.2V67h0.2v0.7c0.2-0.5,0.6-0.8,1.1-0.8L87.3,67.2L87.3,67.2z"/>
	<path class="st4" d="M90.7,68.3h-0.9v1.3h-0.3v-3.5h1.3c0.8,0,1.3,0.4,1.3,1.1v0C92,67.9,91.4,68.3,90.7,68.3z M91.8,67.1
		c0-0.6-0.4-0.8-1.1-0.8h-1V68h1C91.3,68,91.8,67.7,91.8,67.1L91.8,67.1z"/>
	<path class="st4" d="M92.8,66.3V66h0.3v0.3H92.8z M92.8,69.6V67H93v2.6H92.8z"/>
	<path class="st4" d="M94.9,69.6c-0.4,0-0.7-0.2-0.7-0.7v-1.7h-0.4V67h0.4v-0.8h0.2V67h0.9v0.2h-0.9v1.6c0,0.4,0.2,0.5,0.5,0.5
		c0.1,0,0.2,0,0.4-0.1v0.2C95.1,69.6,95,69.6,94.9,69.6z"/>
	<path class="st4" d="M96.9,69.6c-0.4,0-0.7-0.2-0.7-0.7v-1.7h-0.4V67h0.4v-0.8h0.2V67h0.9v0.2h-0.9v1.6c0,0.4,0.2,0.5,0.5,0.5
		c0.1,0,0.2,0,0.4-0.1v0.2C97.1,69.6,97,69.6,96.9,69.6z"/>
	<path class="st4" d="M98.8,69.6c-0.4,0-0.8-0.1-1-0.4l0.1-0.2c0.3,0.2,0.6,0.3,0.9,0.3c0.3,0,0.6-0.2,0.6-0.5v0
		c0-0.3-0.3-0.4-0.7-0.5c-0.4-0.1-0.9-0.2-0.9-0.7v0c0-0.4,0.3-0.7,0.8-0.7c0.3,0,0.7,0.1,0.9,0.3l-0.1,0.2
		c-0.2-0.2-0.5-0.3-0.8-0.3c-0.4,0-0.6,0.2-0.6,0.4v0c0,0.3,0.3,0.4,0.7,0.5c0.4,0.1,0.8,0.3,0.8,0.7v0
		C99.7,69.3,99.3,69.6,98.8,69.6z"/>
	<path class="st4" d="M101.8,69.6c-0.5,0-0.8-0.3-1.1-0.6v0.6h-0.2v-3.7h0.2v1.7c0.2-0.3,0.5-0.6,1.1-0.6c0.6,0,1.2,0.5,1.2,1.3v0
		C103,69.1,102.4,69.6,101.8,69.6z M102.8,68.3c0-0.7-0.5-1.1-1-1.1c-0.5,0-1,0.4-1,1.1v0c0,0.7,0.5,1.1,1,1.1
		C102.3,69.4,102.8,69,102.8,68.3L102.8,68.3z"/>
	<path class="st4" d="M105.7,69.6v-0.5c-0.2,0.3-0.5,0.5-0.9,0.5c-0.6,0-1-0.4-1-1.1V67h0.2v1.5c0,0.5,0.3,0.9,0.8,0.9
		c0.5,0,0.9-0.4,0.9-0.9V67h0.2v2.6H105.7z"/>
	<path class="st4" d="M108.2,67.2c-0.6,0-1.1,0.4-1.1,1.3v1h-0.2V67h0.2v0.7c0.2-0.5,0.6-0.8,1.1-0.8L108.2,67.2L108.2,67.2z"/>
	<path class="st4" d="M109.8,70.4c-0.4,0-0.8-0.1-1.2-0.4l0.1-0.2c0.3,0.2,0.7,0.4,1,0.4c0.6,0,1-0.3,1-1v-0.4
		c-0.2,0.3-0.6,0.6-1.1,0.6c-0.6,0-1.2-0.5-1.2-1.2v0c0-0.7,0.6-1.2,1.2-1.2c0.5,0,0.9,0.3,1.1,0.6V67h0.2v2.2
		C111.1,69.9,110.6,70.4,109.8,70.4z M110.9,68.2c0-0.6-0.5-1-1.1-1c-0.5,0-1,0.4-1,1v0c0,0.6,0.5,1,1,1
		C110.3,69.1,110.9,68.7,110.9,68.2L110.9,68.2z"/>
	<path class="st4" d="M114,69.6V68c0-0.5-0.3-0.9-0.8-0.9c-0.5,0-0.9,0.4-0.9,0.9v1.5H112v-3.7h0.2v1.6c0.2-0.3,0.5-0.5,0.9-0.5
		c0.6,0,1,0.4,1,1.1v1.6H114z"/>
	<path class="st3" d="M23,56.5c0.1-0.3,0.2-0.5,0.2-0.6h0c0.1,0.1,0.1,0.4,0.2,0.6l0.5,1.6c0.1,0.3,0.1,0.3-0.2,0.3h-1.2
		c-0.3,0-0.3,0-0.2-0.2L23,56.5z M24.8,60.5c0.1,0.2,0.1,0.4,0.1,0.5c0,0.1-0.1,0.2-0.3,0.2l-0.3,0c-0.1,0-0.1,0.2,0,0.3
		c0.3,0,0.7,0,1.1,0c0.4,0,0.8,0,1.2,0c0.1,0,0.1-0.2,0-0.3l-0.3,0c-0.4-0.1-0.6-0.2-0.8-1.1l-1.4-4c-0.1-0.4-0.3-0.9-0.4-1.3
		c0-0.1-0.1-0.1-0.1-0.1c-0.1,0.1-0.3,0.3-0.5,0.4c0,0.2,0,0.4-0.2,0.7l-1,2.7c-0.4,1.1-0.7,1.8-0.9,2.2c-0.1,0.4-0.4,0.5-0.6,0.5
		l-0.3,0c-0.1,0,0,0.2,0,0.3c0.3,0,0.6,0,0.9,0c0.5,0,0.8,0,1,0c0.1,0,0.1-0.2,0-0.3l-0.3,0c-0.2,0-0.3-0.1-0.3-0.2
		c0-0.1,0.1-0.4,0.2-0.8l0.3-1.1c0.1-0.2,0.1-0.2,0.4-0.2H24c0.3,0,0.3,0,0.4,0.2L24.8,60.5z"/>
	<path class="st3" d="M40.3,59.9c0,1.1,0,1.2,0.6,1.3l0.3,0c0.1,0,0,0.2,0,0.3c-0.6,0-0.9,0-1.3,0c-0.4,0-0.7,0-1.4,0
		c-0.1,0-0.1-0.2,0-0.3l0.4,0c0.6-0.1,0.6-0.2,0.6-1.3v-4.5c0-0.3,0-0.3-0.3-0.3h-0.5c-0.4,0-1,0-1.2,0.3c-0.2,0.2-0.3,0.4-0.4,0.7
		c-0.1,0.1-0.2,0-0.3-0.1c0.2-0.5,0.3-1.1,0.4-1.5c0,0,0.2,0,0.2,0c0.1,0.3,0.4,0.3,0.8,0.3h4c0.5,0,0.6,0,0.8-0.3c0,0,0.2,0,0.2,0
		C43,55,42.9,55.8,43,56.1c0,0.1-0.2,0.1-0.3,0c0-0.3-0.1-0.6-0.2-0.7c-0.2-0.2-0.6-0.3-1.1-0.3h-0.7c-0.3,0-0.3,0-0.3,0.3V59.9z"/>
	<path class="st3" d="M56.7,58.2c-0.5,0-0.5,0-0.5,0.3v1.4c0,1.1,0,1.2,0.6,1.3l0.3,0c0.1,0,0,0.2,0,0.3c-0.5,0-0.9,0-1.3,0
		c-0.4,0-0.8,0-1.1,0c-0.1,0-0.1-0.2,0-0.3l0.2,0c0.6-0.1,0.6-0.2,0.6-1.3v-3.6c0-1.1-0.1-1.2-0.6-1.3l-0.3,0c-0.1,0,0-0.2,0-0.3
		c0.5,0,0.8,0,1.2,0c0.4,0,0.7,0,1.1,0c0.1,0,0.1,0.2,0,0.3l-0.2,0c-0.6,0.1-0.6,0.2-0.6,1.3v1.2c0,0.3,0,0.3,0.5,0.3h2.8
		c0.5,0,0.5,0,0.5-0.3v-1.2c0-1.1,0-1.2-0.6-1.3l-0.2,0c-0.1,0,0-0.2,0-0.3c0.5,0,0.8,0,1.2,0c0.4,0,0.7,0,1.2,0
		c0.1,0,0.1,0.2,0,0.3l-0.2,0c-0.6,0.1-0.6,0.2-0.6,1.3v3.6c0,1.1,0,1.2,0.6,1.3l0.2,0c0.1,0,0,0.2,0,0.3c-0.5,0-0.8,0-1.2,0
		c-0.4,0-0.8,0-1.2,0c-0.1,0-0.1-0.2,0-0.3l0.2,0C60,61.1,60,61,60,59.9v-1.4c0-0.3,0-0.3-0.5-0.3H56.7z"/>
	<path class="st3" d="M74.2,56.3c0-1,0-1.2-0.6-1.3l-0.2,0c-0.1,0,0-0.2,0-0.3c0.4,0,0.8,0,1.2,0h1.9c0.6,0,1.2,0,1.3,0
		c0.1,0.2,0.1,0.9,0.2,1.3c0,0.1-0.2,0.1-0.2,0c-0.1-0.5-0.2-0.8-0.8-1c-0.2,0-0.5-0.1-1-0.1h-0.7c-0.3,0-0.3,0-0.3,0.4v2
		c0,0.3,0,0.3,0.3,0.3h0.6c0.4,0,0.7,0,0.8-0.1c0.1,0,0.2-0.1,0.2-0.4l0.1-0.4c0-0.1,0.2-0.1,0.3,0c0,0.2,0,0.6,0,1c0,0.4,0,0.7,0,1
		c0,0.1-0.2,0.1-0.3,0L77,58.6c0-0.2-0.1-0.3-0.3-0.4c-0.1,0-0.4,0-0.8,0h-0.6c-0.3,0-0.3,0-0.3,0.3v1.4c0,0.5,0,0.9,0.2,1
		c0.1,0.1,0.3,0.2,1.2,0.2c0.8,0,1,0,1.3-0.1c0.2-0.1,0.4-0.5,0.7-1c0.1,0,0.2,0,0.2,0.1c-0.1,0.4-0.3,1.1-0.4,1.4
		c-0.9,0-1.8,0-2.6,0h-0.9c-0.4,0-0.8,0-1.3,0c-0.1,0-0.1-0.2,0-0.3l0.3,0c0.6-0.1,0.6-0.2,0.6-1.3V56.3z"/>
	<path class="st3" d="M96.2,59.7c0,0.3,0,1.5,0,1.8c0,0.1-0.1,0.1-0.2,0.1c-0.1-0.2-0.4-0.5-1.3-1.5l-2.3-2.6
		c-0.3-0.3-0.9-1.1-1.1-1.4h0c0,0.1-0.1,0.4-0.1,0.7v2.2c0,0.5,0,1.8,0.2,2.1c0.1,0.1,0.3,0.2,0.5,0.2l0.3,0c0.1,0.1,0,0.2,0,0.3
		c-0.4,0-0.8,0-1.2,0c-0.4,0-0.7,0-1,0c-0.1-0.1-0.1-0.2,0-0.3l0.3,0c0.2,0,0.4-0.1,0.4-0.2c0.1-0.4,0.1-1.6,0.1-2.1V56
		c0-0.3,0-0.5-0.2-0.7c-0.1-0.1-0.4-0.2-0.6-0.2l-0.2,0c-0.1-0.1-0.1-0.2,0-0.3c0.4,0,0.9,0,1.1,0c0.2,0,0.3,0,0.5,0
		c0.2,0.5,1.4,1.8,1.7,2.2l1,1.1c0.7,0.8,1.2,1.3,1.6,1.8h0c0-0.1,0-0.2,0-0.4v-2.1c0-0.5,0-1.8-0.2-2.1c-0.1-0.1-0.2-0.2-0.6-0.2
		l-0.2,0c-0.1-0.1-0.1-0.2,0-0.3c0.5,0,0.8,0,1.2,0c0.4,0,0.7,0,1,0c0.1,0.1,0.1,0.2,0,0.3l-0.1,0c-0.3,0-0.5,0.1-0.6,0.2
		c-0.2,0.4-0.1,1.6-0.1,2.1V59.7z"/>
	<path class="st3" d="M110.9,56.5c0.1-0.3,0.2-0.5,0.2-0.6h0c0.1,0.1,0.1,0.4,0.2,0.6l0.5,1.6c0.1,0.3,0.1,0.3-0.2,0.3h-1.2
		c-0.3,0-0.3,0-0.2-0.2L110.9,56.5z M112.7,60.5c0.1,0.2,0.1,0.4,0.1,0.5c0,0.1-0.1,0.2-0.3,0.2l-0.3,0c-0.1,0-0.1,0.2,0,0.3
		c0.3,0,0.7,0,1.1,0c0.4,0,0.8,0,1.2,0c0,0,0.1-0.2,0-0.3l-0.3,0c-0.4-0.1-0.6-0.2-0.8-1.1l-1.4-4c-0.1-0.4-0.3-0.9-0.4-1.3
		c0-0.1-0.1-0.1-0.1-0.1c-0.1,0.1-0.3,0.3-0.5,0.4c0,0.2,0,0.4-0.2,0.7l-1,2.7c-0.4,1.1-0.7,1.8-0.9,2.2c-0.1,0.4-0.4,0.5-0.6,0.5
		l-0.3,0c-0.1,0,0,0.2,0,0.3c0.3,0,0.6,0,1,0c0.5,0,0.8,0,1,0c0.1,0,0.1-0.2,0-0.3l-0.3,0c-0.2,0-0.3-0.1-0.3-0.2
		c0-0.1,0.1-0.4,0.2-0.8l0.3-1.1c0.1-0.2,0.1-0.2,0.4-0.2h1.5c0.3,0,0.3,0,0.4,0.2L112.7,60.5z"/>
</g>
</svg>
