<?xml version="1.0"?>
<svg xmlns="http://www.w3.org/2000/svg" height="512px" viewBox="-47 0 511 511.99899" width="512px"><path d="m387.183594 43.976562c-55.578125-30.113281-118.363282-45.28125-181.566406-43.8867182-61.792969 1.3671872-122.65625 18.4648442-176.003907 49.4414062-25.785156 14.972656-36.15625 46.816406-24.121093 74.070312l66.789062 151.242188c.042969.101562.085938.203125.132812.304688l40.292969 91.242187c.011719.027344.023438.054687.035157.085937l50.65625 114.707032c8.402343 19.03125 26.496093 30.816406 47.273437 30.816406.109375 0 .21875 0 .328125-.003906 20.914062-.121094 39.011719-12.144532 47.230469-31.375l154.902343-362.347656c11.921876-27.882813.765626-59.824219-25.949218-74.296876zm-342.5 31.507813c48.976562-28.441406 104.855468-44.136719 161.597656-45.394531 2.457031-.054688 4.90625-.082032 7.359375-.082032 55.496094 0 110.40625 13.894532 159.246094 40.355469 13.003906 7.042969 18.441406 22.570313 12.652343 36.117188l-8.769531 20.507812c-52.792969-26.308593-111.5-39.492187-170.554687-38.171875-57.328125 1.269532-113.84375 16.085938-164.308594 42.953125l-8.960938-20.289062c-5.847656-13.242188-.800781-28.714844 11.738282-35.996094zm60.242187 198.996094c4.847657-2.21875 10.152344-3.398438 15.574219-3.398438 20.648438 0 37.445312 16.796875 37.445312 37.445313 0 15.363281-9.269531 28.734375-22.765624 34.46875zm125.710938 194.34375c-3.5 8.191406-10.90625 13.113281-19.816407 13.164062-8.875.09375-16.371093-4.777343-19.96875-12.929687l-43.546874-98.613282c24.117187-10.421874 40.652343-34.398437 40.652343-61.917968 0-37.195313-30.261719-67.457032-67.457031-67.457032-9.628906 0-19.054688 2.070313-27.695312 5.960938l-38.742188-87.738281c46.824219-25.328125 99.4375-39.292969 152.816406-40.472657 54.78125-1.222656 109.222656 11.148438 158.074219 35.8125l-78.441406 183.492188c-17.578125-6.570312-37.96875-2.632812-51.890625 11.292969-9.273438 9.269531-14.378906 21.597656-14.378906 34.714843 0 13.113282 5.105468 25.441407 14.378906 34.710938 3.914062 3.917969 8.433594 7.097656 13.335937 9.46875zm29.148437-68.175781c-1.429687-.828126-2.761718-1.835938-3.945312-3.023438-3.605469-3.605469-5.589844-8.398438-5.589844-13.496094s1.984375-9.890625 5.589844-13.492187c5.066406-5.066407 12.332031-6.730469 18.839844-4.832031zm0 0" fill="#FFFFFF"/><path d="m307.675781 211.972656c0-34.71875-28.242187-62.960937-62.960937-62.960937-34.714844 0-62.960938 28.242187-62.960938 62.960937 0 34.714844 28.246094 62.960938 62.960938 62.960938 34.71875 0 62.960937-28.246094 62.960937-62.960938zm-95.910156 0c0-18.171875 14.78125-32.953125 32.949219-32.953125 18.171875 0 32.953125 14.78125 32.953125 32.953125 0 18.167969-14.78125 32.949219-32.953125 32.949219-18.167969 0-32.949219-14.78125-32.949219-32.949219zm0 0" fill="#FFFFFF"/></svg>
