<?xml version="1.0" encoding="utf-8"?>
<!-- Generator: Adobe Illustrator 21.0.0, SVG Export Plug-In . SVG Version: 6.00 Build 0)  -->
<svg version="1.1" id="Layer_1" xmlns="http://www.w3.org/2000/svg" xmlns:xlink="http://www.w3.org/1999/xlink" x="0px" y="0px"
	 viewBox="0 0 419.4 166.4" style="enable-background:new 0 0 419.4 166.4;" xml:space="preserve">
<g>
	<path style="fill:#95979A;" d="M375.9,80.7L375.9,80.7c-3.9-3.2-7.7-6.7-11.6-10c-3.9-3.3-7.8-6.6-11.8-9.8c-4-3.2-8-6.4-12.2-9.4
		c-4.1-3-8.3-6-12.6-8.8c-8.6-5.7-17.5-10.9-26.8-15.5c-9.3-4.6-19.1-8.4-29.4-11c-10.3-2.4-21-3.7-31.8-2.3
		c-10.7,1.3-21.3,5.4-29.9,11.9c-8.7,6.5-15.3,15.2-20.4,24.3c-4.4,8-7.7,16.4-10.3,24.9c-6.4-5.4-13-10.7-19.8-15.6
		c-8.1-5.7-16.5-11.1-25.9-14.7c-4.7-1.7-9.8-3.1-15.1-2.8c-2.7,0.2-5.4,0.8-7.8,2.1c-2.4,1.3-4.5,3.2-6,5.4
		c-3.1,4.4-4.4,9.5-5.1,14.4c-0.5,3.5-0.7,7-0.7,10.4c-0.9-1.1-1.9-2.1-2.9-3.2c-2.1-2-4.2-4-6.5-5.8c-4.6-3.5-9.5-6.8-15.2-8.4
		c-2.8-0.8-6-1-8.9-0.1c-2.9,1-5.2,3.3-6.7,5.9c-1.4,2.6-2.3,5.4-2.8,8.2c-0.5,2.8-0.8,5.7-0.9,8.6c0,0.2,0.2,0.4,0.4,0.5
		c0.2,0,0.4-0.2,0.5-0.4c0.2-2.8,0.5-5.6,1.1-8.4c0.6-2.7,1.5-5.4,2.9-7.8c1.4-2.4,3.5-4.3,6-5c2.5-0.8,5.3-0.5,7.9,0.3
		c5.3,1.6,10,4.9,14.3,8.4c2.2,1.8,4.2,3.7,6.1,5.7c1,1,1.9,2.1,2.7,3.1c0.4,0.5,0.8,1.1,1.2,1.6c0.4,0.5,0.7,1.1,0.9,1.5l2.7,7.9
		l0-8.4c0-4.8,0.2-9.6,1-14.3c0.8-4.6,2.2-9.3,4.9-12.8c1.3-1.8,3-3.2,4.9-4.2c1.9-1,4.1-1.4,6.3-1.5c4.4-0.1,9,1.1,13.4,2.9
		c8.7,3.6,16.9,8.9,24.6,14.6c7.8,5.8,15.1,12.1,22.4,18.6l3.2,2.8l1.3-4.1c2.9-9.6,6.7-18.9,11.7-27.4c5-8.5,11.3-16.2,19.1-21.7
		c7.8-5.6,17-8.8,26.5-9.6c9.5-0.8,19.3,0.4,28.8,2.9c19,4.8,37.2,13.7,54.7,23.7c4.4,2.5,8.7,5.1,13,7.8c4.3,2.7,8.5,5.4,12.8,8.2
		l12.7,8.5c4.2,2.8,8.4,5.8,12.9,8.4c0.2,0.1,0.4,0.1,0.5-0.1C376.1,81.2,376.1,80.9,375.9,80.7z"/>
	<path style="fill:#58595B;" d="M18.1,69.5c15.3,0.5,30.5,0.7,45.8,1.1c17,0.3,33.9,0.6,50.9,0.7c17,0.2,33.9,0.3,50.9,0.4l50.9,0.1
		l50.9-0.2c17-0.2,33.9-0.2,50.9-0.5c17-0.2,33.9-0.5,50.9-0.9l25.4-0.7l12.7-0.3l10-0.3c1.1,0,2,0,2-0.2c0-0.2-0.4-0.1-2.1-0.1
		l-9.9-0.2l-12.7-0.3l-25.5-0.6c-17-0.3-33.9-0.6-50.9-0.7c-17-0.2-33.9-0.3-50.9-0.4l-50.9-0.1l-50.9,0.2
		c-17,0.2-33.9,0.3-50.9,0.5c-17,0.2-33.9,0.5-50.9,0.9c-15.3,0.4-30.3,0.6-45.6,1.1c-3.3,0.1-5,0.1-5,0.3
		C13.3,69.4,14.9,69.4,18.1,69.5z"/>
	<path style="fill:#003594;" d="M346.8,91.3L346.8,91.3c-10.3-17.3-22.5-33.9-37.6-47.9c-7.5-7-15.9-13.2-25.1-18.3
		c-9.2-5-19.4-8.7-30-9.9c-10.6-1.2-21.6,0-31.6,3.6c-10,3.5-19.2,8.9-27.3,15.3c-8.2,6.4-15.4,13.8-22,21.6
		c-5.6,6.7-10.8,13.7-15.6,21c-1.7-2.8-3.5-5.5-5.4-8.1c-2.8-3.8-5.9-7.5-9.2-10.9c-3.3-3.4-7-6.6-11-9.3c-4-2.7-8.6-4.9-13.6-5.7
		c-5-0.9-10.4,0.1-14.7,2.6c-4.4,2.5-7.8,6.1-10.6,10c-4.5,6.4-7.5,13.4-10,20.5c-0.9-3.6-2.4-7.1-4.3-10.3
		c-1.5-2.4-3.3-4.6-5.6-6.3c-2.3-1.7-5.2-2.8-8.2-2.5c-3,0.2-5.6,1.6-7.8,3.3c-2.2,1.7-4,3.8-5.7,6c-3.3,4.4-5.9,9.2-8.1,14.1
		c-0.1,0.2,0,0.5,0.2,0.6c0.2,0.1,0.5,0,0.6-0.2c2.4-4.8,5.1-9.5,8.4-13.7c1.7-2.1,3.5-4,5.6-5.6c2.1-1.5,4.5-2.7,7-2.8
		c2.5-0.1,4.9,0.8,6.9,2.4c2,1.6,3.6,3.6,4.9,5.9c2.6,4.5,4.2,9.7,4.4,14.8l0.3,7l2.3-6.7c3-8.7,6.6-17.2,12-24.4
		c2.7-3.6,5.9-6.7,9.7-8.7c3.8-2,8-2.6,12.2-1.8c4.2,0.8,8.1,2.8,11.8,5.3c3.6,2.5,7,5.6,10.1,8.8c3.1,3.3,5.9,6.8,8.6,10.5
		c2.6,3.7,5.1,7.6,7,11.5l2,4.2l2.7-3.9c5.6-8.2,11.6-16.2,18.2-23.6c6.6-7.4,13.7-14.3,21.6-20c7.9-5.8,16.4-10.5,25.6-13.2
		c9.1-2.8,18.7-3.7,28-2.4c9.4,1.2,18.5,4.2,27.2,8.5c8.7,4.3,16.8,9.9,24.4,16.1c3.8,3.1,7.5,6.4,11.1,9.8c3.6,3.4,7.1,7,10.5,10.6
		c3.4,3.6,6.8,7.4,10,11.2c3.3,3.8,6.4,7.7,9.8,11.5c0.1,0.2,0.4,0.2,0.5,0.1C346.8,91.8,346.9,91.5,346.8,91.3z"/>
</g>
<g>
	<path style="fill:#58595B;" d="M28.8,124.4l-3-8.1h-9.9l-3,8.1H8.6L19,96.8h3.6l10.4,27.5H28.8z M24.4,112.6l-3.5-10.5h-0.1
		l-3.5,10.5H24.4z"/>
	<path style="fill:#58595B;" d="M39.5,124.4h-3.9V96.8h3.9V124.4z"/>
	<path style="fill:#58595B;" d="M48,124.4h-3.9V96.8H48V124.4z"/>
	<path style="fill:#58595B;" d="M55.4,115.7c1,4,4.2,5.6,6.8,5.6c2.9,0,4.9-1.7,5.9-3.5H72c-2,5.3-6.7,7-9.9,7
		c-5.8,0-10.5-5-10.5-10.9c0-6.2,4.8-10.8,10.6-10.8c5.6,0,10.4,4.5,10.5,10.6c0,0.7-0.1,1.7-0.1,2H55.4z M68.8,112.8
		c-0.2-3-2.9-6-6.7-6c-3.7,0-6.5,3-6.7,6H68.8z"/>
	<path style="fill:#58595B;" d="M97.1,121.6c0,6.8-4.1,10.9-11.2,10.9c-4.8,0-8.4-2.6-10.2-6.5h4.3c0.6,0.8,2.2,3,5.9,3
		c4.1,0,7.3-1.9,7.3-7.3h-0.1c-0.7,1-2.8,3.2-7.1,3.2c-6.8,0-11-5.9-11-10.9c0-4.6,3.6-10.8,11.1-10.8c3,0,5.7,1.4,7.1,2.9v-2.4h3.9
		V121.6z M86,106.7c-4.1,0-7.1,3.4-7.1,7.3c0,3.7,3,7.3,7.1,7.3c5.1,0,7.2-4.6,7.2-7.3C93.2,108.3,88.4,106.7,86,106.7z"/>
	<path style="fill:#58595B;" d="M116.1,124.4v-11.2c0-1.6,0-6.4-5.1-6.4c-3.2,0-5.4,2.3-5.4,6.4v11.2h-3.9V96.8h3.9v9.1h0.1
		c1.9-2.8,4.9-2.8,5.8-2.8c3.2,0,5.8,1.4,7.3,3.7c0.8,1.3,1.3,3,1.3,5.3v12.2H116.1z"/>
	<path style="fill:#58595B;" d="M127.2,115.7c1,4,4.2,5.6,6.8,5.6c2.9,0,4.9-1.7,5.9-3.5h3.9c-2,5.3-6.7,7-9.9,7
		c-5.8,0-10.5-5-10.5-10.9c0-6.2,4.8-10.8,10.6-10.8c5.6,0,10.4,4.5,10.5,10.6c0,0.7-0.1,1.7-0.1,2H127.2z M140.6,112.8
		c-0.2-3-2.9-6-6.7-6c-3.7,0-6.5,3-6.7,6H140.6z"/>
	<path style="fill:#58595B;" d="M162.3,124.4v-11.2c0-1.6,0-6.4-5.1-6.4c-3.2,0-5.4,2.3-5.4,6.4v11.2h-3.9v-20.6h3.6v2.2h0.1
		c2.1-2.8,5.2-2.8,6-2.8c3.2,0,5.8,1.4,7.3,3.7c0.8,1.3,1.3,3,1.3,5.3v12.2H162.3z"/>
	<path style="fill:#58595B;" d="M177.3,131.2h-4l3-7.3l-8.2-20.2h4.2l6.1,16l6.2-16h4.2L177.3,131.2z"/>
	<path style="fill:#58595B;" d="M222,103.9c-0.8-0.9-3.3-3.9-7.7-3.9c-5.7,0-10.2,4.7-10.2,10.5c0,5.9,4.8,10.7,10.2,10.7
		c2.9,0,5.6-1.4,7.5-3.6h4.9c-3,5.4-8.2,7.3-12.5,7.3c-7.8,0-14.1-6.6-14.1-14.4c0-8,6.5-14.2,14.2-14.2c2.1,0,5.4,0.5,8.4,2.7
		c2.5,1.8,3.5,3.6,4.2,4.9H222z"/>
	<path style="fill:#58595B;" d="M239.8,124.9c-6.9,0-11.1-5.8-11.1-11c0-5.6,4.7-10.7,11.1-10.7c6.2,0,11.1,4.9,11.1,10.8
		C250.9,119,246.8,124.9,239.8,124.9z M239.8,106.7c-4.4,0-7.3,3.6-7.3,7.3c0,3.7,2.9,7.3,7.3,7.3c4.2,0,7.3-3.5,7.3-7.4
		C247.1,110.3,244.2,106.7,239.8,106.7z"/>
	<path style="fill:#58595B;" d="M268.9,124.4v-11.2c0-1.6,0-6.4-5.1-6.4c-3.2,0-5.4,2.3-5.4,6.4v11.2h-3.9v-20.6h3.6v2.2h0.1
		c2.1-2.8,5.2-2.8,6-2.8c3.2,0,5.8,1.4,7.3,3.7c0.8,1.3,1.3,3,1.3,5.3v12.2H268.9z"/>
	<path style="fill:#58595B;" d="M277.4,124.4v-17.1h-1.8v-3.5h1.8v-1c0-2.2,0.9-3.7,2.5-4.8c1.7-1,2.8-1.1,5-1.1v3.5
		c-2.6,0-3.6,0.9-3.6,2.4v1h3.6v3.5h-3.6v17.1H277.4z"/>
	<path style="fill:#58595B;" d="M290.1,115.7c1,4,4.2,5.6,6.8,5.6c2.9,0,4.9-1.7,5.9-3.5h3.9c-2,5.3-6.7,7-9.9,7
		c-5.8,0-10.5-5-10.5-10.9c0-6.2,4.8-10.8,10.6-10.8c5.6,0,10.4,4.5,10.5,10.6c0,0.7-0.1,1.7-0.1,2H290.1z M303.4,112.8
		c-0.2-3-2.9-6-6.7-6c-3.7,0-6.5,3-6.7,6H303.4z"/>
	<path style="fill:#58595B;" d="M310.8,124.4v-20.6h3.6v1.9h0.1c1.6-2.3,4.3-2.4,5.2-2.4v4c-0.6,0-1.9,0.3-2.8,0.7
		c-1.2,0.7-2.3,2.2-2.3,5.2v11.3H310.8z"/>
	<path style="fill:#58595B;" d="M325,115.7c1,4,4.2,5.6,6.8,5.6c2.9,0,4.9-1.7,5.9-3.5h3.9c-2,5.3-6.7,7-9.9,7
		c-5.8,0-10.5-5-10.5-10.9c0-6.2,4.8-10.8,10.6-10.8c5.6,0,10.4,4.5,10.5,10.6c0,0.7-0.1,1.7-0.1,2H325z M338.3,112.8
		c-0.2-3-2.9-6-6.7-6c-3.7,0-6.5,3-6.7,6H338.3z"/>
	<path style="fill:#58595B;" d="M360,124.4v-11.2c0-1.6,0-6.4-5.1-6.4c-3.2,0-5.4,2.3-5.4,6.4v11.2h-3.9v-20.6h3.6v2.2h0.1
		c2.1-2.8,5.2-2.8,6-2.8c3.2,0,5.8,1.4,7.3,3.7c0.8,1.3,1.3,3,1.3,5.3v12.2H360z"/>
	<path style="fill:#58595B;" d="M383.8,110.6c-0.6-1.3-2.1-3.9-5.8-3.9c-5,0-6.8,4.2-6.8,7.3c0,3.6,2.3,7.3,6.7,7.3
		c2.9,0,4.9-1.7,5.8-3.8h4.3c-1.6,4.6-5.6,7.3-10.2,7.3c-6.8,0-10.6-5.5-10.6-10.9c0-5.6,4.1-10.8,10.6-10.8c5.8,0,9.3,4.4,10.1,7.4
		H383.8z"/>
	<path style="fill:#58595B;" d="M394.2,115.7c1,4,4.2,5.6,6.8,5.6c2.9,0,4.9-1.7,5.9-3.5h3.9c-2,5.3-6.7,7-9.9,7
		c-5.8,0-10.5-5-10.5-10.9c0-6.2,4.8-10.8,10.6-10.8c5.6,0,10.4,4.5,10.5,10.6c0,0.7-0.1,1.7-0.1,2H394.2z M407.5,112.8
		c-0.2-3-2.9-6-6.7-6c-3.7,0-6.5,3-6.7,6H407.5z"/>
	<path style="fill:#58595B;" d="M16.7,156.9c-5.4,0-8.7-4.5-8.7-8.6c0-4.4,3.7-8.4,8.7-8.4c4.9,0,8.7,3.8,8.7,8.5
		C25.4,152.3,22.2,156.9,16.7,156.9z M16.7,142.7c-3.4,0-5.7,2.8-5.7,5.7c0,2.9,2.3,5.7,5.7,5.7c3.3,0,5.7-2.7,5.7-5.8
		C22.4,145.5,20.1,142.7,16.7,142.7z"/>
	<path style="fill:#58595B;" d="M39.5,156.5v-8.8c0-1.3,0-5-4-5c-2.5,0-4.3,1.8-4.3,5v8.8h-3v-16.2H31v1.7h0.1
		c1.6-2.2,4.1-2.2,4.7-2.2c2.5,0,4.5,1.1,5.7,2.9c0.6,1,1,2.3,1,4.1v9.6H39.5z"/>
	<path style="fill:#58595B;" d="M70.3,140.4c-0.6-0.7-2.6-3-6.1-3c-4.5,0-8,3.7-8,8.3c0,4.6,3.7,8.4,8,8.4c2.3,0,4.4-1.1,5.9-2.9
		h3.9c-2.4,4.2-6.4,5.7-9.8,5.7c-6.1,0-11.1-5.2-11.1-11.3c0-6.3,5.1-11.1,11.1-11.1c1.6,0,4.3,0.4,6.6,2.1c2,1.4,2.8,2.9,3.3,3.8
		H70.3z"/>
	<path style="fill:#58595B;" d="M84.3,156.9c-5.4,0-8.7-4.5-8.7-8.6c0-4.4,3.7-8.4,8.7-8.4c4.9,0,8.7,3.8,8.7,8.5
		C93,152.3,89.8,156.9,84.3,156.9z M84.3,142.7c-3.4,0-5.7,2.8-5.7,5.7c0,2.9,2.3,5.7,5.7,5.7c3.3,0,5.7-2.7,5.7-5.8
		C90,145.5,87.7,142.7,84.3,142.7z"/>
	<path style="fill:#58595B;" d="M117.2,156.5v-9c0-1.4-0.2-4.8-3.8-4.8c-3.9,0-3.8,3.5-3.8,4.8v9h-3v-9c0-1.3,0-2.2-0.7-3.3
		c-0.8-1.2-1.9-1.5-3-1.5c-4,0-4,3.6-4,4.8v9h-3v-16.2h2.8v1.7h0.1c0.6-0.7,1.6-2.2,4.6-2.2c2,0,4.2,0.9,5,2.7
		c0.5-0.8,1.7-2.7,5.3-2.7c2.7,0,4.6,1.1,5.7,2.9c0.6,1,0.9,2.4,0.9,3.9v9.7H117.2z"/>
	<path style="fill:#58595B;" d="M145.2,156.5v-9c0-1.4-0.2-4.8-3.8-4.8c-3.9,0-3.8,3.5-3.8,4.8v9h-3v-9c0-1.3,0-2.2-0.7-3.3
		c-0.8-1.2-1.9-1.5-3-1.5c-4,0-4,3.6-4,4.8v9h-3v-16.2h2.8v1.7h0.1c0.6-0.7,1.6-2.2,4.6-2.2c2,0,4.2,0.9,5,2.7
		c0.5-0.8,1.7-2.7,5.3-2.7c2.7,0,4.6,1.1,5.7,2.9c0.6,1,0.9,2.4,0.9,3.9v9.7H145.2z"/>
	<path style="fill:#58595B;" d="M154.3,140.3v8.7c0,4,1.8,5,4,5c2.5,0,4.2-1.6,4.2-5.1v-8.7h3v16.2h-2.8v-1.8h-0.1
		c-0.8,1.4-2.7,2.2-4.8,2.2c-1.8,0-3.4-0.6-4.6-1.6c-1.3-1.2-2.1-3-2.1-6.2v-8.7H154.3z"/>
	<path style="fill:#58595B;" d="M180.4,156.5v-8.8c0-1.3,0-5-4-5c-2.5,0-4.3,1.8-4.3,5v8.8h-3v-16.2h2.8v1.7h0.1
		c1.6-2.2,4.1-2.2,4.7-2.2c2.5,0,4.5,1.1,5.7,2.9c0.6,1,1,2.3,1,4.1v9.6H180.4z"/>
	<path style="fill:#58595B;" d="M190.1,138.5h-3v-3.6h3V138.5z M190.1,156.5h-3v-16.2h3V156.5z"/>
	<path style="fill:#58595B;" d="M197.1,156.5h-3v-13.4h-2.2v-2.8h2.2v-5.4h3v5.4h2.7v2.8h-2.7V156.5z"/>
	<path style="fill:#58595B;" d="M207.1,161.9h-3.1l2.4-5.7l-6.4-15.8h3.3l4.8,12.5l4.9-12.5h3.3L207.1,161.9z"/>
	<path style="fill:#58595B;" d="M225.7,134.9h7c4.5,0,7.2,1.7,8.8,4c1.5,2.2,2.2,4.8,2.2,6.9c0,2.9-1.1,6-2.7,7.6
		c-2.5,2.4-5.4,3.1-8.4,3.1h-6.9V134.9z M228.8,153.6h3.8c3.8,0,8-1.9,8-7.8c0-3.3-2-8-7.9-8h-3.8V153.6z"/>
	<path style="fill:#58595B;" d="M249,149.7c0.8,3.1,3.3,4.4,5.3,4.4c2.2,0,3.9-1.3,4.6-2.7h3c-1.5,4.2-5.2,5.5-7.8,5.5
		c-4.6,0-8.2-3.9-8.2-8.5c0-4.8,3.7-8.5,8.3-8.5c4.4,0,8.2,3.6,8.2,8.3c0,0.5-0.1,1.3-0.1,1.5H249z M259.4,147.4
		c-0.1-2.4-2.3-4.7-5.2-4.7c-2.9,0-5.1,2.4-5.2,4.7H259.4z"/>
	<path style="fill:#58595B;" d="M271.6,156.5h-2.1l-6.4-16.2h3.2l4.2,11.5h0.1l4.1-11.5h3.2L271.6,156.5z"/>
	<path style="fill:#58595B;" d="M281.6,149.7c0.8,3.1,3.3,4.4,5.3,4.4c2.2,0,3.9-1.3,4.6-2.7h3c-1.5,4.2-5.2,5.5-7.8,5.5
		c-4.6,0-8.2-3.9-8.2-8.5c0-4.8,3.7-8.5,8.3-8.5c4.4,0,8.2,3.6,8.2,8.3c0,0.5-0.1,1.3-0.1,1.5H281.6z M292,147.4
		c-0.1-2.4-2.3-4.7-5.2-4.7c-2.9,0-5.1,2.4-5.2,4.7H292z"/>
	<path style="fill:#58595B;" d="M300.8,156.5h-3v-21.6h3V156.5z"/>
	<path style="fill:#58595B;" d="M312.3,156.9c-5.4,0-8.7-4.5-8.7-8.6c0-4.4,3.7-8.4,8.7-8.4c4.9,0,8.7,3.8,8.7,8.5
		C321.1,152.3,317.8,156.9,312.3,156.9z M312.3,142.7c-3.4,0-5.7,2.8-5.7,5.7c0,2.9,2.3,5.7,5.7,5.7c3.3,0,5.7-2.7,5.7-5.8
		C318,145.5,315.7,142.7,312.3,142.7z"/>
	<path style="fill:#58595B;" d="M323.8,140.3h2.8v2.5h0.1c1.5-2.1,3.7-2.9,5.7-2.9c5.5,0,8.4,4.4,8.4,8.7c0,4.1-3.1,8.3-8.2,8.3
		c-3.4,0-5.1-1.7-5.7-2.7h-0.1v7.7h-3V140.3z M332.2,142.7c-3.2,0-5.4,2.7-5.4,5.7c0,3.3,2.4,5.7,5.5,5.7c2.9,0,5.5-2.3,5.5-5.7
		C337.8,145.5,335.5,142.7,332.2,142.7z"/>
	<path style="fill:#58595B;" d="M365,156.5v-9c0-1.4-0.2-4.8-3.8-4.8c-3.9,0-3.8,3.5-3.8,4.8v9h-3v-9c0-1.3,0-2.2-0.7-3.3
		c-0.8-1.2-1.9-1.5-3-1.5c-4,0-4,3.6-4,4.8v9h-3v-16.2h2.8v1.7h0.1c0.6-0.7,1.6-2.2,4.6-2.2c2,0,4.2,0.9,5,2.7
		c0.5-0.8,1.7-2.7,5.3-2.7c2.7,0,4.6,1.1,5.7,2.9c0.6,1,0.9,2.4,0.9,3.9v9.7H365z"/>
	<path style="fill:#58595B;" d="M373.8,149.7c0.8,3.1,3.3,4.4,5.3,4.4c2.2,0,3.9-1.3,4.6-2.7h3c-1.5,4.2-5.2,5.5-7.8,5.5
		c-4.6,0-8.2-3.9-8.2-8.5c0-4.8,3.7-8.5,8.3-8.5c4.4,0,8.2,3.6,8.2,8.3c0,0.5-0.1,1.3-0.1,1.5H373.8z M384.2,147.4
		c-0.1-2.4-2.3-4.7-5.2-4.7c-2.9,0-5.1,2.4-5.2,4.7H384.2z"/>
	<path style="fill:#58595B;" d="M401.3,156.5v-8.8c0-1.3,0-5-4-5c-2.5,0-4.3,1.8-4.3,5v8.8h-3v-16.2h2.8v1.7h0.1
		c1.6-2.2,4.1-2.2,4.7-2.2c2.5,0,4.5,1.1,5.7,2.9c0.6,1,1,2.3,1,4.1v9.6H401.3z"/>
	<path style="fill:#58595B;" d="M411.3,156.5h-3v-13.4h-2.2v-2.8h2.2v-5.4h3v5.4h2.7v2.8h-2.7V156.5z"/>
</g>
</svg>
