<?xml version="1.0" encoding="utf-8"?>
<!-- Generator: Adobe Illustrator 21.0.2, SVG Export Plug-In . SVG Version: 6.00 Build 0)  -->
<svg version="1.1" id="Layer_1" xmlns="http://www.w3.org/2000/svg" xmlns:xlink="http://www.w3.org/1999/xlink" x="0px" y="0px"
	 viewBox="0 0 144 72" style="enable-background:new 0 0 144 72;" xml:space="preserve">
<style type="text/css">
	.st0{fill:#A7A9AC;}
</style>
<g>
	<path d="M81.1,50.6C81.1,50.6,81,50.6,81.1,50.6c-0.1,0-0.1,0-0.2-0.1c0-0.1-0.1-0.2,0-0.3c0.1-0.6,0.8-1.8,1.6-2.9
		c0.5-0.7,1.2-1.6,1.9-2.5l0,0l0,0l0,0c-0.1,0.1-0.4,0.4-0.6,0.5c0,0,0,0,0,0c0,0,0,0,0,0l0,0c-0.1,0.1-0.2,0.2-0.3,0.3
		c-0.2,0.1-0.3,0.2-0.4,0.2c0,0-0.1,0-0.1,0c-0.1,0-0.1,0-0.1,0l0,0l0,0c-0.2,0.1-0.7,0.5-1.2,0.5c-0.2,0-0.3,0-0.4-0.1
		C81,46,80.9,45.9,81,45.8c0-0.2,0.1-0.5,0.3-0.7l0,0l0,0l0,0c0,0-0.1,0.1-0.1,0.1c0,0-0.1,0.1-0.1,0.1c-0.1,0.1-0.1,0.1-0.1,0.1
		c0,0,0,0,0.1-0.1c0.1-0.1,0.2-0.2,0.3-0.3c0.1-0.1,0.3-0.2,0.5-0.3c0.3-0.2,0.7-0.3,0.9-0.3c0,0,0.1,0,0.1,0c0,0,0,0,0,0
		c0,0,0,0-0.1,0c-0.3,0.1-0.5,0.3-0.8,0.6c-0.3,0.3-0.6,0.7-0.6,1c0,0.1,0,0.1,0,0.2c0,0,0.1,0.1,0.1,0.1c0.2,0,0.7-0.3,1-0.7l0,0
		l0,0c0-0.1,0.1-0.3,0.2-0.4c0.1-0.2,0.3-0.3,0.3-0.3l0,0l0,0c0-0.1,0-0.2,0-0.3c0-0.1,0-0.1,0-0.1c0,0,0,0,0,0c0,0,0,0,0,0
		c0,0,0,0,0,0c0,0,0.1,0,0.1,0.1c0.1,0.1,0.1,0.2,0.1,0.4c0,0.2-0.2,0.5-0.6,0.9l0,0l0,0c0,0,0.1,0,0.1,0c0,0,0.1,0,0.1,0
		c0.1,0,0.2-0.1,0.4-0.2c0.1-0.1,0.2-0.2,0.4-0.3c0,0,0,0,0,0c0,0,0,0,0,0c0,0,0,0,0,0c0.3-0.3,0.6-0.6,0.9-0.8l0,0l0,0
		c0.5-0.6,0.9-1.1,1.2-1.5c0.9-1,2-2.1,2.5-2.5c0.3-0.2,0.6-0.4,0.9-0.4h0c0.1,0,0.2,0,0.2,0.1c0.1,0.1,0.1,0.2,0.1,0.3
		c-0.1,0.5-1.1,1.4-2.2,2.2l-0.1,0.1c-0.2,0.2-0.5,0.4-0.8,0.6c-0.5,0.4-1,0.8-1.4,1.1c-0.6,0.7-0.9,1.2-1.3,1.7l0,0.1l0.1,0
		c0.1,0,0.3-0.1,0.5-0.2c0.2-0.1,0.4-0.2,0.6-0.3c0.2-0.1,0.5-0.3,0.6-0.5c0.1-0.1,0.1-0.1,0.1-0.1c0,0,0,0-0.1,0.1l0,0
		c-0.2,0.2-0.5,0.4-0.7,0.6c-0.3,0.2-0.7,0.3-0.9,0.4c-0.1,0.1-0.2,0.1-0.3,0.2c-0.1,0.1-0.1,0.2-0.2,0.4c-0.2,0.5-0.5,1.4-0.9,2.1
		c-0.4,0.7-0.9,1.3-1.3,1.6C81.3,50.5,81.2,50.6,81.1,50.6z M83.7,46.4c-0.6,0.8-0.8,1-1.2,1.7l-0.2,0.3c-0.3,0.5-0.9,1.3-1.1,1.8
		c-0.1,0.2,0,0.3,0,0.3c0,0,0,0,0.1,0c0.1,0,0.1,0,0.2-0.1c0.3-0.2,0.8-0.9,1.2-1.6C83.2,47.9,83.6,46.8,83.7,46.4L83.7,46.4z
		 M89.2,40c-0.2,0-0.4,0.2-0.7,0.4c-0.4,0.3-0.9,0.9-1.4,1.6c-0.8,0.9-1.1,1.3-1.7,2.1l0,0l0,0c0.5-0.5,0.9-0.8,1.2-1
		c0.3-0.2,0.5-0.4,0.7-0.6l0.2-0.2c1-0.9,1.9-1.7,1.9-2.1c0-0.1,0-0.1,0-0.2C89.3,40,89.3,40,89.2,40z"/>
	<path d="M41.9,46.2l-0.4-1h-2.1l-0.4,1h-0.3l1.6-3.5h0.3l1.6,3.5H41.9z M40.5,42.9l-0.9,2h1.8L40.5,42.9z"/>
	<path d="M45.4,46.2h-0.2L44.4,44l-0.8,2.2h-0.2l-0.9-2.6h0.3l0.8,2.2l0.8-2.3h0.2l0.8,2.3l0.8-2.2h0.3L45.4,46.2z"/>
	<path d="M48.6,46.2v-0.4c-0.2,0.2-0.5,0.5-1,0.5c-0.5,0-1-0.3-1-0.8v0c0-0.5,0.5-0.8,1.1-0.8c0.4,0,0.6,0,0.8,0.1v-0.1
		c0-0.5-0.3-0.8-0.8-0.8c-0.3,0-0.6,0.1-0.8,0.2l-0.1-0.2c0.3-0.1,0.6-0.2,0.9-0.2c0.7,0,1.1,0.3,1.1,1v1.6H48.6z M48.7,44.9
		c-0.2-0.1-0.5-0.1-0.9-0.1c-0.5,0-0.8,0.2-0.8,0.6v0c0,0.4,0.4,0.6,0.7,0.6c0.5,0,1-0.3,1-0.8V44.9z"/>
	<path d="M51.1,43.8c-0.6,0-1.1,0.4-1.1,1.3v1h-0.2v-2.6H50v0.7c0.2-0.5,0.6-0.8,1.1-0.8L51.1,43.8L51.1,43.8z"/>
	<path d="M53.8,46.2v-0.6c-0.2,0.3-0.5,0.6-1.1,0.6c-0.6,0-1.2-0.5-1.2-1.3v0c0-0.8,0.6-1.3,1.2-1.3c0.5,0,0.8,0.3,1.1,0.6v-1.7H54
		v3.7H53.8z M53.8,44.9c0-0.7-0.5-1.1-1-1.1c-0.6,0-1,0.4-1,1.1v0c0,0.7,0.5,1.1,1,1.1C53.3,46,53.8,45.5,53.8,44.9L53.8,44.9z"/>
	<path d="M55.8,46.2c-0.4,0-0.8-0.1-1-0.4l0.1-0.2c0.3,0.2,0.6,0.3,0.9,0.3c0.3,0,0.6-0.2,0.6-0.5v0c0-0.3-0.3-0.4-0.7-0.5
		c-0.4-0.1-0.9-0.2-0.9-0.7v0c0-0.4,0.3-0.7,0.8-0.7c0.3,0,0.7,0.1,0.9,0.3L56.5,44c-0.2-0.2-0.5-0.3-0.8-0.3
		c-0.4,0-0.6,0.2-0.6,0.4v0c0,0.3,0.3,0.4,0.7,0.5c0.4,0.1,0.8,0.3,0.8,0.7v0C56.6,45.9,56.3,46.2,55.8,46.2z"/>
	<path d="M60.2,44.9h-0.9v1.3H59v-3.5h1.3c0.8,0,1.3,0.4,1.3,1.1v0C61.6,44.5,60.9,44.9,60.2,44.9z M61.3,43.7
		c0-0.6-0.4-0.8-1.1-0.8h-1v1.7h1C60.9,44.6,61.3,44.3,61.3,43.7L61.3,43.7z"/>
	<path d="M63.6,43.8c-0.6,0-1.1,0.4-1.1,1.3v1h-0.2v-2.6h0.2v0.7c0.2-0.5,0.6-0.8,1.1-0.8L63.6,43.8L63.6,43.8z"/>
	<path d="M65.3,46.2c-0.8,0-1.3-0.6-1.3-1.3v0c0-0.7,0.6-1.3,1.3-1.3c0.8,0,1.3,0.6,1.3,1.3v0C66.6,45.6,66,46.2,65.3,46.2z
		 M66.3,44.9c0-0.6-0.5-1.1-1.1-1.1c-0.6,0-1,0.5-1,1.1v0c0,0.6,0.5,1.1,1.1,1.1C65.9,46,66.3,45.5,66.3,44.9L66.3,44.9z"/>
	<path d="M68.5,47c-0.4,0-0.8-0.1-1.2-0.4l0.1-0.2c0.3,0.2,0.7,0.4,1,0.4c0.6,0,1-0.3,1-1v-0.4c-0.2,0.3-0.6,0.6-1.1,0.6
		c-0.6,0-1.2-0.5-1.2-1.2v0c0-0.7,0.6-1.2,1.2-1.2c0.5,0,0.9,0.3,1.1,0.6v-0.5h0.2v2.2C69.7,46.5,69.2,47,68.5,47z M69.5,44.8
		c0-0.6-0.5-1-1.1-1c-0.5,0-1,0.4-1,1v0c0,0.6,0.5,1,1,1C69,45.7,69.5,45.3,69.5,44.8L69.5,44.8z"/>
	<path d="M72,43.8c-0.6,0-1.1,0.4-1.1,1.3v1h-0.2v-2.6h0.2v0.7c0.2-0.5,0.6-0.8,1.1-0.8L72,43.8L72,43.8z"/>
	<path d="M74.3,46.2v-0.4c-0.2,0.2-0.5,0.5-1,0.5c-0.5,0-1-0.3-1-0.8v0c0-0.5,0.5-0.8,1.1-0.8c0.4,0,0.6,0,0.8,0.1v-0.1
		c0-0.5-0.3-0.8-0.8-0.8c-0.3,0-0.6,0.1-0.8,0.2l-0.1-0.2c0.3-0.1,0.6-0.2,0.9-0.2c0.7,0,1.1,0.3,1.1,1v1.6H74.3z M74.3,44.9
		c-0.2-0.1-0.5-0.1-0.9-0.1c-0.5,0-0.8,0.2-0.8,0.6v0c0,0.4,0.4,0.6,0.7,0.6c0.5,0,1-0.3,1-0.8V44.9z"/>
	<path d="M79,46.2v-1.5c0-0.6-0.3-0.9-0.8-0.9c-0.4,0-0.8,0.3-0.8,0.9v1.5h-0.2v-1.5c0-0.5-0.3-0.9-0.7-0.9c-0.5,0-0.8,0.4-0.8,0.9
		v1.5h-0.2v-2.6h0.2v0.5c0.2-0.3,0.4-0.5,0.9-0.5c0.4,0,0.7,0.3,0.9,0.5c0.2-0.3,0.4-0.5,0.9-0.5c0.6,0,1,0.4,1,1.1v1.5H79z"/>
	<path d="M90.1,46.2c-1.1,0-1.8-0.8-1.8-1.8v0c0-0.9,0.7-1.8,1.7-1.8c0.6,0,0.9,0.2,1.3,0.5l-0.2,0.2c-0.3-0.2-0.6-0.4-1.1-0.4
		c-0.9,0-1.4,0.7-1.4,1.6v0c0,0.9,0.6,1.6,1.5,1.6c0.4,0,0.9-0.2,1.1-0.4v-1h-1.2v-0.2h1.4v1.4C91.2,46,90.7,46.2,90.1,46.2z"/>
	<path d="M93.7,43.8c-0.6,0-1.1,0.4-1.1,1.3v1h-0.2v-2.6h0.2v0.7c0.2-0.5,0.6-0.8,1.1-0.8L93.7,43.8L93.7,43.8z"/>
	<path d="M95.3,46c0.4,0,0.7-0.2,0.9-0.4l0.2,0.2c-0.3,0.3-0.6,0.5-1.1,0.5c-0.7,0-1.3-0.5-1.3-1.3v0c0-0.7,0.5-1.3,1.2-1.3
		c0.7,0,1.2,0.6,1.2,1.3v0c0,0,0,0.1,0,0.1h-2.1C94.4,45.6,94.8,46,95.3,46z M96.2,44.8c0-0.5-0.3-1-0.9-1c-0.5,0-0.9,0.4-0.9,1
		H96.2z"/>
	<path d="M98.9,46.2v-0.4c-0.2,0.2-0.5,0.5-1,0.5c-0.5,0-1-0.3-1-0.8v0c0-0.5,0.5-0.8,1.1-0.8c0.4,0,0.6,0,0.8,0.1v-0.1
		c0-0.5-0.3-0.8-0.8-0.8c-0.3,0-0.6,0.1-0.8,0.2l-0.1-0.2c0.3-0.1,0.6-0.2,0.9-0.2c0.7,0,1.1,0.3,1.1,1v1.6H98.9z M98.9,44.9
		c-0.2-0.1-0.5-0.1-0.9-0.1c-0.5,0-0.8,0.2-0.8,0.6v0c0,0.4,0.4,0.6,0.7,0.6c0.5,0,1-0.3,1-0.8V44.9z"/>
	<path d="M100.9,46.2c-0.4,0-0.7-0.2-0.7-0.7v-1.7h-0.4v-0.2h0.4v-0.8h0.2v0.8h0.9v0.2h-0.9v1.6c0,0.4,0.2,0.5,0.5,0.5
		c0.1,0,0.2,0,0.4-0.1v0.2C101.1,46.2,101,46.2,100.9,46.2z"/>
	<path d="M103,46c0.4,0,0.7-0.2,0.9-0.4l0.2,0.2c-0.3,0.3-0.6,0.5-1.1,0.5c-0.7,0-1.3-0.5-1.3-1.3v0c0-0.7,0.5-1.3,1.2-1.3
		c0.7,0,1.2,0.6,1.2,1.3v0c0,0,0,0.1,0,0.1H102C102.1,45.6,102.5,46,103,46z M103.9,44.8c0-0.5-0.3-1-0.9-1c-0.5,0-0.9,0.4-0.9,1
		H103.9z"/>
	<path d="M106.2,43.8c-0.6,0-1.1,0.4-1.1,1.3v1h-0.2v-2.6h0.2v0.7c0.2-0.5,0.6-0.8,1.1-0.8L106.2,43.8L106.2,43.8z"/>
	<path d="M109.6,44.9h-0.9v1.3h-0.3v-3.5h1.3c0.8,0,1.3,0.4,1.3,1.1v0C111,44.5,110.3,44.9,109.6,44.9z M110.7,43.7
		c0-0.6-0.4-0.8-1.1-0.8h-1v1.7h1C110.3,44.6,110.7,44.3,110.7,43.7L110.7,43.7z"/>
	<path d="M111.7,42.9v-0.3h0.3v0.3H111.7z M111.7,46.2v-2.6h0.2v2.6H111.7z"/>
	<path d="M113.8,46.2c-0.4,0-0.7-0.2-0.7-0.7v-1.7h-0.4v-0.2h0.4v-0.8h0.2v0.8h0.9v0.2h-0.9v1.6c0,0.4,0.2,0.5,0.5,0.5
		c0.1,0,0.2,0,0.4-0.1v0.2C114.1,46.2,113.9,46.2,113.8,46.2z"/>
	<path d="M115.8,46.2c-0.4,0-0.7-0.2-0.7-0.7v-1.7h-0.4v-0.2h0.4v-0.8h0.2v0.8h0.9v0.2h-0.9v1.6c0,0.4,0.2,0.5,0.5,0.5
		c0.1,0,0.2,0,0.4-0.1v0.2C116.1,46.2,115.9,46.2,115.8,46.2z"/>
	<path d="M117.8,46.2c-0.4,0-0.8-0.1-1-0.4l0.1-0.2c0.3,0.2,0.6,0.3,0.9,0.3c0.3,0,0.6-0.2,0.6-0.5v0c0-0.3-0.3-0.4-0.7-0.5
		c-0.4-0.1-0.9-0.2-0.9-0.7v0c0-0.4,0.3-0.7,0.8-0.7c0.3,0,0.7,0.1,0.9,0.3l-0.1,0.2c-0.2-0.2-0.5-0.3-0.8-0.3
		c-0.4,0-0.6,0.2-0.6,0.4v0c0,0.3,0.3,0.4,0.7,0.5c0.4,0.1,0.8,0.3,0.8,0.7v0C118.6,45.9,118.3,46.2,117.8,46.2z"/>
	<path d="M120.7,46.2c-0.5,0-0.8-0.3-1.1-0.6v0.6h-0.2v-3.7h0.2v1.7c0.2-0.3,0.5-0.6,1.1-0.6c0.6,0,1.2,0.5,1.2,1.3v0
		C122,45.7,121.3,46.2,120.7,46.2z M121.7,44.9c0-0.7-0.5-1.1-1-1.1c-0.5,0-1,0.4-1,1.1v0c0,0.7,0.5,1.1,1,1.1
		C121.2,46,121.7,45.6,121.7,44.9L121.7,44.9z"/>
	<path d="M124.6,46.2v-0.5c-0.2,0.3-0.5,0.5-0.9,0.5c-0.6,0-1-0.4-1-1.1v-1.6h0.2v1.5c0,0.5,0.3,0.9,0.8,0.9c0.5,0,0.9-0.4,0.9-0.9
		v-1.5h0.2v2.6H124.6z"/>
	<path d="M127.1,43.8c-0.6,0-1.1,0.4-1.1,1.3v1h-0.2v-2.6h0.2v0.7c0.2-0.5,0.6-0.8,1.1-0.8L127.1,43.8L127.1,43.8z"/>
	<path d="M128.8,47c-0.4,0-0.8-0.1-1.2-0.4l0.1-0.2c0.3,0.2,0.7,0.4,1,0.4c0.6,0,1-0.3,1-1v-0.4c-0.2,0.3-0.6,0.6-1.1,0.6
		c-0.6,0-1.2-0.5-1.2-1.2v0c0-0.7,0.6-1.2,1.2-1.2c0.5,0,0.9,0.3,1.1,0.6v-0.5h0.2v2.2C130,46.5,129.5,47,128.8,47z M129.8,44.8
		c0-0.6-0.5-1-1.1-1c-0.5,0-1,0.4-1,1v0c0,0.6,0.5,1,1,1C129.3,45.7,129.8,45.3,129.8,44.8L129.8,44.8z"/>
	<path d="M132.9,46.2v-1.5c0-0.5-0.3-0.9-0.8-0.9c-0.5,0-0.9,0.4-0.9,0.9v1.5H131v-3.7h0.2v1.6c0.2-0.3,0.5-0.5,0.9-0.5
		c0.6,0,1,0.4,1,1.1v1.6H132.9z"/>
	<g>
		<path class="st0" d="M22.9,28.4c-0.1,0.5-0.4,0.9-0.9,1.1c-0.8,3.2-2.1,6.1-3.7,8.6C15.2,43,13.9,49,13.7,54.9
			c-0.1,1.8,0,3.7,0,5.5c0-0.6,0-1.2,0-1.9c0.3-6,1.7-12,5.5-16c3.5-3.7,4.9-9.3,5.1-15.1c0.3-5.5-0.5-11.1-1.3-15.6
			c0.3,3.1,0.4,6,0.3,8.7c-0.1,2.1-0.3,4.1-0.7,6.1c0,0.1,0.1,0.1,0.1,0.2C23,27.3,23,27.8,22.9,28.4"/>
		<path class="st0" d="M19.1,27.1C19.1,27.1,19.1,27.1,19.1,27.1C19.1,27.1,19.1,27.1,19.1,27.1C19.1,27.1,19.1,27.1,19.1,27.1
			C19.1,27.1,19.1,27.1,19.1,27.1z"/>
	</g>
	<path d="M42,33.1c0.1-0.3,0.2-0.5,0.2-0.6h0c0.1,0.1,0.1,0.4,0.2,0.6l0.5,1.6c0.1,0.3,0.1,0.3-0.2,0.3h-1.2c-0.3,0-0.3,0-0.2-0.2
		L42,33.1z M43.7,37.1c0.1,0.2,0.1,0.4,0.1,0.5c0,0.1-0.1,0.2-0.3,0.2l-0.3,0c-0.1,0-0.1,0.2,0,0.3c0.3,0,0.7,0,1.1,0
		c0.4,0,0.8,0,1.2,0c0.1,0,0.1-0.2,0-0.3l-0.3,0c-0.4-0.1-0.6-0.2-0.8-1.1l-1.4-4c-0.1-0.4-0.3-0.9-0.4-1.3c0-0.1-0.1-0.1-0.1-0.1
		c-0.1,0.1-0.3,0.3-0.5,0.4c0,0.2,0,0.4-0.2,0.7l-1,2.7c-0.4,1.1-0.7,1.8-0.9,2.2c-0.1,0.4-0.4,0.5-0.6,0.5l-0.3,0
		c-0.1,0,0,0.2,0,0.3c0.3,0,0.6,0,0.9,0c0.5,0,0.8,0,1,0c0.1,0,0.1-0.2,0-0.3l-0.3,0c-0.2,0-0.3-0.1-0.3-0.2c0-0.1,0.1-0.4,0.2-0.8
		l0.3-1.1c0.1-0.2,0.1-0.2,0.4-0.2h1.5c0.3,0,0.3,0,0.4,0.2L43.7,37.1z"/>
	<path d="M59.3,36.5c0,1.1,0,1.2,0.6,1.3l0.3,0c0.1,0,0,0.2,0,0.3c-0.6,0-0.9,0-1.3,0c-0.4,0-0.7,0-1.4,0c-0.1,0-0.1-0.2,0-0.3
		l0.4,0c0.6-0.1,0.6-0.2,0.6-1.3V32c0-0.3,0-0.3-0.3-0.3h-0.5c-0.4,0-1,0-1.2,0.3c-0.2,0.2-0.3,0.4-0.4,0.7c-0.1,0.1-0.2,0-0.3-0.1
		c0.2-0.5,0.3-1.1,0.4-1.5c0,0,0.2,0,0.2,0c0.1,0.3,0.4,0.3,0.8,0.3h4c0.5,0,0.6,0,0.8-0.3c0,0,0.2,0,0.2,0
		c-0.1,0.4-0.2,1.2-0.1,1.5c0,0.1-0.2,0.1-0.3,0c0-0.3-0.1-0.6-0.2-0.7c-0.2-0.2-0.6-0.3-1.1-0.3h-0.7c-0.3,0-0.3,0-0.3,0.3V36.5z"
		/>
	<path d="M75.6,34.8c-0.5,0-0.5,0-0.5,0.3v1.4c0,1.1,0,1.2,0.6,1.3l0.3,0c0.1,0,0,0.2,0,0.3c-0.5,0-0.9,0-1.3,0c-0.4,0-0.8,0-1.1,0
		c-0.1,0-0.1-0.2,0-0.3l0.2,0c0.6-0.1,0.6-0.2,0.6-1.3v-3.6c0-1.1-0.1-1.2-0.6-1.3l-0.3,0c-0.1,0,0-0.2,0-0.3c0.5,0,0.8,0,1.2,0
		c0.4,0,0.7,0,1.1,0c0.1,0,0.1,0.2,0,0.3l-0.2,0c-0.6,0.1-0.6,0.2-0.6,1.3v1.2c0,0.3,0,0.3,0.5,0.3h2.8c0.5,0,0.5,0,0.5-0.3v-1.2
		c0-1.1,0-1.2-0.6-1.3l-0.2,0c-0.1,0,0-0.2,0-0.3c0.5,0,0.8,0,1.2,0c0.4,0,0.7,0,1.2,0c0.1,0,0.1,0.2,0,0.3l-0.2,0
		c-0.6,0.1-0.6,0.2-0.6,1.3v3.6c0,1.1,0,1.2,0.6,1.3l0.2,0c0.1,0,0,0.2,0,0.3c-0.5,0-0.8,0-1.2,0c-0.4,0-0.8,0-1.2,0
		c-0.1,0-0.1-0.2,0-0.3l0.2,0c0.6-0.1,0.6-0.2,0.6-1.3v-1.4c0-0.3,0-0.3-0.5-0.3H75.6z"/>
	<path d="M93.1,32.9c0-1,0-1.2-0.6-1.3l-0.2,0c-0.1,0,0-0.2,0-0.3c0.4,0,0.8,0,1.2,0h1.9c0.6,0,1.2,0,1.3,0c0.1,0.2,0.1,0.9,0.2,1.3
		c0,0.1-0.2,0.1-0.2,0c-0.1-0.5-0.2-0.8-0.8-1c-0.2,0-0.5-0.1-1-0.1h-0.7c-0.3,0-0.3,0-0.3,0.4v2c0,0.3,0,0.3,0.3,0.3h0.6
		c0.4,0,0.7,0,0.8-0.1c0.1,0,0.2-0.1,0.2-0.4l0.1-0.4c0-0.1,0.2-0.1,0.3,0c0,0.2,0,0.6,0,1c0,0.4,0,0.7,0,1c0,0.1-0.2,0.1-0.3,0
		l-0.1-0.4c0-0.2-0.1-0.3-0.3-0.4c-0.1,0-0.4,0-0.8,0h-0.6c-0.3,0-0.3,0-0.3,0.3v1.4c0,0.5,0,0.9,0.2,1c0.1,0.1,0.3,0.2,1.2,0.2
		c0.8,0,1,0,1.3-0.1c0.2-0.1,0.4-0.5,0.7-1c0.1,0,0.2,0,0.2,0.1c-0.1,0.4-0.3,1.1-0.4,1.4c-0.9,0-1.8,0-2.6,0h-0.9
		c-0.4,0-0.8,0-1.3,0c-0.1,0-0.1-0.2,0-0.3l0.3,0c0.6-0.1,0.6-0.2,0.6-1.3V32.9z"/>
	<path d="M115.1,36.3c0,0.3,0,1.5,0,1.8c0,0.1-0.1,0.1-0.2,0.1c-0.1-0.2-0.4-0.5-1.3-1.5l-2.3-2.6c-0.3-0.3-0.9-1.1-1.1-1.4h0
		c0,0.1-0.1,0.4-0.1,0.7v2.2c0,0.5,0,1.8,0.2,2.1c0.1,0.1,0.3,0.2,0.5,0.2l0.3,0c0.1,0.1,0,0.2,0,0.3c-0.4,0-0.8,0-1.2,0
		c-0.4,0-0.7,0-1,0c-0.1-0.1-0.1-0.2,0-0.3l0.3,0c0.2,0,0.4-0.1,0.4-0.2c0.1-0.4,0.1-1.6,0.1-2.1v-2.9c0-0.3,0-0.5-0.2-0.7
		c-0.1-0.1-0.4-0.2-0.6-0.2l-0.2,0c-0.1-0.1-0.1-0.2,0-0.3c0.4,0,0.9,0,1.1,0c0.2,0,0.3,0,0.5,0c0.2,0.5,1.4,1.8,1.7,2.2l1,1.1
		c0.7,0.8,1.2,1.3,1.6,1.8h0c0-0.1,0-0.2,0-0.4v-2.1c0-0.5,0-1.8-0.2-2.1c-0.1-0.1-0.2-0.2-0.6-0.2l-0.2,0c-0.1-0.1-0.1-0.2,0-0.3
		c0.5,0,0.8,0,1.2,0c0.4,0,0.7,0,1,0c0.1,0.1,0.1,0.2,0,0.3l-0.1,0c-0.3,0-0.5,0.1-0.6,0.2c-0.2,0.4-0.1,1.6-0.1,2.1V36.3z"/>
	<path d="M129.8,33.1c0.1-0.3,0.2-0.5,0.2-0.6h0c0.1,0.1,0.1,0.4,0.2,0.6l0.5,1.6c0.1,0.3,0.1,0.3-0.2,0.3h-1.2
		c-0.3,0-0.3,0-0.2-0.2L129.8,33.1z M131.6,37.1c0.1,0.2,0.1,0.4,0.1,0.5c0,0.1-0.1,0.2-0.3,0.2l-0.3,0c-0.1,0-0.1,0.2,0,0.3
		c0.3,0,0.7,0,1.1,0c0.4,0,0.8,0,1.2,0c0,0,0.1-0.2,0-0.3l-0.3,0c-0.4-0.1-0.6-0.2-0.8-1.1l-1.4-4c-0.1-0.4-0.3-0.9-0.4-1.3
		c0-0.1-0.1-0.1-0.1-0.1c-0.1,0.1-0.3,0.3-0.5,0.4c0,0.2,0,0.4-0.2,0.7l-1,2.7c-0.4,1.1-0.7,1.8-0.9,2.2c-0.1,0.4-0.4,0.5-0.6,0.5
		l-0.3,0c-0.1,0,0,0.2,0,0.3c0.3,0,0.6,0,1,0c0.5,0,0.8,0,1,0c0.1,0,0.1-0.2,0-0.3l-0.3,0c-0.2,0-0.3-0.1-0.3-0.2
		c0-0.1,0.1-0.4,0.2-0.8l0.3-1.1c0.1-0.2,0.1-0.2,0.4-0.2h1.5c0.3,0,0.3,0,0.4,0.2L131.6,37.1z"/>
	<g>
		<path d="M24.5,56L24.5,56c0.1-0.7,0.1-1.3,0.1-1.9c0.2-6.9-2.2-12.2-7-15.5c-4.6-3.2-6.8-8.2-6.7-14.9c0-0.6,0-1.2,0.1-1.9
			c0.5-5.7,2.5-11.4,4.2-15.5c-0.9,3.1-1.6,6.1-1.8,8.9c-0.1,0.7-0.1,1.4-0.1,2.1c-0.2,6.9,1.9,12.7,6.2,17.2
			c4.1,4.3,6.1,9.9,5.9,16.6c0,0.7-0.1,1.4-0.1,2.1c-0.3,4.1-1.4,8-2.6,11.5C23.6,61.9,24.3,59,24.5,56z"/>
	</g>
	<path d="M21.1,25.6c-0.4,0-0.8,0.1-1.1,0.3c0,0.8,0.2,1.3,0.7,1.4c0.5,0.1,0.7,0.6,0.7,1.5c0,0.1,0,0.2,0,0.3l-0.1,0.5
		c0-0.1,0-0.2,0-0.3c0-0.9-0.2-1.3-0.8-1.2c-0.5,0.1-0.8-0.3-0.8-1.2c0-0.1,0-0.2,0-0.3l0.1-0.6c-0.5,0.4-0.8,1-0.8,1.7
		c0,1.2,0.9,2.1,2.1,2.1c1.1,0,2.1-0.9,2.1-2.1C23.2,26.5,22.2,25.6,21.1,25.6z"/>
</g>
</svg>
