<?xml version="1.0" encoding="utf-8"?>
<!-- Generator: Adobe Illustrator 22.0.1, SVG Export Plug-In . SVG Version: 6.00 Build 0)  -->
<svg version="1.1" id="Layer_1" xmlns="http://www.w3.org/2000/svg" xmlns:xlink="http://www.w3.org/1999/xlink" x="0px" y="0px"
	 viewBox="0 0 476 190" style="enable-background:new 0 0 476 190;" xml:space="preserve">
<style type="text/css">
	.Arched_x0020_Green{fill:url(#SVGID_1_);stroke:#FFFFFF;stroke-width:0.25;stroke-miterlimit:1;}
	.st0{fill:#1B75BC;}
	.st1{fill:none;stroke:#1B75BC;stroke-width:1.9209;}
	.st2{fill:none;}
	.st3{fill:#FFFFFF;}
	.st4{fill:none;stroke:#1B75BC;stroke-width:1.9113;}
	.st5{clip-path:url(#SVGID_3_);fill:#1B75BC;}
	.st6{clip-path:url(#SVGID_3_);fill:none;}
	.st7{clip-path:url(#SVGID_3_);fill:#FFFFFF;}
	.st8{clip-path:url(#SVGID_5_);fill:#1B75BC;}
	.st9{clip-path:url(#SVGID_5_);}
	.st10{fill:none;stroke:#000000;stroke-width:1.01;stroke-linecap:round;stroke-linejoin:round;stroke-miterlimit:10;}
	.st11{fill:#FFFFFF;stroke:#FFFFFF;stroke-width:1.01;}
	.st12{fill:#1B72BA;}
	.st13{clip-path:url(#SVGID_7_);fill:#1B75BC;}
	.st14{clip-path:url(#SVGID_7_);}
	.st15{fill:#FFFFFF;stroke:#1C74BB;stroke-width:2.02;stroke-miterlimit:10;}
	.st16{fill:#FFF200;stroke:#FFFFFF;stroke-width:2.02;stroke-miterlimit:10;}
	.st17{clip-path:url(#SVGID_9_);fill:#1B75BC;}
	.st18{clip-path:url(#SVGID_9_);}
	.st19{fill:#1D75BC;}
	.st20{clip-path:url(#SVGID_11_);fill:#1B75BC;}
	.st21{clip-path:url(#SVGID_11_);}
	.st22{fill:none;stroke:#FFFFFF;stroke-width:3.03;stroke-linecap:round;stroke-linejoin:round;}
	.st23{fill:none;stroke:#FFFFFF;stroke-width:2.02;stroke-linecap:round;stroke-linejoin:round;}
</style>
<linearGradient id="SVGID_1_" gradientUnits="userSpaceOnUse" x1="-149" y1="403" x2="-148.2929" y2="402.2929">
	<stop  offset="0" style="stop-color:#20AC4B"/>
	<stop  offset="0.9831" style="stop-color:#19361A"/>
</linearGradient>
<g>
	<path class="st0" d="M48,121.9H22.1c1,4.8,4.4,7.3,9.1,7.3c3.5,0,6.1-1.1,9-3.8l6,5.3c-3.5,4.3-8.5,6.9-15.2,6.9
		c-11.2,0-19.4-7.8-19.4-19.2v-0.1C11.6,107.7,19.2,99,30,99c12.4,0,18.1,9.6,18.1,20.2v0.1C48.2,120.3,48.1,121,48,121.9z
		 M30,107.4c-4.4,0-7.2,3.1-8.1,7.9h15.9C37.3,110.6,34.5,107.4,30,107.4z"/>
	<path class="st0" d="M76.1,136.9v-20.8c0-5-2.4-7.6-6.4-7.6c-4,0-6.6,2.6-6.6,7.6v20.8H52.5V99.7h10.6v5.3c2.4-3.1,5.6-6,10.9-6
		c8,0,12.6,5.3,12.6,13.8v24.1H76.1z"/>
	<path class="st0" d="M126.9,121.9H101c1,4.8,4.4,7.3,9.1,7.3c3.5,0,6.1-1.1,9-3.8l6,5.3c-3.5,4.3-8.5,6.9-15.2,6.9
		c-11.2,0-19.4-7.8-19.4-19.2v-0.1c0-10.6,7.6-19.4,18.4-19.4c12.4,0,18.1,9.6,18.1,20.2v0.1C127,120.3,126.9,121,126.9,121.9z
		 M108.9,107.4c-4.4,0-7.2,3.1-8.1,7.9h15.9C116.1,110.6,113.3,107.4,108.9,107.4z"/>
	<path class="st0" d="M153.2,110c-7,0-11.3,4.2-11.3,13.1v13.7h-10.6V99.7h10.6v7.5c2.2-5.1,5.6-8.5,11.9-8.2v11H153.2z"/>
	<path class="st0" d="M172.9,148.1c-6,0-11.7-1.4-16.5-3.9l3.6-7.9c3.8,2.2,7.6,3.4,12.6,3.4c7.2,0,10.6-3.5,10.6-10.1v-1.8
		c-3.1,3.7-6.5,6-12.1,6c-8.7,0-16.5-6.3-16.5-17.4v-0.1c0-11.1,8-17.4,16.5-17.4c5.8,0,9.2,2.4,12,5.6v-4.9h10.6v28.8
		C193.6,142.5,186.7,148.1,172.9,148.1z M183.2,116.3c0-5.1-4-8.6-9.1-8.6c-5.1,0-9,3.5-9,8.6v0.1c0,5.1,3.9,8.6,9,8.6
		c5.1,0,9.1-3.5,9.1-8.6V116.3z"/>
	<path class="st0" d="M220.7,137.8c-2.8,7.6-5.9,10.4-12.2,10.4c-3.8,0-6.7-1-9.4-2.6l3.5-7.6c1.4,0.8,3.1,1.5,4.5,1.5
		c1.8,0,2.8-0.6,3.7-2.4l-14.6-37.3h11.2l8.5,25.3l8.1-25.3h11L220.7,137.8z"/>
	<path d="M269,136.9V131c-2.4,3.4-6.8,6.7-13.5,6.7c-6.6,0-13.7-3.7-13.7-11.1v-0.1c0-7.4,6.3-11.5,15.5-11.5
		c4.9,0,8.3,0.6,11.7,1.5v-1.5c0-7.2-4.4-10.8-11.7-10.8c-4.3,0-7.8,1.2-11.1,2.8l-1.2-3c3.9-1.8,7.7-3.1,12.6-3.1
		c9.1,0,14.8,4.7,14.8,13.9v22.1H269z M269.1,119.6c-3-0.8-6.9-1.6-12-1.6c-7.5,0-11.7,3.3-11.7,8.3v0.1c0,5.1,4.9,8.1,10.3,8.1
		c7.2,0,13.4-4.4,13.4-10.9V119.6z"/>
	<path d="M281.6,136.9V86.2h3.4v50.7H281.6z"/>
	<path d="M295.4,136.9V86.2h3.4v50.7H295.4z"/>
	<path d="M308.8,92.2v-4.7h4.2v4.7H308.8z M309.2,136.9v-35.4h3.4v35.4H309.2z"/>
	<path d="M346.8,136.9V131c-2.4,3.4-6.8,6.7-13.5,6.7c-6.6,0-13.7-3.7-13.7-11.1v-0.1c0-7.4,6.3-11.5,15.5-11.5
		c4.9,0,8.3,0.6,11.7,1.5v-1.5c0-7.2-4.4-10.8-11.7-10.8c-4.3,0-7.8,1.2-11.1,2.8l-1.2-3c3.9-1.8,7.7-3.1,12.6-3.1
		c9.1,0,14.8,4.7,14.8,13.9v22.1H346.8z M346.9,119.6c-3-0.8-6.9-1.6-12-1.6c-7.5,0-11.7,3.3-11.7,8.3v0.1c0,5.1,4.9,8.1,10.3,8.1
		c7.2,0,13.4-4.4,13.4-10.9V119.6z"/>
	<path d="M385.8,136.9v-21c0-7.3-4.1-12.1-11.2-12.1c-6.9,0-12.3,5.3-12.3,12.6v20.5h-3.4v-35.4h3.4v6.6c2.4-4.2,6.3-7.4,12.8-7.4
		c9,0,14.2,6.1,14.2,14.6v21.7H385.8z"/>
	<path d="M413.6,137.7c-10.2,0-18-8.5-18-18.4v-0.1c0-9.9,7.9-18.5,18-18.5c6.7,0,10.8,3.1,14.2,6.5l-2.4,2.5
		c-3.1-3.1-6.5-5.8-11.8-5.8c-8.1,0-14.3,6.7-14.3,15.2v0.1c0,8.5,6.5,15.3,14.6,15.3c5,0,8.9-2.6,11.9-5.9l2.4,2.1
		C424.4,134.8,420.1,137.7,413.6,137.7z"/>
	<path d="M448.2,134.5c5.5,0,9.2-2.4,12.1-5.6l2.4,2.1c-3.6,3.9-7.8,6.7-14.6,6.7c-9.3,0-17.4-7.4-17.4-18.5v-0.1
		c0-10.3,7.2-18.5,16.8-18.5c9.9,0,16.2,8.1,16.2,18.5v0.1c0,0.5,0,0.7-0.1,1.2h-29.4C434.9,129.4,441.2,134.5,448.2,134.5z
		 M460,117.5c-0.5-7.1-4.6-13.7-12.7-13.7c-7,0-12.4,5.9-13.1,13.7H460z"/>
</g>
<g>
	<path class="st1" d="M172.6,77.7c-16.6,0-30.1-13.5-30.1-30.1c0-16.6,13.5-30.1,30.1-30.1c16.6,0,30.1,13.5,30.1,30.1
		C202.7,64.1,189.2,77.7,172.6,77.7L172.6,77.7z"/>
	<path class="st0" d="M200.7,47.5c0,15.5-12.6,28.1-28.1,28.1c-15.5,0-28.1-12.6-28.1-28.1c0-15.5,12.6-28.1,28.1-28.1
		C188.1,19.4,200.7,32,200.7,47.5z"/>
	<path class="st2" d="M200.7,47.5c0,15.5-12.6,28.1-28.1,28.1c-15.5,0-28.1-12.6-28.1-28.1c0-15.5,12.6-28.1,28.1-28.1
		C188.1,19.4,200.7,32,200.7,47.5z"/>
	<g>
		<g>
			<path class="st3" d="M172.6,18.8c-5.2,0-9.4,12.7-9.4,28.4c0,15.7,4.2,28.4,9.4,28.4c5.2,0,9.4-12.7,9.4-28.4
				C182,31.6,177.8,18.8,172.6,18.8z M172.6,75.3c-4.7,0-8.4-12.6-8.4-28.1c0-15.5,3.8-28.1,8.4-28.1c4.6,0,8.4,12.6,8.4,28.1
				C181,62.8,177.2,75.3,172.6,75.3z"/>
			<path class="st3" d="M144,47.3c0,5.1,12.8,9.3,28.6,9.3c15.8,0,28.6-4.2,28.6-9.3c0-5.1-12.8-9.3-28.6-9.3
				C156.8,38,144,42.1,144,47.3z M200.8,47.3c0,4.6-12.6,8.4-28.2,8.4c-15.6,0-28.2-3.7-28.2-8.4c0-4.6,12.6-8.4,28.2-8.4
				C188.2,38.9,200.8,42.7,200.8,47.3z"/>
			<path class="st3" d="M152.3,27.2c-3.7,3.6,2.4,15.6,13.6,26.7C177.1,65,189.2,71,192.8,67.4c3.7-3.6-2.4-15.6-13.6-26.7
				C168,29.6,156,23.5,152.3,27.2z M192.5,67.1c-3.3,3.3-14.9-3-25.9-13.9c-11-11-17.3-22.5-14-25.8c3.3-3.3,14.9,3,25.9,13.9
				C189.6,52.3,195.8,63.9,192.5,67.1z"/>
			<path class="st3" d="M152.3,67.4C156,71,168,65,179.2,53.9c11.2-11.1,17.3-23.1,13.6-26.7c-3.7-3.6-15.7,2.4-26.9,13.5
				C154.8,51.8,148.7,63.7,152.3,67.4z M192.5,27.4c3.3,3.3-3,14.8-14,25.8c-11,11-22.6,17.2-25.9,13.9c-3.3-3.3,3-14.8,14-25.8
				C177.7,30.4,189.3,24.2,192.5,27.4z"/>
			<path class="st3" d="M168.4,47.4c0,2.2,1.8,4,4,4c2.2,0,4-1.8,4-4c0-2.2-1.8-4-4-4C170.2,43.4,168.4,45.2,168.4,47.4z"/>
		</g>
		<path class="st0" d="M172.7,50.4c-1.9,0-3.4-1.5-3.4-3.4c0-0.9,0.3-1.6,0.9-2.2c-0.7,0.6-1.2,1.5-1.2,2.5c0,1.9,1.5,3.4,3.4,3.4
			c1,0,1.9-0.5,2.5-1.2C174.3,50.1,173.6,50.4,172.7,50.4z"/>
		<path class="st3" d="M182.7,27.4c0,1.2,1,2.2,2.2,2.2c1.2,0,2.2-1,2.2-2.2c0-1.2-1-2.2-2.2-2.2C183.7,25.3,182.7,26.2,182.7,27.4z
			"/>
		<path class="st0" d="M185.1,29.1c-1,0-1.9-0.8-1.9-1.8c0-0.5,0.2-0.9,0.5-1.2c-0.4,0.3-0.6,0.8-0.6,1.4c0,1,0.8,1.8,1.9,1.8
			c0.6,0,1-0.2,1.4-0.6C186,28.9,185.5,29.1,185.1,29.1z"/>
		<g>
			<path class="st3" d="M150.1,34.1c0,1.2,1,2.2,2.2,2.2c1.2,0,2.2-1,2.2-2.2c0-1.2-1-2.2-2.2-2.2C151.1,31.9,150.1,32.9,150.1,34.1
				z"/>
			<path class="st0" d="M152.5,35.8c-1,0-1.9-0.8-1.9-1.8c0-0.5,0.2-0.9,0.5-1.2c-0.4,0.3-0.6,0.8-0.6,1.4c0,1,0.8,1.8,1.9,1.8
				c0.6,0,1-0.2,1.4-0.6C153.4,35.6,153,35.8,152.5,35.8z"/>
		</g>
		<g>
			<path class="st3" d="M165,69.5c0,1.2,1,2.2,2.2,2.2c1.2,0,2.2-1,2.2-2.2c0-1.2-1-2.2-2.2-2.2C165.9,67.3,165,68.3,165,69.5z"/>
			<path class="st0" d="M167.3,71.1c-1,0-1.9-0.8-1.9-1.8c0-0.5,0.2-0.9,0.5-1.2c-0.4,0.3-0.6,0.8-0.6,1.4c0,1,0.8,1.8,1.9,1.8
				c0.6,0,1-0.2,1.4-0.6C168.2,70.9,167.8,71.1,167.3,71.1z"/>
		</g>
	</g>
</g>
<g>
	<path class="st4" d="M302.2,77.6c-16.5,0-30-13.4-30-30c0-16.5,13.4-30,30-30c16.5,0,30,13.4,30,30
		C332.2,64.2,318.7,77.6,302.2,77.6L302.2,77.6z"/>
	<g>
		<defs>
			<path id="SVGID_2_" d="M330.1,47.7c0,15.5-12.5,28-28,28c-15.5,0-28-12.5-28-28c0-15.5,12.5-28,28-28
				C317.6,19.7,330.1,32.3,330.1,47.7z"/>
		</defs>
		<clipPath id="SVGID_3_">
			<use xlink:href="#SVGID_2_"  style="overflow:visible;"/>
		</clipPath>
		<path class="st5" d="M330.2,47.7c0,15.5-12.5,28-28,28c-15.5,0-28-12.5-28-28c0-15.5,12.5-28,28-28
			C317.7,19.7,330.2,32.2,330.2,47.7z"/>
		<path class="st6" d="M330.2,47.7c0,15.5-12.5,28-28,28c-15.5,0-28-12.5-28-28c0-15.5,12.5-28,28-28
			C317.7,19.7,330.2,32.2,330.2,47.7z"/>
		<path class="st7" d="M284.1,102.1h7.3V70.7h-7.3V102.1z M293.3,43.7c-1.1-1.1-1.9-2.9-1.9-5c0-2,0.7-3.8,1.9-5
			c-10.2,0.4-18,2.4-18,5C275.3,41.2,283.1,43.3,293.3,43.7z M293.9,34.4c-1,1-1.6,2.5-1.6,4.3c0,1.4,0.4,2.7,1.1,3.7l1.2-1.7
			c-0.3-0.6-0.4-1.4-0.4-2.1c0-0.8,0.2-1.6,0.5-2.3L293.9,34.4z M299.5,35.8c-0.6-1.2-1.6-2.1-2.7-2.3l0.6,1.6
			C298.1,35.2,298.8,35.5,299.5,35.8z M296.1,44C296.1,44,296.2,44,296.1,44c1.5,0,2.7-1,3.4-2.5c-0.7,0.3-1.5,0.6-2.2,0.8L296.1,44
			z M290.6,46.2v-1.4c-1.7-0.1-3.5-0.3-5.2-0.5v9.4L290.6,46.2z M285.3,65.6v3.9h5.2v-9.1C289,62.1,287.3,63.8,285.3,65.6z
			 M323.4,40.4c-6.1-2.8-10-3.9-16.7-4.8l-2.5,3.7l-2.9-0.5c0-0.1,0-0.1,0-0.1c0-1.2-1.8-2.2-4.6-3L284.3,0.7
			c-0.6,5.2-0.6,8.2,0,13.4c0.8,7.3,1.9,11.4,4.9,18.1l4.8,0.3l1.5,3.9c-0.3,0.7-0.6,1.4-0.6,2.3c0,0.8,0.2,1.5,0.5,2.2l-23.5,33.2
			c5-2.7,7.7-4.6,12-8.4c6-5.3,9-8.8,13.1-15.7l-2.8-4.5l2.6-3.9c1.7-0.4,3-1,3.8-1.6l33.5,6.8C330.2,43.9,327.8,42.4,323.4,40.4z"
			/>
		<path class="st7" d="M318.3,52c-0.4-0.9-1.1-1.5-1.9-1.7l0.4,1.1C317.3,51.6,317.8,51.8,318.3,52z M314.4,51
			c-0.7,0.7-1.1,1.8-1.1,3c0,1,0.3,1.9,0.8,2.6l0.8-1.2c-0.2-0.5-0.3-1-0.3-1.5c0-0.6,0.1-1.1,0.3-1.6L314.4,51z M310.5,35.4
			l-2.9-8.2c-0.3,3-0.4,5-0.2,7.6C308.5,34.9,309.5,35.2,310.5,35.4z M313.9,57.5c-0.8-0.8-1.3-2.1-1.3-3.5c0-1.4,0.5-2.7,1.3-3.5
			c-7.2,0.3-12.7,1.7-12.7,3.5C301.2,55.8,306.7,57.3,313.9,57.5z M315.9,57.8C316,57.8,316,57.8,315.9,57.8c1,0,1.9-0.7,2.4-1.8
			c-0.5,0.2-1,0.4-1.6,0.6L315.9,57.8z M335.3,55.2c-4.3-2-7-2.8-11.8-3.4l-1.8,2.6l-2-0.4c0,0,0-0.1,0-0.1c0-0.8-1.3-1.6-3.3-2.1
			l-3.1-8.8l-4.8-1c0.6,2.4,1.3,4.5,2.6,7.3l3.4,0.2l1.1,2.8c-0.2,0.5-0.4,1-0.4,1.6c0,0.6,0.1,1.1,0.4,1.5L298.8,79
			c3.5-1.9,5.4-3.3,8.5-5.9c4.2-3.7,6.4-6.3,9.3-11.1l-2-3.2l1.8-2.7c1.2-0.3,2.1-0.7,2.7-1.2l23.7,4.8
			C340,57.7,338.4,56.7,335.3,55.2z M308.3,73.1v2.8h3.7v-6.4C310.9,70.6,309.7,71.8,308.3,73.1z M312,59.3v-1
			c-1.2-0.1-2.5-0.2-3.7-0.4v6.6L312,59.3z M307.5,96.7h5.1v-20h-5.1V96.7z"/>
	</g>
</g>
<g>
	<path class="st1" d="M41.8,77.6c-16.6,0-30.1-13.5-30.1-30.1c0-16.6,13.5-30.1,30.1-30.1c16.6,0,30.1,13.5,30.1,30.1
		C71.9,64.1,58.4,77.6,41.8,77.6L41.8,77.6z"/>
	<path class="st0" d="M69.9,47.5c0,15.5-12.6,28.1-28.1,28.1c-15.5,0-28.1-12.6-28.1-28.1c0-15.5,12.6-28.1,28.1-28.1
		C57.4,19.4,69.9,32,69.9,47.5z"/>
	<path class="st2" d="M69.9,47.5c0,15.5-12.6,28.1-28.1,28.1c-15.5,0-28.1-12.6-28.1-28.1c0-15.5,12.6-28.1,28.1-28.1
		C57.4,19.4,69.9,32,69.9,47.5z"/>
	<g>
		<path class="st3" d="M26.5,40.1L26.5,40.1c0.1,0,0.2,0,0.3,0c0,0,0.1,0,0.1,0l0,0c0,0,0.1,0,0.1,0l0,0c0.1,0,0.2,0,0.2,0.1l0.1,0
			c0.1,0,0.1,0,0.2,0.1l0.1,0c0.1,0,0.2,0.1,0.3,0.1l0,0l0,0l0.1,0l0,0c0,0,0.1,0,0.1,0.1l0,0l0.1,0l0,0l0,0c0,0,0.1,0,0.1,0
			c0,0,0,0,0.1,0l0,0l0,0l0.1,0c0,0,0.1,0,0.1,0c0,0,0,0,0.1,0l0,0l0,0l0.1,0l0,0c0,0,0,0,0,0l0.4-0.1l0.3-0.1c0.1,0,0.1,0,0.2,0
			c0,0,0.1,0,0.1,0l0,0c0.1,0,0.1,0,0.1,0c0,0,0,0,0.1,0c0,0,0.1,0,0.1,0c0.1,0,0.1,0,0.2,0c0,0,0.1,0,0.1,0c0.1,0,0.1,0,0.2,0
			c0.1,0,0.1,0,0.2,0c0,0,0,0,0.1,0c0.1,0,0.2,0,0.3,0c0.1,0,0.1,0,0.2,0l0.1,0c0,0,0.1,0,0.2,0.1l0,0l0,0l0,0
			c0.1,0,0.1,0.1,0.2,0.1l0.1,0l0,0c0,0,0.1,0,0.1,0.1l0,0l0,0l0.1,0c0,0,0.1,0,0.1,0l0.1,0l0.1,0.1l0,0l0.1,0l0.1,0l0,0l0,0l0,0
			l0.1,0l0,0c0.1,0,0.1,0.1,0.2,0.1c0.1,0.1,0.1,0.1,0.2,0.2l0.1,0l0.1,0c0,0,0.1,0.1,0.1,0.1l0,0l0,0c0,0,0,0,0.1,0.1l0,0l0,0
			c0,0,0.1,0,0.1,0.1l0,0l0,0l0.1,0.1l0,0l0,0c0,0,0,0,0.1,0.1l0,0l0,0c0,0.1,0.1,0.1,0.1,0.1l0,0l0.1,0.1l0,0l0,0
			c0,0.1,0.1,0.1,0.1,0.2c0,0,0.1,0.1,0.1,0.1c0.1,0.1,0.2,0.2,0.2,0.3l0,0.1c0.1,0.1,0.1,0.2,0.2,0.3l0,0l0,0
			c0.1,0.1,0.1,0.2,0.2,0.3c0,0,0,0.1,0,0.1l0,0l0,0c0.1,0.1,0.1,0.2,0.2,0.4c0,0,0,0,0,0l0,0c0.1,0.2,0.2,0.3,0.3,0.5l0,0l0,0
			c0.1,0.2,0.2,0.4,0.3,0.6l0,0l0,0c0.1,0.2,0.2,0.4,0.2,0.6l0,0.1c0,0.1,0.1,0.3,0.1,0.4l0,0.1l0,0.1c0,0.1,0,0.1,0,0.2l0,0.1
			l0,0.1l0,0l0,0l0,0.1l0,0l0,0.1l0,0.1l0,0.1l0,0.1l0,0.1l0,0.1l0,0c0,0,0,0.1,0,0.1l0,0l0,0l0,0.1l0,0l0,0.1l0,0.1l0,0.1l0,0.1
			l0,0.1l0,0.1c0,0.1,0,0.2,0,0.3l0,0.1l0,0l0,0.1l0,0.1l0,0l0,0l0,0.2c0,0.1,0,0.2,0,0.3c0,0,0,0,0,0.1v0c0,0,0,0,0,0l0,0.1V50
			c0,0.1,0,0.2,0,0.3v0l0,0l0,0c0,0.1,0,0.1,0,0.2c0,0.1,0,0.2,0,0.3l0,0l0,0c0,0.1,0,0.2,0,0.2c0,0.1,0,0.1,0,0.2l0,0l0,0
			c0,0.1,0,0.2-0.1,0.3c0,0,0,0.1,0,0.1l0,0l0,0.1c0,0,0,0.1,0,0.1c0,0.1,0,0.2-0.1,0.3l0,0.1l0,0.1l0,0c0,0,0,0.1,0,0.1
			c0,0.1,0,0.1-0.1,0.2l0,0l0,0.1l0,0c0,0.1-0.1,0.2-0.1,0.3c0,0,0,0.1-0.1,0.1l0,0l0,0c0,0.1-0.1,0.1-0.1,0.2
			c-0.1,0.2-0.2,0.3-0.3,0.4c-0.1,0.1-0.2,0.2-0.2,0.3l-0.1,0.1l0,0c-0.1,0.1-0.1,0.1-0.2,0.2l0,0L35,54.5c-0.1,0.1-0.2,0.2-0.3,0.2
			c-0.1,0.1-0.2,0.1-0.3,0.2c0,0-0.1,0-0.1,0.1c-0.1,0-0.1,0.1-0.2,0.1c0,0-0.1,0-0.1,0c-0.1,0-0.2,0.1-0.3,0.1l-0.3,0.1l-0.4,0.1
			c0,0,0,0,0,0.1c0,0.1,0,0.1-0.1,0.1l0,0l0,0.1c0,0.1-0.1,0.1-0.1,0.2l0,0l0,0c-0.1,0.2-0.2,0.3-0.3,0.5c-0.1,0.1-0.2,0.2-0.3,0.4
			c0,0,0,0-0.1,0.1l0,0C32,57,32,57.1,31.9,57.1l0,0l-0.1,0.1c-0.1,0.1-0.2,0.2-0.3,0.3c-0.1,0.1-0.2,0.2-0.4,0.2c0,0-0.1,0-0.1,0.1
			c-0.1,0-0.2,0.1-0.3,0.1c0,0,0,0,0,0c12.3,4.6,37.6-0.9,37.1-11.4C67.5,36.6,62,28.4,53,26C43.8,23.2,31.8,27.1,26.5,40.1
			C26.5,40.1,26.5,40.1,26.5,40.1L26.5,40.1z M68.3,44.7c0.1,0.6,0.1,1.2,0.1,1.8c0.4,7.8-12.1,12.8-23.9,13.6
			c-5.9,0.4-11.1-0.3-14.8-1.9l-0.5,0.1l-1.9,0.5h0L27,59l0,0c-0.2,0-0.3,0.1-0.5,0.1c-0.5,0-0.9,0-1.4-0.2
			c-2.2-0.6-4.2-2.8-5.4-5.7c-3.4,4.6,0.1,8.4,2.2,10.1c8.8,6.4,16,1.8,23.9,0.6C64.8,61,75.6,50.8,68.3,44.7z"/>
		<path class="st3" d="M36.1,49C36.1,49,36.1,48.9,36.1,49c0-0.1,0-0.1,0-0.1c0-0.1,0-0.2,0-0.3c0,0,0,0,0,0c0,0,0-0.1,0-0.1
			c0-0.1,0-0.1,0-0.2c0,0,0,0,0,0c0,0,0-0.1,0-0.1c0,0,0-0.1,0-0.1c0,0,0-0.1,0-0.1c0,0,0-0.1,0-0.1c0,0,0-0.1,0-0.1
			c0,0,0-0.1,0-0.1c0,0,0-0.1,0-0.1c0,0,0,0,0-0.1c0,0,0-0.1,0-0.1c0,0,0-0.1,0-0.1c0,0,0,0,0,0c0,0,0-0.1,0-0.1
			c0-0.1,0-0.1-0.1-0.2c0,0,0,0,0-0.1c0,0,0,0,0-0.1c0-0.1-0.1-0.2-0.1-0.4c0,0,0,0,0,0c0,0,0,0,0,0c-0.1-0.2-0.1-0.4-0.2-0.6
			c0,0,0,0,0,0c-0.1-0.2-0.2-0.4-0.3-0.6c0,0,0,0,0,0c0,0,0,0,0,0c-0.1-0.2-0.2-0.3-0.2-0.5c0,0,0,0,0,0c0,0,0,0,0,0
			c-0.1-0.1-0.1-0.2-0.2-0.3c0,0,0,0,0,0c0,0,0,0,0-0.1c-0.1-0.1-0.1-0.2-0.2-0.2c0,0,0,0,0-0.1c0,0,0,0,0,0
			c-0.1-0.1-0.1-0.1-0.2-0.2c0,0,0,0,0-0.1c0,0,0,0,0,0c-0.1-0.1-0.1-0.2-0.2-0.3c0,0,0,0,0,0c0,0,0,0-0.1-0.1c0,0-0.1-0.1-0.1-0.1
			c0,0,0,0,0,0c0,0,0-0.1-0.1-0.1c0,0-0.1-0.1-0.1-0.1c0,0,0,0,0,0c0,0-0.1,0-0.1-0.1c0,0-0.1-0.1-0.1-0.1c0,0,0,0,0,0
			c0,0-0.1-0.1-0.1-0.1c0,0-0.1,0-0.1-0.1c0,0,0,0,0,0c0,0-0.1-0.1-0.1-0.1c0,0,0,0,0,0c0,0,0,0,0,0c-0.1-0.1-0.1-0.1-0.2-0.1
			c0,0,0,0,0,0l0,0c-0.1,0-0.1-0.1-0.2-0.1c0,0,0,0,0,0c0,0,0,0-0.1,0c0,0-0.1,0-0.1-0.1c0,0,0,0,0,0c0,0,0,0-0.1,0c0,0,0,0-0.1,0
			c0,0-0.1,0-0.1,0c0,0,0,0-0.1,0c0,0,0,0,0,0c0,0-0.1,0-0.1-0.1c0,0,0,0,0,0c0,0,0,0,0,0c-0.1,0-0.1,0-0.2-0.1c0,0,0,0,0,0
			c0,0,0,0,0,0c0,0-0.1,0-0.1,0c0,0,0,0,0,0c-0.1,0-0.1,0-0.2,0c-0.1,0-0.1,0-0.2,0c0,0,0,0,0,0c0,0,0,0,0,0c-0.1,0-0.1,0-0.2,0
			c-0.1,0-0.1,0-0.2,0c0,0,0,0,0,0c0,0,0,0,0,0c-0.1,0-0.2,0-0.2,0c0,0,0,0-0.1,0c0,0-0.1,0-0.1,0c0,0-0.1,0-0.1,0
			c-0.1,0-0.1,0-0.2,0l-0.3,0.1h0l0,0c0,0,0.1,0.1,0.1,0.1c0,0,0,0,0,0c0,0,0.1,0.1,0.1,0.1l0,0c0,0,0.1,0.1,0.1,0.1l0,0
			c0,0,0.1,0.1,0.1,0.1l0,0l0,0l0.1,0.1l0,0l0,0l0.1,0.1l0,0l0,0l0.1,0.1l0,0.1l0,0c0,0.1,0.1,0.1,0.1,0.2l0,0l0,0l0,0.1
			c0.1,0.1,0.2,0.2,0.3,0.4l0,0.1c0.1,0.1,0.2,0.2,0.2,0.3l0,0l0,0l0,0l0,0c0.1,0.1,0.1,0.2,0.2,0.3l0,0.1l0,0l0,0
			c0.1,0.1,0.2,0.3,0.3,0.5l0,0l0,0c0.1,0.2,0.2,0.4,0.3,0.6c0.1,0.3,0.2,0.5,0.4,0.8l0,0l0,0c0.1,0.3,0.2,0.5,0.3,0.8l0,0.1
			c0.1,0.2,0.1,0.3,0.2,0.5l0,0l0,0c0,0,0,0,0,0.1c0,0.1,0.1,0.2,0.1,0.3l0,0l0,0.1l0,0l0,0c0,0.1,0,0.1,0,0.2l0,0l0,0.1l0,0.1
			l0,0.1l0,0.1l0,0l0,0.1l0,0l0,0.1l0,0.2l0,0l0,0.1l0,0.1l0,0.1l0,0.2l0,0.1c0,0.1,0,0.1,0,0.2l0,0l0,0.1l0,0.1c0,0.1,0,0.3,0,0.4
			l0,0.1l0,0l0,0c0,0.1,0,0.1,0,0.2l0,0.1c0,0.1,0,0.2,0,0.2c0,0.1,0,0.2,0,0.4v0l0,0l0,0l0,0.1c0,0.1,0,0.1,0,0.2
			c0,0.1,0,0.2,0,0.4l0,0l0,0l0,0.1c0,0.1,0,0.2,0,0.3c0,0.1,0,0.2,0,0.3l0,0.1c0,0.1,0,0.2,0,0.3c0,0.1,0,0.2,0,0.3c0,0,0,0,0,0.1
			c0,0.1,0,0.2-0.1,0.3l0,0.1l0,0.1l0,0l0,0.1l0,0.1c0,0.1-0.1,0.2-0.1,0.3l0,0.1l0,0.1l0,0.1c0,0,0,0.1,0,0.1c0,0,0,0,0,0.1
			l0.3-0.1c0.1,0,0.2-0.1,0.3-0.1c0,0,0.1,0,0.1,0c0.1,0,0.1-0.1,0.2-0.1c0,0,0.1,0,0.1,0c0.1-0.1,0.2-0.1,0.2-0.2c0,0,0,0,0,0
			c0.1-0.1,0.2-0.1,0.2-0.2c0,0,0,0,0.1-0.1c0.1-0.1,0.1-0.1,0.2-0.2c0,0,0,0,0.1-0.1c0.1-0.1,0.1-0.2,0.2-0.2c0,0,0,0,0,0
			c0.1-0.1,0.1-0.2,0.2-0.3c0,0,0,0,0,0c0-0.1,0.1-0.1,0.1-0.2c0,0,0-0.1,0.1-0.1c0,0,0,0,0,0c0-0.1,0.1-0.2,0.1-0.3c0,0,0,0,0,0
			c0,0,0,0,0-0.1c0-0.1,0-0.1,0.1-0.2c0,0,0-0.1,0-0.1c0,0,0-0.1,0-0.1c0,0,0,0,0-0.1c0-0.1,0-0.2,0.1-0.3c0,0,0,0,0,0
			c0,0,0-0.1,0-0.1c0,0,0-0.1,0-0.1c0-0.1,0-0.2,0-0.3l0,0c0,0,0,0,0,0c0-0.1,0-0.1,0-0.2c0-0.1,0-0.1,0-0.2c0,0,0,0,0,0
			c0,0,0,0,0,0c0-0.1,0-0.2,0-0.3c0-0.1,0-0.1,0-0.2c0,0,0,0,0,0c0,0,0,0,0,0c0-0.1,0-0.2,0-0.3c0-0.1,0-0.1,0-0.2c0,0,0,0,0-0.1
			c0,0,0,0,0,0c0-0.1,0-0.2,0-0.3c0-0.1,0-0.1,0-0.2c0,0,0-0.1,0-0.1C36.1,49.1,36.1,49,36.1,49z"/>
		<path class="st3" d="M33.2,50.4c0,0,0-0.1,0-0.1c0,0,0,0,0,0c0-0.1,0-0.2,0-0.4c0,0,0,0,0,0c0,0,0-0.1,0-0.1c0-0.1,0-0.2,0-0.2
			c0,0,0,0,0-0.1c0-0.1,0-0.1,0-0.2c0-0.1,0-0.1,0-0.1c0,0,0-0.1,0-0.1c0-0.1,0-0.1,0-0.2c0,0,0-0.1,0-0.1c0,0,0-0.1,0-0.1
			c0-0.1,0-0.1,0-0.2c0,0,0,0,0-0.1c0-0.1,0-0.1,0-0.2c0-0.1,0-0.1,0-0.2c0,0,0,0,0,0c0,0,0-0.1,0-0.1c0-0.1-0.1-0.2-0.1-0.3
			c0,0,0,0,0-0.1c0,0,0,0,0-0.1c0-0.2-0.1-0.3-0.2-0.5c0,0,0,0,0-0.1c0,0,0,0,0,0c-0.1-0.3-0.2-0.5-0.3-0.8c0,0,0,0,0,0
			c-0.1-0.3-0.2-0.5-0.3-0.8c0,0,0,0,0,0c0,0,0,0,0,0c-0.1-0.2-0.2-0.4-0.3-0.6c0,0,0,0,0,0c0,0,0,0,0,0c-0.1-0.2-0.2-0.3-0.3-0.5
			c0,0,0,0,0,0c0,0,0,0,0-0.1c-0.1-0.1-0.1-0.2-0.2-0.3c0,0,0,0,0-0.1c0,0,0,0,0,0c-0.1-0.1-0.1-0.2-0.2-0.3c0,0,0,0,0-0.1
			c0,0,0,0,0,0c-0.1-0.1-0.2-0.2-0.3-0.3c0,0,0,0,0,0c0,0,0-0.1-0.1-0.1c-0.1-0.1-0.1-0.1-0.2-0.2c0,0,0,0,0,0c0,0-0.1-0.1-0.1-0.1
			c0,0-0.1-0.1-0.1-0.1c0,0,0,0,0,0c0,0-0.1-0.1-0.1-0.1c0,0-0.1-0.1-0.1-0.1c0,0,0,0,0,0c0,0-0.1-0.1-0.1-0.1c0,0-0.1-0.1-0.1-0.1
			c0,0,0,0,0,0c0,0-0.1-0.1-0.1-0.1c0,0-0.1,0-0.1-0.1c0,0,0,0,0,0c-0.1-0.1-0.2-0.1-0.2-0.2c0,0,0,0,0,0c0,0,0,0,0,0
			c-0.1,0-0.1-0.1-0.2-0.1c0,0,0,0,0,0c0,0-0.1,0-0.1-0.1c0,0-0.1-0.1-0.1-0.1c0,0,0,0-0.1,0c0,0-0.1,0-0.1,0c0,0-0.1,0-0.1,0
			c0,0-0.1,0-0.1-0.1c0,0-0.1,0-0.1,0c0,0,0,0,0,0c-0.1,0-0.1,0-0.1-0.1c0,0,0,0-0.1,0c0,0,0,0,0,0c-0.1,0-0.2-0.1-0.2-0.1
			c0,0,0,0,0,0c0,0,0,0-0.1,0c-0.1,0-0.1,0-0.2-0.1c0,0,0,0-0.1,0c-0.1,0-0.1,0-0.2,0c0,0,0,0,0,0c0,0-0.1,0-0.1,0c0,0-0.1,0-0.1,0
			c0,0,0,0,0,0c-0.1,0-0.2,0-0.2,0c0,0,0,0,0,0c0,0,0,0,0,0c-0.1,0-0.2,0-0.3,0c0,0,0,0,0,0c0,0,0,0-0.1,0c-0.1,0-0.1,0-0.2,0
			c0,0,0,0,0,0c0,0,0,0,0,0c-0.1,0-0.2,0-0.3,0c0,0,0,0,0,0c-0.1,0-0.1,0-0.2,0c-0.3,0.1-0.7,0.2-1,0.3c0.1,0,0.1,0,0.1,0
			c3.3,0.9,6.2,5.6,6.4,10.4c0.1,2.8-0.6,5.1-1.9,6.4c0.3-0.1,0.6-0.2,1-0.3c0.1,0,0.2-0.1,0.3-0.1c0,0,0.1,0,0.1,0
			c0.1,0,0.2-0.1,0.2-0.1c0,0,0.1,0,0.1,0c0.1-0.1,0.2-0.1,0.3-0.2c0,0,0,0,0,0c0.1-0.1,0.2-0.2,0.3-0.2c0,0,0.1-0.1,0.1-0.1
			c0.1-0.1,0.1-0.1,0.2-0.2c0,0,0.1-0.1,0.1-0.1c0.1-0.1,0.2-0.2,0.3-0.3l0,0c0.1-0.1,0.2-0.3,0.3-0.4c0,0,0,0,0,0
			c0-0.1,0.1-0.2,0.1-0.2c0,0,0.1-0.1,0.1-0.2c0,0,0,0,0,0c0.1-0.1,0.1-0.2,0.2-0.4c0,0,0,0,0,0c0,0,0-0.1,0-0.1
			c0-0.1,0.1-0.1,0.1-0.2c0-0.1,0-0.1,0.1-0.2c0,0,0-0.1,0-0.1c0,0,0,0,0-0.1c0-0.1,0.1-0.2,0.1-0.3c0,0,0,0,0-0.1c0,0,0-0.1,0-0.1
			c0-0.1,0-0.1,0-0.2c0-0.1,0-0.2,0.1-0.3c0,0,0,0,0,0c0,0,0,0,0,0c0-0.1,0-0.2,0-0.3c0-0.1,0-0.2,0-0.3c0,0,0,0,0,0c0,0,0,0,0,0
			c0-0.1,0-0.2,0-0.3c0-0.1,0-0.2,0-0.2c0,0,0,0,0,0c0,0,0,0,0,0c0-0.1,0-0.2,0-0.3c0-0.1,0-0.1,0-0.2c0,0,0,0,0-0.1c0,0,0,0,0-0.1
			c0-0.1,0-0.2,0-0.3c0-0.1,0-0.2,0-0.2c0,0,0-0.1,0-0.1C33.2,50.5,33.2,50.4,33.2,50.4z"/>
		<path class="st3" d="M24.3,41.6c3.1,0.8,5.8,5.3,6,9.9c0.3,4.6-2,7.7-5.1,6.8c-3.1-0.8-5.8-5.3-6-9.9C19,43.8,21.2,40.7,24.3,41.6
			z"/>
		<path class="st0" d="M26.4,57.4c-0.3,0-0.6,0-0.9-0.1c-2.6-0.7-5-4.8-5.3-9c-0.2-3.3,1-5.7,2.9-5.9c0.3,0,0.6,0,0.9,0.1
			c2.6,0.7,5,4.8,5.3,9C29.5,54.8,28.3,57.3,26.4,57.4L26.4,57.4z"/>
		<path class="st0" d="M54.5,51.5c0.2,0.7,0.2,1.5,0.1,2.3c0,0.4-1.3,2.2-11.3,4.5c12.7-0.8,21.6-6.6,22.2-10.1
			c0.6-3.7-0.6-10.8-5.2-15.6C67.8,45.5,58,50.4,54.5,51.5z"/>
	</g>
	<path class="st2" d="M69.9,47.6c0,15.5-12.6,28.1-28.1,28.1c-15.5,0-28.1-12.6-28.1-28.1c0-15.5,12.6-28.1,28.1-28.1
		C57.3,19.4,69.9,32,69.9,47.6z"/>
</g>
<g>
	<g>
		<path class="st1" d="M107.3,77.9c-16.6,0-30.1-13.5-30.1-30.1c0-16.6,13.5-30.1,30.1-30.1c16.6,0,30.1,13.5,30.1,30.1
			C137.5,64.4,124,77.9,107.3,77.9L107.3,77.9z"/>
		<g>
			<defs>
				<path id="SVGID_4_" d="M135.5,47.8c0,15.5-12.6,28.1-28.1,28.1c-15.5,0-28.1-12.6-28.1-28.1c0-15.5,12.6-28.1,28.1-28.1
					C122.9,19.7,135.5,32.3,135.5,47.8z"/>
			</defs>
			<clipPath id="SVGID_5_">
				<use xlink:href="#SVGID_4_"  style="overflow:visible;"/>
			</clipPath>
			<path class="st8" d="M135.5,47.8c0,15.5-12.6,28.1-28.1,28.1c-15.5,0-28.1-12.6-28.1-28.1c0-15.5,12.6-28.1,28.1-28.1
				C122.9,19.7,135.5,32.3,135.5,47.8z"/>
			<g class="st9">
				<path class="st3" d="M93.1,62.7"/>
				<path class="st3" d="M93.1,62.7"/>
				<g>
					<path class="st0" d="M93.1,63.5c0.4,0,0.7-0.3,0.7-0.7c0-0.4-0.3-0.7-0.7-0.7c-0.4,0-0.7,0.3-0.7,0.7
						C92.4,63.1,92.7,63.5,93.1,63.5z"/>
					<path class="st0" d="M93.1,62.7"/>
				</g>
				<path class="st0" d="M96,61.7c0.1,0.3,0.2,0.7,0.2,1c0,1.7-1.4,3.1-3.1,3.1c-1.7,0-3.1-1.4-3.1-3.1c0-0.3,0-0.6,0.1-0.8l0.3-0.7
					h-4.6v-0.9h5l0.5-1.4h1.1c0,0.1-0.6,1.4-0.6,1.4L91,62.1c-0.1,0.2-0.1,0.4-0.1,0.6c0,1.2,1,2.2,2.2,2.2c1.2,0,2.2-1,2.2-2.2
					c0-0.3,0-0.5-0.1-0.7L94,58.9H95l0.5,1.4h5.4v0.9h-5.1L96,61.7z"/>
			</g>
		</g>
	</g>
	<g>
		<g>
			<path class="st10" d="M109.7,74"/>
		</g>
		<g>
			<path class="st10" d="M109.7,74"/>
		</g>
		<path class="st11" d="M122.6,53.6c-0.7-5.9-6.8-16.4-18.8-27.9c4.6,8.6-1.1,12.2-9.4,26.8c-2.8,5-3.7,12.5,2,18.5
			c3.9,4.1,12.5,8.3,20.5,0.9C123.2,66.1,123.4,59.8,122.6,53.6z"/>
		<path class="st12" d="M115.3,61c-0.1-0.5,0.3-5.4-6.6-17.4c-0.2,5.6-3.3,9.6-7.5,16.8c-1.4,2.5-1.9,6.3,1,9.2
			c2,2,6.2,4.1,10.2,0.4C115.6,67.2,115.7,64,115.3,61z"/>
	</g>
</g>
<g>
	<g>
		<path class="st1" d="M237.4,77.9c-16.6,0-30.1-13.5-30.1-30.1c0-16.6,13.5-30.1,30.1-30.1c16.6,0,30.1,13.5,30.1,30.1
			C267.5,64.4,254,77.9,237.4,77.9L237.4,77.9z"/>
		<g>
			<defs>
				<path id="SVGID_6_" d="M265.5,47.8c0,15.5-12.6,28.1-28.1,28.1c-15.5,0-28.1-12.6-28.1-28.1c0-15.5,12.6-28.1,28.1-28.1
					C252.9,19.7,265.5,32.3,265.5,47.8z"/>
			</defs>
			<clipPath id="SVGID_7_">
				<use xlink:href="#SVGID_6_"  style="overflow:visible;"/>
			</clipPath>
			<path class="st13" d="M265.5,47.8c0,15.5-12.6,28.1-28.1,28.1c-15.5,0-28.1-12.6-28.1-28.1c0-15.5,12.6-28.1,28.1-28.1
				C252.9,19.7,265.5,32.3,265.5,47.8z"/>
			<g class="st14">
				<path class="st3" d="M223.1,62.7"/>
				<path class="st3" d="M223.1,62.7"/>
				<g>
					<path class="st0" d="M223.1,63.5c0.4,0,0.7-0.3,0.7-0.7c0-0.4-0.3-0.7-0.7-0.7c-0.4,0-0.7,0.3-0.7,0.7
						C222.4,63.1,222.7,63.5,223.1,63.5z"/>
					<path class="st0" d="M223.1,62.7"/>
				</g>
				<path class="st0" d="M226.1,61.7c0.1,0.3,0.2,0.7,0.2,1c0,1.7-1.4,3.1-3.1,3.1c-1.7,0-3.1-1.4-3.1-3.1c0-0.3,0-0.6,0.1-0.8
					l0.3-0.7h-4.6v-0.9h5l0.5-1.4h1.1c0,0.1-0.6,1.4-0.6,1.4l-0.7,1.8c-0.1,0.2-0.1,0.4-0.1,0.6c0,1.2,1,2.2,2.2,2.2
					c1.2,0,2.2-1,2.2-2.2c0-0.3,0-0.5-0.1-0.7l-1.1-3.1h1.1l0.5,1.4h5.4v0.9h-5.1L226.1,61.7z"/>
			</g>
		</g>
	</g>
	<g>
		<path class="st3" d="M224.7,25.6c4.4,3.4,5,6.2,8.2,5.3c3.2-0.8,2.3-3,4.5-8.8l0,0.1c2.1,5.2,1.2,7.8,4.4,8.7
			c3.2,0.9,3.5-1.4,8.3-5.3l0,0c-0.8,5.5-2.8,7.4-0.5,9.7c2.3,2.3,3.7,0.5,9.9-0.4l0,0c-3.4,4.4-6.2,5-5.3,8.2
			c0.8,3.2,3,2.3,8.8,4.6v0c-5.2,2.1-7.8,1.2-8.7,4.4c-0.9,3.2,1.4,3.5,5.3,8.3l0,0c-5.5-0.8-7.4-2.8-9.7-0.5
			c-2.3,2.3-0.5,3.7,0.4,9.9l0,0c-4.4-3.4-5-6.2-8.2-5.3c-3.2,0.8-2.3,3-4.6,8.8h0c-2.1-5.2-1.2-7.8-4.4-8.7
			c-3.2-0.9-3.5,1.4-8.3,5.3l0,0c0.8-5.5,2.8-7.4,0.5-9.7c-2.3-2.3-3.7-0.5-9.9,0.4l0,0c3.4-4.4,6.2-5,5.3-8.2
			c-0.8-3.2-3-2.3-8.8-4.5l-0.1,0c5.2-2.1,7.8-1.2,8.7-4.4c0.9-3.2-1.4-3.5-5.3-8.3c5.5,0.8,7.4,2.8,9.7,0.5
			C227.4,33.2,225.7,31.8,224.7,25.6z"/>
		<g>
			<path class="st15" d="M222.6,47.7c0-8.2,6.6-14.8,14.8-14.8c8.2,0,14.8,6.6,14.8,14.8c0,7.4-7.5,14.8-14.8,14.8
				C229.2,62.5,222.6,55.9,222.6,47.7z"/>
			<path class="st16" d="M237.4,47.7"/>
		</g>
	</g>
</g>
<g>
	<g>
		<path class="st1" d="M432.5,77.9c-16.6,0-30.1-13.5-30.1-30.1c0-16.6,13.5-30.1,30.1-30.1c16.6,0,30.1,13.5,30.1,30.1
			C462.6,64.4,449.1,77.9,432.5,77.9L432.5,77.9z"/>
		<g>
			<defs>
				<path id="SVGID_8_" d="M460.7,47.8c0,15.5-12.6,28.1-28.1,28.1c-15.5,0-28.1-12.6-28.1-28.1c0-15.5,12.6-28.1,28.1-28.1
					C448.1,19.7,460.7,32.3,460.7,47.8z"/>
			</defs>
			<clipPath id="SVGID_9_">
				<use xlink:href="#SVGID_8_"  style="overflow:visible;"/>
			</clipPath>
			<path class="st17" d="M460.7,47.8c0,15.5-12.6,28.1-28.1,28.1c-15.5,0-28.1-12.6-28.1-28.1c0-15.5,12.6-28.1,28.1-28.1
				C448.1,19.7,460.7,32.3,460.7,47.8z"/>
			<g class="st18">
				<path class="st3" d="M418.3,62.7"/>
				<path class="st3" d="M418.3,62.7"/>
				<g>
					<path class="st0" d="M418.3,63.5c0.4,0,0.7-0.3,0.7-0.7c0-0.4-0.3-0.7-0.7-0.7c-0.4,0-0.7,0.3-0.7,0.7
						C417.5,63.1,417.9,63.5,418.3,63.5z"/>
					<path class="st0" d="M418.3,62.7"/>
				</g>
				<path class="st0" d="M421.2,61.7c0.1,0.3,0.2,0.7,0.2,1c0,1.7-1.4,3.1-3.1,3.1c-1.7,0-3.1-1.4-3.1-3.1c0-0.3,0-0.6,0.1-0.8
					l0.3-0.7h-4.6v-0.9h5l0.5-1.4h1.1c0,0.1-0.6,1.4-0.6,1.4l-0.7,1.8c-0.1,0.2-0.1,0.4-0.1,0.6c0,1.2,1,2.2,2.2,2.2
					c1.2,0,2.2-1,2.2-2.2c0-0.3,0-0.5-0.1-0.7l-1.1-3.1h1.1l0.5,1.4h5.4v0.9h-5.1L421.2,61.7z"/>
			</g>
		</g>
	</g>
	<g>
		<g>
			<path class="st16" d="M432.6,47.7"/>
		</g>
	</g>
	<g>
		<polygon class="st3" points="408.1,36.9 408.1,58.9 415.5,58.9 415.5,34.2 		"/>
		<polygon class="st3" points="423.8,40 423.8,58.9 418,58.9 418,42.1 422.3,40.6 422.3,36.5 438,30.8 457,46.3 457,58.9 
			427.8,58.9 427.8,40 		"/>
		<polygon class="st3" points="438,31.8 438,58.2 456.4,58.2 456.4,46.7 		"/>
		<polygon class="st19" points="440.2,57.1 455.1,57.1 455.1,55.4 440.2,54.2 		"/>
		<polygon class="st19" points="440.2,43.4 455.1,49.2 455.1,51 440.2,47.3 		"/>
		<polygon class="st19" points="440.2,36.6 440.2,41.4 455.1,48.2 455.1,47 		"/>
		<polygon class="st19" points="440.2,49.3 440.2,52.2 455.1,54.3 455.1,52.2 		"/>
	</g>
</g>
<g>
	<path class="st1" d="M367.2,77.9c-16.6,0-30.1-13.5-30.1-30.1c0-16.6,13.5-30.1,30.1-30.1c16.6,0,30.1,13.5,30.1,30.1
		C397.3,64.4,383.8,77.9,367.2,77.9L367.2,77.9z"/>
	<g>
		<defs>
			<path id="SVGID_10_" d="M395.3,47.8c0,15.5-12.6,28.1-28.1,28.1c-15.5,0-28.1-12.6-28.1-28.1c0-15.5,12.6-28.1,28.1-28.1
				C382.7,19.7,395.3,32.3,395.3,47.8z"/>
		</defs>
		<clipPath id="SVGID_11_">
			<use xlink:href="#SVGID_10_"  style="overflow:visible;"/>
		</clipPath>
		<path class="st20" d="M395.3,47.8c0,15.5-12.6,28.1-28.1,28.1c-15.5,0-28.1-12.6-28.1-28.1c0-15.5,12.6-28.1,28.1-28.1
			C382.7,19.7,395.3,32.3,395.3,47.8z"/>
		<g class="st21">
			<path class="st3" d="M352.9,62.7"/>
			<path class="st3" d="M352.9,62.7"/>
			<g>
				<path class="st0" d="M352.9,63.5c0.4,0,0.7-0.3,0.7-0.7c0-0.4-0.3-0.7-0.7-0.7c-0.4,0-0.7,0.3-0.7,0.7
					C352.2,63.1,352.5,63.5,352.9,63.5z"/>
				<path class="st0" d="M352.9,62.7"/>
			</g>
			<path class="st0" d="M355.9,61.7c0.1,0.3,0.2,0.7,0.2,1c0,1.7-1.4,3.1-3.1,3.1c-1.7,0-3.1-1.4-3.1-3.1c0-0.3,0-0.6,0.1-0.8
				l0.3-0.7h-4.6v-0.9h5l0.5-1.4h1.1c0,0.1-0.6,1.4-0.6,1.4l-0.7,1.8c-0.1,0.2-0.1,0.4-0.1,0.6c0,1.2,1,2.2,2.2,2.2s2.2-1,2.2-2.2
				c0-0.3,0-0.5-0.1-0.7l-1.1-3.1h1.1l0.5,1.4h5.4v0.9h-5.1L355.9,61.7z"/>
		</g>
	</g>
</g>
<g>
	<g>
		<path class="st16" d="M367.2,48.7"/>
	</g>
</g>
<g>
	<polyline class="st22" points="351.8,71.6 367.1,29.4 382.5,71.5 	"/>
	<line class="st22" x1="353.8" y1="66.2" x2="380.6" y2="66.2"/>
	<polygon class="st22" points="357.7,55.5 376.7,55.5 367.2,66.2 	"/>
	<polygon class="st22" points="361.6,44.5 372.7,44.5 367.2,55.5 	"/>
	<polygon class="st22" points="345.7,31.8 388.8,31.8 367.2,44.6 	"/>
	<g>
		<line class="st22" x1="346.7" y1="31.8" x2="346.7" y2="42.9"/>
		<g>
			<line class="st23" x1="345.1" y1="35.6" x2="348.3" y2="35.6"/>
		</g>
		<g>
			<line class="st23" x1="345.1" y1="37.5" x2="348.3" y2="37.5"/>
		</g>
		<g>
			<line class="st23" x1="345.1" y1="39.3" x2="348.3" y2="39.3"/>
		</g>
		<g>
			<line class="st23" x1="345.1" y1="41.2" x2="348.3" y2="41.2"/>
		</g>
	</g>
	<g>
		<line class="st22" x1="387.8" y1="31.8" x2="387.8" y2="42.9"/>
		<g>
			<line class="st23" x1="386.2" y1="35.6" x2="389.5" y2="35.6"/>
		</g>
		<g>
			<line class="st23" x1="386.2" y1="37.5" x2="389.5" y2="37.5"/>
		</g>
		<g>
			<line class="st23" x1="386.2" y1="39.3" x2="389.5" y2="39.3"/>
		</g>
		<g>
			<line class="st23" x1="386.2" y1="41.2" x2="389.5" y2="41.2"/>
		</g>
	</g>
</g>
<g>
	<path d="M13.6,163.6L13.6,163.6c0-4.7,3.5-8.7,8.6-8.7s8.5,4,8.5,8.6c0,0,0,0,0,0c0,4.6-3.5,8.7-8.6,8.7S13.6,168.3,13.6,163.6z
		 M28.8,163.6L28.8,163.6c0-3.9-2.8-7-6.6-7c-3.8,0-6.6,3.1-6.6,6.9v0c0,3.8,2.8,6.9,6.6,6.9C26.1,170.5,28.8,167.5,28.8,163.6z"/>
	<path d="M41.1,155.2h12.1v1.8H43v6h9.1v1.7H43v7.3h-1.9V155.2z"/>
	<path d="M75.8,163.6L75.8,163.6c0-4.7,3.4-8.7,8.4-8.7c2.8,0,4.6,0.8,6.3,2.2l-1.2,1.4c-1.3-1.1-2.7-1.9-5.1-1.9
		c-3.7,0-6.4,3.1-6.4,6.9v0c0,4,2.6,7,6.6,7c1.9,0,3.7-0.7,4.8-1.7v-4.2h-5.1V163h6.9v6.7c-1.6,1.4-3.9,2.6-6.7,2.6
		C79.1,172.3,75.8,168.4,75.8,163.6z"/>
	<path d="M101.7,155.2h7.2c2.1,0,3.7,0.6,4.8,1.7c0.8,0.8,1.3,2,1.3,3.3v0c0,2.8-1.9,4.4-4.6,4.9l5.2,6.9h-2.3l-4.9-6.5h0h-4.8v6.5
		h-1.9V155.2z M108.7,163.8c2.5,0,4.3-1.3,4.3-3.5v0c0-2.1-1.6-3.3-4.3-3.3h-5.2v6.8H108.7z"/>
	<path d="M125.3,155.2h12.1v1.7h-10.2v5.7h9.2v1.7h-9.2v5.9h10.4v1.7h-12.3V155.2z"/>
	<path d="M153.9,155.1h1.8l7.7,16.9h-2l-2-4.4h-9.1l-2,4.4h-1.9L153.9,155.1z M158.6,165.9l-3.8-8.6l-3.8,8.6H158.6z"/>
	<path d="M175.2,157h-5.6v-1.8h13.2v1.8h-5.6v15h-1.9V157z"/>
	<path d="M192.6,155.2h12.1v1.7h-10.2v5.7h9.2v1.7h-9.2v5.9h10.4v1.7h-12.3V155.2z"/>
	<path d="M215,155.2h7.2c2.1,0,3.7,0.6,4.8,1.7c0.8,0.8,1.3,2,1.3,3.3v0c0,2.8-1.9,4.4-4.6,4.9l5.2,6.9h-2.3l-4.9-6.5h0h-4.8v6.5
		H215V155.2z M222,163.8c2.5,0,4.3-1.3,4.3-3.5v0c0-2.1-1.6-3.3-4.3-3.3h-5.2v6.8H222z"/>
	<path d="M252.1,155.2h6.3c3.8,0,6.3,2,6.3,5.3v0c0,3.6-3,5.5-6.6,5.5H254v5.9h-1.9V155.2z M258.2,164.3c2.8,0,4.6-1.5,4.6-3.7v0
		c0-2.4-1.8-3.6-4.5-3.6H254v7.4H258.2z"/>
	<path d="M274.6,155.2h1.9V172h-1.9V155.2z"/>
	<path d="M292.1,157h-5.6v-1.8h13.2v1.8h-5.6v15h-1.9V157z"/>
	<path d="M314,157h-5.6v-1.8h13.2v1.8h-5.6v15H314V157z"/>
	<path d="M329.9,169.6l1.2-1.4c1.8,1.6,3.4,2.4,5.8,2.4c2.3,0,3.7-1.2,3.7-2.9v0c0-1.6-0.8-2.4-4.4-3.2c-3.9-0.8-5.6-2.1-5.6-4.8v0
		c0-2.6,2.3-4.6,5.5-4.6c2.4,0,4.2,0.7,5.9,2.1l-1.1,1.5c-1.6-1.3-3.1-1.8-4.8-1.8c-2.2,0-3.6,1.2-3.6,2.7v0c0,1.6,0.9,2.5,4.6,3.3
		c3.7,0.8,5.5,2.2,5.5,4.8v0c0,2.9-2.4,4.8-5.7,4.8C334.1,172.2,331.9,171.4,329.9,169.6z"/>
	<path d="M352.7,155.2h7.2c1.9,0,3.4,0.6,4.4,1.5c0.7,0.7,1.1,1.6,1.1,2.7v0c0,2.2-1.3,3.3-2.7,3.9c2,0.6,3.6,1.8,3.6,4.1v0
		c0,2.9-2.4,4.6-6.1,4.6h-7.5V155.2z M359.5,162.7c2.3,0,3.9-1,3.9-3v0c0-1.7-1.3-2.7-3.7-2.7h-5.1v5.8H359.5z M360.2,170.3
		c2.5,0,4.1-1.1,4.1-3v0c0-1.8-1.5-2.9-4.5-2.9h-5.3v5.9H360.2z"/>
	<path d="M376,165v-9.8h1.9v9.6c0,3.6,1.9,5.7,5.1,5.7c3.1,0,5.1-1.9,5.1-5.5v-9.8h1.9v9.6c0,4.9-2.8,7.4-7,7.4
		C378.9,172.3,376,169.7,376,165z"/>
	<path d="M400.8,155.2h7.2c2.1,0,3.7,0.6,4.8,1.7c0.8,0.8,1.3,2,1.3,3.3v0c0,2.8-1.9,4.4-4.6,4.9l5.2,6.9h-2.3l-4.9-6.5h0h-4.8v6.5
		h-1.9V155.2z M407.9,163.8c2.5,0,4.3-1.3,4.3-3.5v0c0-2.1-1.6-3.3-4.3-3.3h-5.2v6.8H407.9z"/>
	<path d="M423.7,163.6L423.7,163.6c0-4.7,3.4-8.7,8.4-8.7c2.8,0,4.6,0.8,6.3,2.2l-1.2,1.4c-1.3-1.1-2.7-1.9-5.1-1.9
		c-3.7,0-6.4,3.1-6.4,6.9v0c0,4,2.6,7,6.6,7c1.9,0,3.7-0.7,4.8-1.7v-4.2H432V163h6.9v6.7c-1.6,1.4-3.9,2.6-6.7,2.6
		C427,172.3,423.7,168.4,423.7,163.6z"/>
	<path d="M449.5,155.2h1.9v7.5h9.7v-7.5h1.9V172h-1.9v-7.6h-9.7v7.6h-1.9V155.2z"/>
</g>
</svg>
