<?xml version="1.0" encoding="utf-8"?>
<!-- Generator: Adobe Illustrator 22.1.0, SVG Export Plug-In . SVG Version: 6.00 Build 0)  -->
<svg version="1.1" id="Layer_1" xmlns="http://www.w3.org/2000/svg" xmlns:xlink="http://www.w3.org/1999/xlink" x="0px" y="0px"
	 viewBox="0 0 100 100" style="enable-background:new 0 0 100 100;" xml:space="preserve">
<style type="text/css">
	.st0{fill-rule:evenodd;clip-rule:evenodd;fill:#807E7E;}
	.st1{fill:#807E7E;}
</style>
<g>
	<path class="st0" d="M50,7.2C25.8,7.2,6.1,26.8,6.1,51.1c0,19.4,12.6,35.8,30,41.6c2.2,0.4,3-1,3-2.1c0-1,0-4.5-0.1-8.2
		c-12.2,2.7-14.8-5.2-14.8-5.2c-2-5.1-4.9-6.4-4.9-6.4c-4-2.7,0.3-2.7,0.3-2.7c4.4,0.3,6.7,4.5,6.7,4.5c3.9,6.7,10.3,4.8,12.8,3.6
		c0.4-2.8,1.5-4.8,2.8-5.9c-9.7-1.1-20-4.9-20-21.7c0-4.8,1.7-8.7,4.5-11.8c-0.5-1.1-2-5.6,0.4-11.6c0,0,3.7-1.2,12.1,4.5
		c3.5-1,7.3-1.5,11-1.5c3.7,0,7.5,0.5,11,1.5c8.4-5.7,12.1-4.5,12.1-4.5c2.4,6,0.9,10.5,0.4,11.6c2.8,3.1,4.5,7,4.5,11.8
		c0,16.9-10.3,20.6-20,21.7c1.6,1.4,3,4,3,8.1c0,5.9-0.1,10.6-0.1,12c0,1.2,0.8,2.5,3,2.1c17.4-5.8,30-22.3,30-41.6
		C93.9,26.8,74.2,7.2,50,7.2z"/>
	<path class="st1" d="M22.7,70.2c-0.1,0.2-0.4,0.3-0.8,0.1c-0.3-0.1-0.5-0.4-0.4-0.7c0.1-0.2,0.4-0.3,0.8-0.1
		C22.7,69.7,22.8,70,22.7,70.2L22.7,70.2z M22.2,69.8"/>
	<path class="st1" d="M24.5,72.2c-0.2,0.2-0.6,0.1-0.9-0.2c-0.3-0.3-0.3-0.7-0.1-0.9c0.2-0.2,0.6-0.1,0.9,0.2
		C24.7,71.6,24.7,72,24.5,72.2L24.5,72.2z M24.1,71.7"/>
	<path class="st1" d="M26.2,74.7c-0.3,0.2-0.7,0-1-0.4c-0.3-0.4-0.3-0.9,0-1c0.3-0.2,0.7,0,1,0.4C26.5,74.1,26.5,74.5,26.2,74.7
		L26.2,74.7z M26.2,74.7"/>
	<path class="st1" d="M28.6,77.2c-0.2,0.3-0.8,0.2-1.1-0.2c-0.4-0.4-0.5-0.9-0.2-1.1c0.2-0.3,0.8-0.2,1.1,0.2
		C28.8,76.4,28.9,76.9,28.6,77.2L28.6,77.2z M28.6,77.2"/>
	<path class="st1" d="M31.9,78.6c-0.1,0.3-0.6,0.5-1.1,0.4c-0.5-0.2-0.8-0.6-0.7-0.9c0.1-0.3,0.6-0.5,1.1-0.4
		C31.7,77.8,32,78.2,31.9,78.6L31.9,78.6z M31.9,78.6"/>
	<path class="st1" d="M35.5,78.8c0,0.4-0.4,0.7-0.9,0.7c-0.5,0-0.9-0.3-1-0.6c0-0.4,0.4-0.7,0.9-0.7C35,78.2,35.5,78.5,35.5,78.8
		L35.5,78.8z M35.5,78.8"/>
	<path class="st1" d="M38.8,78.3c0.1,0.4-0.3,0.7-0.8,0.8c-0.5,0.1-1-0.1-1-0.5c-0.1-0.4,0.3-0.7,0.8-0.8
		C38.3,77.7,38.8,77.9,38.8,78.3L38.8,78.3z M38.8,78.3"/>
</g>
</svg>
