<?xml version="1.0" encoding="utf-8"?>
<!-- Generator: Adobe Illustrator 22.0.1, SVG Export Plug-In . SVG Version: 6.00 Build 0)  -->
<svg version="1.1" id="Layer_1" xmlns="http://www.w3.org/2000/svg" xmlns:xlink="http://www.w3.org/1999/xlink" x="0px" y="0px"
	 viewBox="0 0 325 94.5" style="enable-background:new 0 0 325 94.5;" xml:space="preserve">
<style type="text/css">
	.st0{fill:url(#SVGID_1_);}
	.st1{fill:#006548;}
</style>
<linearGradient id="SVGID_1_" gradientUnits="userSpaceOnUse" x1="47.7069" y1="9.33" x2="49.0256" y2="87.7868">
	<stop  offset="0" style="stop-color:#00BDF2"/>
	<stop  offset="8.661986e-02" style="stop-color:#00B7D7"/>
	<stop  offset="0.253" style="stop-color:#00ADA9"/>
	<stop  offset="0.3812" style="stop-color:#00A78D"/>
	<stop  offset="0.4549" style="stop-color:#00A582"/>
	<stop  offset="0.6495" style="stop-color:#00949E"/>
	<stop  offset="0.8676" style="stop-color:#0084B7"/>
	<stop  offset="1" style="stop-color:#007EC0"/>
</linearGradient>
<path class="st0" d="M84.3,26.7C76.7,13.8,63.2,6.1,48.3,6.1C25.3,6.1,6.5,24.9,6.5,48c0,3.1,0.6,8.8,4.5,12.7
	c4.1,4.1,9.5,6.1,16,6.1c3.1,0,5.7-0.5,7.5-0.8l0.3-0.1V38h8.3v21.7l-0.4,0.1c-0.6,0.2-0.9,0.3-2,0.7V40.4h-3.5v25.1l1.1-0.4
	c2.4-0.8,3.7-1.3,8.1-2.9l0.2-0.1V34.4h-5.9V23.8h14.2v2.8h-5.9v34.6l0.5-0.2c6-2.3,6.6-2.5,8.7-3.2l0.2-0.1V32.5h-3.5v22.7
	c-0.9,0.3-1.3,0.5-2.4,0.9V30.1H61v26.9l0.5-0.1c3.2-0.8,6.1-1.2,8.9-1.2c3.4,0,6.7,0.6,10,1.9l0.4-0.6c-1.6-1.7-5.3-4.5-12-4.7
	c-1.8,0.1-3.1,0.2-4.2,0.4v-26h-5.9v-6.3H37.3v14.2h-5.9v28.5c-0.8,0.1-2.2,0.3-4,0.3c-5.5,0-10.2-1.7-13.8-5
	C10.5,55.3,10,50.6,10,48C10,26.8,27.2,9.6,48.3,9.6c13,0,24.9,6.5,32,17.4c7.1,10.9,8.2,24.2,3,36.4c-4.4-2.5-8.7-3.7-13.3-3.7
	c-6.1,0-12.2,2.1-20,5.1c-7.5,2.9-15.5,5.7-23.4,5.7c-6,0-11.1-1.7-15.6-5.1l-0.6,0.4c4.3,9,12,16.5,21.2,20.4
	c5.2,2.3,10.8,3.4,16.4,3.4c6.4,0,12.6-1.4,18.5-4.3c5.9-2.9,11.2-7.3,15.1-12.6l0.3-0.3l-0.4-0.2c-1.3-0.7-4.6-2.4-5.6-2.8
	c-2.3-0.9-4.5-1.3-6.8-1.3c-5,0-9.6,2-14.6,4c-4.3,1.8-8.8,3.7-14,4.6l0,0.7c1.3,0.4,2.7,0.6,4.3,0.6c4.8,0,8.6-1.5,12.2-3
	c3.6-1.5,7.1-2.9,11.4-2.9c2.5,0,5.1,0.5,7.9,1.5C69.2,82,59.3,86.3,47.9,86.3c0,0,0,0,0,0c-0.2,0-0.4,0-0.7,0
	c-8.1-0.1-15.2-3.5-19.8-6.4c-2.5-1.5-4-2.6-5.3-3.8c-1-0.9-2-1.9-2.5-2.8c2.6,0.5,5.1,0.7,7.4,0.7l0.2,0c8.6,0,16.5-3,24-5.9
	c6.6-2.5,12.8-5,18.8-5c1,0,2,0.1,2.9,0.2c4.4,0.6,5.8,1.5,9.2,3.4c0.7,0.4,1.4,0.8,2.3,1.3l0.3,0.2L85,68
	C92.2,55,91.9,39.5,84.3,26.7z"/>
<g>
	<g>
		<path class="st1" d="M99.2,34v-0.7c0-8,3.4-12.1,7.6-12.1c1.3,0,2.2,0.3,3.1,0.8v2.4c-1-0.6-2-1-3-1c-2.9,0-5.3,3.2-5.3,9.8V34
			c0,6.9,2.4,10,5.3,10c0.5,0,0.8-0.1,1.3-0.2V35h-3.2V33h5.3v12.2c-1.3,0.7-2.2,0.9-3.6,0.9C102.5,46,99.2,42.1,99.2,34z"/>
		<path class="st1" d="M114.1,21.5h3.4c4.3,0,7.1,2.5,7.1,7.3v0.1c0,3.3-1.5,5.7-3.8,6.7l4.3,10.2h-2.5l-4-9.5
			c-0.3,0.1-0.7,0.1-1,0.1h-1.2v9.5h-2.3V21.5z M117.5,34.3c2.9,0,4.8-1.8,4.8-5.4v-0.1c0-3.7-2-5.3-4.9-5.3h-1v10.8H117.5z"/>
		<path class="st1" d="M128.1,21.5h8.6v2.1h-6.3v8.9h5.7v2.1h-5.7v9.1h6.4v2.1h-8.7V21.5z"/>
		<path class="st1" d="M144,21.4h2.4l5.2,24.5h-2.3l-1.3-6.3h-5.6l-1.3,6.3h-2.2L144,21.4z M147.7,37.5l-2.5-12.3l-2.5,12.3H147.7z"
			/>
		<path class="st1" d="M155.6,23.6h-3.7v-2.1h9.7v2.1h-3.7v22.3h-2.3V23.6z"/>
		<path class="st1" d="M170.5,21.5h2.3v22.3h5.7v2.1h-7.9V21.5z"/>
		<path class="st1" d="M185,21.4h2.4l5.2,24.5h-2.3l-1.3-6.3h-5.6l-1.3,6.3h-2.2L185,21.4z M188.7,37.5l-2.5-12.3l-2.5,12.3H188.7z"
			/>
		<path class="st1" d="M195.6,21.5h2.3v12.9l5.9-12.9h2.6l-5.2,10.8l5.7,13.5h-2.5l-4.7-11l-1.7,3.6v7.4h-2.3V21.5z"/>
		<path class="st1" d="M209.3,21.5h8.6v2.1h-6.3v8.9h5.7v2.1h-5.7v9.1h6.4v2.1h-8.7V21.5z"/>
		<path class="st1" d="M220.5,44.9v-2.5c1.6,1,3,1.5,4.1,1.5c1.8,0,3.1-1.1,3.1-3.1v-0.1c0-1.8-0.6-3-3.1-6.2
			c-3.2-4.1-4.1-5.5-4.1-7.9v-0.1c0-3.2,2.3-5.4,5.1-5.4c1.5,0,2.6,0.3,3.7,1v2.5c-1.3-0.9-2.4-1.3-3.6-1.3c-1.7,0-3,1.2-3,3v0.1
			c0,1.6,0.7,2.8,3.2,5.9c3.1,3.8,4,5.6,4,8.3v0.1c0,3.3-2.3,5.4-5.3,5.4C223.2,46.2,221.9,45.7,220.5,44.9z"/>
		<path class="st1" d="M239.5,21.5h2.5l4.1,12.4l4.1-12.4h2.5v24.4h-2.2V26.5l-4.4,12.8H246l-4.4-12.8v19.3h-2.2V21.5z"/>
		<path class="st1" d="M256.7,21.5h8.6v2.1H259v8.9h5.7v2.1H259v9.1h6.4v2.1h-8.7V21.5z"/>
		<path class="st1" d="M270.9,23.6h-3.7v-2.1h9.7v2.1h-3.7v22.3h-2.3V23.6z"/>
		<path class="st1" d="M279.7,21.5h3.4c4.3,0,7.1,2.5,7.1,7.3v0.1c0,3.3-1.5,5.7-3.8,6.7l4.3,10.2h-2.5l-4-9.5
			c-0.3,0.1-0.7,0.1-1,0.1h-1.2v9.5h-2.3V21.5z M283.1,34.3c2.9,0,4.8-1.8,4.8-5.4v-0.1c0-3.7-2-5.3-4.9-5.3h-1v10.8H283.1z"/>
		<path class="st1" d="M293,34v-0.8c0-8,2.5-12.1,6-12.1s6,4.1,6,12.1V34c0,8-2.5,12.1-6,12.1S293,42.1,293,34z M302.7,34v-0.8
			c0-6.9-1.6-10-3.7-10s-3.7,3.2-3.7,10V34c0,6.9,1.6,10,3.7,10S302.7,40.9,302.7,34z"/>
		<path class="st1" d="M99.2,66.9v-0.7c0-8.2,3.1-12,6.7-12c1.1,0,1.7,0.2,2.5,0.6v2.4c-0.9-0.5-1.6-0.8-2.4-0.8
			c-2.5,0-4.5,3.1-4.5,9.8v0.7c0,6.8,2,9.8,4.5,9.8c0.8,0,1.6-0.2,2.4-0.8v2.3c-0.8,0.5-1.6,0.7-2.7,0.7
			C102.1,78.9,99.2,75,99.2,66.9z"/>
		<path class="st1" d="M111.8,54.4h2.3v11.1h6.5V54.4h2.3v24.4h-2.3V67.5h-6.5v11.2h-2.3V54.4z"/>
		<path class="st1" d="M131,54.3h2.4l5.2,24.5h-2.3l-1.3-6.3h-5.6l-1.3,6.3h-2.2L131,54.3z M134.6,70.4l-2.5-12.3l-2.5,12.3H134.6z"
			/>
		<path class="st1" d="M141.6,54.4h2.5l4.1,12.4l4.1-12.4h2.5v24.4h-2.2V59.4l-4.4,12.8h-0.1l-4.4-12.8v19.3h-2.2V54.4z"/>
		<path class="st1" d="M158.8,54.4h3.3c3.9,0,6.9,2.2,6.9,6.1v0.1c0,3.4-2,5.1-4.2,5.8c2.7,0.7,4.5,2.5,4.5,5.8v0.1
			c0,4.1-3.1,6.4-7.7,6.4h-2.8V54.4z M161.9,65.4c3.1,0,4.8-1.7,4.8-4.6v-0.1c0-2.7-1.8-4.3-4.5-4.3h-1.1v9H161.9z M161.8,76.6
			c3.2,0,5.2-1.5,5.2-4.5v-0.1c0-3-1.9-4.6-5.1-4.6h-0.9v9.2H161.8z"/>
		<path class="st1" d="M172.6,54.4h8.6v2.1h-6.3v8.9h5.7v2.1h-5.7v9.1h6.4v2.1h-8.7V54.4z"/>
		<path class="st1" d="M184.4,54.4h3.4c4.3,0,7.1,2.5,7.1,7.3v0.1c0,3.3-1.5,5.7-3.8,6.7l4.3,10.2h-2.5l-4-9.5
			c-0.3,0.1-0.7,0.1-1,0.1h-1.2v9.5h-2.3V54.4z M187.9,67.2c2.9,0,4.8-1.8,4.8-5.4v-0.1c0-3.7-2-5.3-4.9-5.3h-1v10.8H187.9z"/>
		<path class="st1" d="M197.7,77.8v-2.5c1.6,1,3,1.5,4.1,1.5c1.8,0,3.1-1.1,3.1-3.1v-0.1c0-1.8-0.6-3-3.1-6.2
			c-3.2-4.1-4.1-5.5-4.1-7.9v-0.1c0-3.2,2.3-5.4,5.1-5.4c1.5,0,2.6,0.3,3.7,1v2.5c-1.3-0.9-2.4-1.3-3.6-1.3c-1.7,0-3,1.2-3,3v0.1
			c0,1.6,0.7,2.8,3.2,5.9c3.1,3.8,4,5.6,4,8.3v0.1c0,3.3-2.3,5.4-5.3,5.4C200.5,79.1,199.1,78.6,197.7,77.8z"/>
		<path class="st1" d="M216.1,66.9v-0.7c0-8.2,3.1-12,6.7-12c1.1,0,1.7,0.2,2.5,0.6v2.4c-0.9-0.5-1.6-0.8-2.4-0.8
			c-2.5,0-4.5,3.1-4.5,9.8v0.7c0,6.8,2,9.8,4.5,9.8c0.8,0,1.6-0.2,2.4-0.8v2.3c-0.8,0.5-1.6,0.7-2.7,0.7
			C218.9,78.9,216.1,75,216.1,66.9z"/>
		<path class="st1" d="M227.2,66.9v-0.8c0-8,2.5-12.1,6-12.1c3.4,0,6,4.1,6,12.1v0.8c0,8-2.5,12.1-6,12.1
			C229.8,79.1,227.2,75,227.2,66.9z M236.9,66.9v-0.8c0-6.9-1.6-10-3.7-10s-3.7,3.2-3.7,10v0.8c0,6.9,1.6,10,3.7,10
			S236.9,73.8,236.9,66.9z"/>
		<path class="st1" d="M245.9,54.3h2.4l5.2,24.5h-2.3l-1.3-6.3h-5.6l-1.3,6.3h-2.2L245.9,54.3z M249.5,70.4L247,58.1l-2.5,12.3
			H249.5z"/>
		<path class="st1" d="M256.5,54.4h2.3v22.3h5.7v2.1h-7.9V54.4z"/>
		<path class="st1" d="M267.2,54.4h2.3v24.4h-2.3V54.4z"/>
		<path class="st1" d="M276.1,56.5h-3.7v-2.1h9.7v2.1h-3.7v22.3h-2.3V56.5z"/>
		<path class="st1" d="M285,54.4h2.3v24.4H285V54.4z"/>
		<path class="st1" d="M291,66.9v-0.8c0-8,2.5-12.1,6-12.1c3.4,0,6,4.1,6,12.1v0.8c0,8-2.5,12.1-6,12.1C293.5,79.1,291,75,291,66.9z
			 M300.6,66.9v-0.8c0-6.9-1.6-10-3.7-10s-3.7,3.2-3.7,10v0.8c0,6.9,1.6,10,3.7,10S300.6,73.8,300.6,66.9z"/>
		<path class="st1" d="M306.4,54.4h2.3l6.7,18.3V54.4h2.2v24.4h-2.1l-6.9-18.8v18.8h-2.2V54.4z"/>
	</g>
</g>
</svg>
