<?xml version="1.0" encoding="utf-8"?>
<!-- Generator: Adobe Illustrator 20.1.0, SVG Export Plug-In . SVG Version: 6.00 Build 0)  -->
<svg version="1.1" id="Layer_1" xmlns="http://www.w3.org/2000/svg" xmlns:xlink="http://www.w3.org/1999/xlink" x="0px" y="0px"
	 viewBox="0 0 241.9 84.9" style="enable-background:new 0 0 241.9 84.9;" xml:space="preserve">
<g>
	<g>
		<path style="fill:#95979A;" d="M214.2,39.9L214.2,39.9c-2.3-1.9-4.5-4-6.8-5.9c-2.3-2-4.6-3.9-7-5.8c-2.4-1.9-4.8-3.8-7.2-5.6
			c-2.4-1.8-4.9-3.6-7.5-5.2c-5.1-3.4-10.4-6.5-15.9-9.2c-5.5-2.7-11.3-5-17.4-6.5c-6.1-1.4-12.5-2.2-18.8-1.4
			c-6.3,0.8-12.6,3.2-17.7,7.1c-5.1,3.9-9.1,9-12.1,14.4c-2.6,4.7-4.5,9.7-6.1,14.8c-3.8-3.2-7.7-6.3-11.7-9.2
			c-4.8-3.4-9.8-6.5-15.3-8.7c-2.8-1-5.8-1.8-9-1.6c-1.6,0.1-3.2,0.5-4.6,1.3c-1.4,0.8-2.6,1.9-3.6,3.2c-1.8,2.6-2.6,5.6-3,8.5
			c-0.3,2.1-0.4,4.1-0.4,6.2c-0.6-0.7-1.1-1.3-1.7-1.9c-1.2-1.2-2.5-2.3-3.8-3.4c-2.7-2.1-5.6-4-9-5c-1.7-0.5-3.5-0.6-5.3,0
			c-1.7,0.6-3.1,1.9-3.9,3.5c-0.9,1.5-1.3,3.2-1.7,4.9c-0.3,1.7-0.5,3.4-0.5,5.1c0,0.1,0.1,0.3,0.2,0.3c0.1,0,0.3-0.1,0.3-0.2
			c0.1-1.7,0.3-3.3,0.7-5c0.4-1.6,0.9-3.2,1.7-4.6c0.8-1.4,2-2.5,3.5-3c1.5-0.5,3.1-0.3,4.7,0.2c3.1,1,5.9,2.9,8.5,5
			c1.3,1.1,2.5,2.2,3.6,3.4c0.6,0.6,1.1,1.2,1.6,1.9c0.3,0.3,0.5,0.6,0.7,1c0.2,0.3,0.4,0.7,0.5,0.9l1.6,4.7l0-5
			c0-2.9,0.1-5.7,0.6-8.5c0.5-2.7,1.3-5.5,2.9-7.6c0.8-1.1,1.8-1.9,2.9-2.5c1.1-0.6,2.4-0.9,3.7-0.9c2.6-0.1,5.3,0.7,7.9,1.7
			c5.2,2.1,10,5.3,14.5,8.7c4.6,3.4,8.9,7.1,13.3,11l1.9,1.6l0.7-2.4c1.7-5.7,3.9-11.2,6.9-16.2c2.9-5,6.7-9.6,11.3-12.8
			c4.6-3.3,10.1-5.2,15.7-5.7c5.6-0.5,11.4,0.2,17,1.7c11.3,2.9,22,8.1,32.4,14c2.6,1.5,5.1,3,7.7,4.6c2.5,1.6,5.1,3.2,7.6,4.9
			l7.5,5c2.5,1.7,5,3.4,7.6,5c0.1,0.1,0.2,0,0.3-0.1C214.3,40.2,214.3,40,214.2,39.9z"/>
		<path style="fill:#58595B;" d="M2.8,33.1c9,0.3,18.1,0.4,27.1,0.6C40,33.9,50,34.1,60,34.2c10,0.1,20.1,0.2,30.1,0.2l30.1,0
			l30.1-0.1c10-0.1,20.1-0.1,30.1-0.3c10-0.1,20.1-0.3,30.1-0.5l15.1-0.4l7.5-0.2l5.9-0.2c0.7,0,1.2,0,1.2-0.1
			c0-0.1-0.2-0.1-1.2-0.1l-5.9-0.1l-7.5-0.2l-15.1-0.3c-10-0.2-20.1-0.3-30.1-0.4c-10-0.1-20.1-0.2-30.1-0.2l-30.1,0l-30.1,0.1
			c-10,0.1-20.1,0.1-30.1,0.3C50,31.8,40,32,29.9,32.2c-9,0.3-17.9,0.4-27,0.7c-2,0.1-3,0.1-3,0.2C0,33.1,0.9,33.1,2.8,33.1z"/>
		<path style="fill:#AAAD00;" d="M197,46.2L197,46.2c-6.1-10.2-13.3-20.1-22.3-28.3c-4.5-4.1-9.4-7.8-14.8-10.8
			c-5.4-3-11.5-5.1-17.8-5.9c-6.3-0.7-12.8,0-18.7,2.1c-5.9,2.1-11.4,5.3-16.2,9.1c-4.8,3.8-9.1,8.2-13,12.8
			c-3.3,4-6.4,8.1-9.2,12.4c-1-1.7-2.1-3.2-3.2-4.8c-1.7-2.3-3.5-4.4-5.5-6.4c-2-2-4.1-3.9-6.5-5.5c-2.4-1.6-5.1-2.9-8-3.4
			c-2.9-0.5-6.1,0-8.7,1.5c-2.6,1.5-4.6,3.6-6.3,5.9c-2.6,3.8-4.4,7.9-5.9,12.1c-0.5-2.2-1.4-4.2-2.5-6.1c-0.9-1.4-2-2.7-3.3-3.7
			c-1.4-1-3.1-1.7-4.9-1.5c-1.7,0.1-3.3,1-4.6,2c-1.3,1-2.4,2.3-3.4,3.5c-1.9,2.6-3.5,5.5-4.8,8.4c-0.1,0.1,0,0.3,0.1,0.3
			c0.1,0.1,0.3,0,0.3-0.1c1.4-2.9,3-5.6,5-8.1c1-1.2,2.1-2.4,3.3-3.3c1.2-0.9,2.7-1.6,4.1-1.7c1.5-0.1,2.9,0.5,4.1,1.4
			c1.2,0.9,2.1,2.2,2.9,3.5c1.5,2.7,2.5,5.7,2.6,8.8l0.2,4.2l1.4-4c1.8-5.1,3.9-10.2,7.1-14.5c1.6-2.1,3.5-4,5.7-5.2
			c2.2-1.2,4.8-1.5,7.2-1.1c2.5,0.5,4.8,1.6,7,3.1c2.2,1.5,4.1,3.3,6,5.2c1.8,1.9,3.5,4,5.1,6.2c1.5,2.2,3,4.5,4.1,6.8l1.2,2.5
			l1.6-2.3c3.3-4.9,6.9-9.6,10.8-14c3.9-4.4,8.1-8.4,12.8-11.9c4.6-3.4,9.7-6.2,15.1-7.8c5.4-1.6,11-2.2,16.6-1.4
			c5.5,0.7,11,2.5,16.1,5c5.1,2.5,9.9,5.8,14.5,9.5c2.3,1.8,4.5,3.8,6.6,5.8c2.1,2,4.2,4.1,6.2,6.3c2,2.2,4,4.4,5.9,6.6
			c2,2.2,3.8,4.6,5.8,6.8c0.1,0.1,0.2,0.1,0.3,0C197,46.4,197,46.3,197,46.2z"/>
	</g>
	<g>
		<path style="fill:#58595B;" d="M39.6,54.3c-0.7-0.7-2-2.2-4.4-2.2c-3.4,0-6,2.9-6,6.3c0,3.6,3,6.2,6.1,6.2c0.5,0,4,0,5.6-4h-7.6
			v-2.2h10.3c-0.1,5.5-4.4,8.4-8.4,8.4c-4.8,0-8.3-3.8-8.3-8.4c0-4.7,3.6-8.5,8.3-8.5c2.8,0,5.7,1.5,7.3,4.4H39.6z"/>
		<path style="fill:#58595B;" d="M45.4,66.5V54.3h2.1v1.1h0c1-1.4,2.5-1.4,3.1-1.4v2.4c-0.4,0-1.1,0.2-1.7,0.4
			c-0.7,0.4-1.3,1.3-1.3,3.1v6.7H45.4z"/>
		<path style="fill:#58595B;" d="M53.8,61.4c0.6,2.4,2.5,3.3,4,3.3c1.7,0,2.9-1,3.5-2h2.3c-1.2,3.1-4,4.1-5.9,4.1
			c-3.5,0-6.2-3-6.2-6.4c0-3.7,2.8-6.4,6.2-6.4c3.3,0,6.2,2.7,6.2,6.2c0,0.4,0,1-0.1,1.2H53.8z M61.7,59.7c-0.1-1.8-1.7-3.6-3.9-3.6
			c-2.2,0-3.8,1.8-3.9,3.6H61.7z"/>
		<path style="fill:#58595B;" d="M76.1,66.5v-1.9h0c-0.9,1.5-2.5,2.2-4.1,2.2c-4.1,0-6.5-3.1-6.5-6.4c0-3,2.1-6.5,6.5-6.5
			c1.7,0,3.3,0.7,4.1,2h0v-1.7h2.3v12.2H76.1z M71.9,56.1c-2.8,0-4.2,2.4-4.2,4.4c0,2.2,1.7,4.3,4.2,4.3c2.4,0,4.2-2,4.2-4.3
			C76.1,57.8,74.2,56.1,71.9,56.1z"/>
		<path style="fill:#58595B;" d="M83.7,66.5h-2.3V56.4h-1.7v-2.1h1.7v-4.1h2.3v4.1h2v2.1h-2V66.5z"/>
		<path style="fill:#58595B;" d="M88.7,61.4c0.6,2.4,2.5,3.3,4,3.3c1.7,0,2.9-1,3.5-2h2.3c-1.2,3.1-4,4.1-5.9,4.1
			c-3.5,0-6.2-3-6.2-6.4c0-3.7,2.8-6.4,6.2-6.4c3.3,0,6.2,2.7,6.2,6.2c0,0.4,0,1-0.1,1.2H88.7z M96.6,59.7c-0.1-1.8-1.7-3.6-3.9-3.6
			s-3.8,1.8-3.9,3.6H96.6z"/>
		<path style="fill:#58595B;" d="M101,66.5V54.3h2.1v1.1h0c1-1.4,2.5-1.4,3.1-1.4v2.4c-0.4,0-1.1,0.2-1.7,0.4
			c-0.7,0.4-1.3,1.3-1.3,3.1v6.7H101z"/>
		<path style="fill:#58595B;" d="M116,66.5h-2.4V50.2h4.7c3.9,0,5.7,2,5.7,4.9c0,2.9-1.8,4.9-5.7,4.9H116V66.5z M116,57.9h2.3
			c2.7,0,3.4-1.5,3.4-2.8c0-1.2-0.7-2.8-3.4-2.8H116V57.9z"/>
		<path style="fill:#58595B;" d="M128,52.9h-2.3v-2.7h2.3V52.9z M128,66.5h-2.3V54.3h2.3V66.5z"/>
		<path style="fill:#58595B;" d="M133.3,66.5H131V56.4h-1.7v-2.1h1.7v-4.1h2.3v4.1h2v2.1h-2V66.5z"/>
		<path style="fill:#58595B;" d="M139.2,66.5h-2.3V56.4h-1.7v-2.1h1.7v-4.1h2.3v4.1h2v2.1h-2V66.5z"/>
		<path style="fill:#58595B;" d="M147.3,57.6c-0.1-1-0.7-1.5-1.6-1.5c-0.8,0-1.4,0.5-1.4,1.3c0,1,0.9,1.3,1.9,1.6
			c0.9,0.3,3.7,1.1,3.7,4c0,2.2-1.5,3.9-4.1,3.9c-1.5,0-4.3-1-4.3-4.3h2.3c0.1,1.4,0.8,2.2,2.1,2.2c1,0,1.8-0.6,1.8-1.7
			c0-1.1-0.9-1.5-2.1-1.9c-1.3-0.5-3.4-1.1-3.4-3.7c0-1.8,1.5-3.5,3.8-3.5c1.4,0,3.7,0.9,3.7,3.6H147.3z"/>
		<path style="fill:#58595B;" d="M151.6,66.5V50.2h2.3V56h0c1-1.4,2.5-2,4.2-2c3.2,0,6.3,2.7,6.3,6.4c0,3.5-2.7,6.4-6.3,6.4
			c-1.1,0-3-0.4-4.2-2.1h0v1.8H151.6z M158,64.7c2.2,0,4.2-1.9,4.2-4.3c0-2.3-1.8-4.3-4.2-4.3c-2.5,0-4.2,2.1-4.2,4.3
			C153.8,63.1,155.9,64.7,158,64.7z"/>
		<path style="fill:#58595B;" d="M168.6,54.3v6.6c0,3,1.3,3.8,3,3.8c1.9,0,3.2-1.2,3.2-3.9v-6.5h2.3v12.2H175v-1.3h0
			c-0.6,1.1-2,1.6-3.6,1.6c-1.4,0-2.6-0.4-3.5-1.2c-1-0.9-1.6-2.2-1.6-4.7v-6.6H168.6z"/>
		<path style="fill:#58595B;" d="M179.8,66.5V54.3h2.1v1.1h0c1-1.4,2.5-1.4,3.1-1.4v2.4c-0.4,0-1.1,0.2-1.7,0.4
			c-0.7,0.4-1.3,1.3-1.3,3.1v6.7H179.8z"/>
		<path style="fill:#58595B;" d="M199.1,64.9c0,4-2.4,6.4-6.6,6.4c-2.8,0-5-1.5-6-3.9h2.6c0.4,0.5,1.3,1.8,3.5,1.8
			c2.4,0,4.3-1.1,4.3-4.3h0c-0.4,0.6-1.6,1.9-4.2,1.9c-4,0-6.5-3.5-6.5-6.4c0-2.7,2.1-6.4,6.6-6.4c1.8,0,3.4,0.8,4.2,1.7v-1.4h2.3
			V64.9z M192.5,56.1c-2.4,0-4.2,2-4.2,4.3c0,2.2,1.8,4.3,4.2,4.3c3,0,4.3-2.7,4.3-4.3C196.8,57,193.9,56.1,192.5,56.1z"/>
		<path style="fill:#58595B;" d="M210.3,66.5v-6.6c0-0.9,0-3.8-3-3.8c-1.9,0-3.2,1.3-3.2,3.8v6.6h-2.3V50.2h2.3v5.4h0
			c1.1-1.6,2.9-1.6,3.4-1.6c1.9,0,3.4,0.8,4.3,2.2c0.5,0.8,0.7,1.8,0.8,3.1v7.2H210.3z"/>
		<path style="fill:#58595B;" d="M36.7,74.7c-0.4-0.4-1.4-1.7-3.3-1.7c-2.5,0-4.4,2-4.4,4.5c0,2.5,2,4.6,4.4,4.6
			c1.2,0,2.4-0.6,3.2-1.6h2.1c-1.3,2.3-3.5,3.2-5.4,3.2c-3.4,0-6.1-2.8-6.1-6.2c0-3.5,2.8-6.1,6.1-6.1c0.9,0,2.3,0.2,3.6,1.2
			c1.1,0.8,1.5,1.6,1.8,2.1H36.7z"/>
		<path style="fill:#58595B;" d="M46.2,83.5v-4.8c0-0.7,0-2.8-2.2-2.8c-1.4,0-2.3,1-2.3,2.8v4.8H40V71.7h1.7v3.9h0
			c0.8-1.2,2.1-1.2,2.5-1.2c1.4,0,2.5,0.6,3.1,1.6c0.4,0.6,0.5,1.3,0.6,2.3v5.2H46.2z"/>
		<path style="fill:#58595B;" d="M57.1,83.5v-1.4h0c-0.6,1.1-1.8,1.6-3,1.6c-3,0-4.7-2.3-4.7-4.6c0-2.2,1.5-4.7,4.7-4.7
			c1.2,0,2.4,0.5,3,1.5h0v-1.2h1.7v8.9H57.1z M54,75.9c-2,0-3,1.8-3,3.2c0,1.6,1.3,3.1,3,3.1c1.7,0,3.1-1.4,3.1-3.1
			C57.1,77.2,55.8,75.9,54,75.9z"/>
		<path style="fill:#58595B;" d="M72.5,83.5v-4.9c0-0.8-0.1-2.7-2.1-2.7c-2.1,0-2.1,1.9-2.1,2.6v4.9h-1.7v-4.9c0-0.7,0-1.2-0.4-1.8
			c-0.4-0.6-1-0.8-1.6-0.8c-2.2,0-2.2,2-2.2,2.6v4.9h-1.7v-8.9h1.5v1h0c0.3-0.4,0.9-1.2,2.5-1.2c1.1,0,2.3,0.5,2.8,1.5
			c0.3-0.4,0.9-1.5,2.9-1.5c1.5,0,2.5,0.6,3.1,1.6c0.3,0.6,0.5,1.3,0.5,2.2v5.3H72.5z"/>
		<path style="fill:#58595B;" d="M76.1,83.5V71.7h1.7v4.2h0c0.7-1,1.8-1.5,3-1.5c2.4,0,4.6,1.9,4.6,4.7c0,2.6-2,4.7-4.6,4.7
			c-0.8,0-2.2-0.3-3.1-1.5h0v1.3H76.1z M80.8,82.2c1.6,0,3-1.4,3-3.1c0-1.7-1.3-3.2-3-3.2c-1.8,0-3,1.6-3,3.1
			C77.7,81.1,79.3,82.2,80.8,82.2z"/>
		<path style="fill:#58595B;" d="M88.2,79.8c0.4,1.7,1.8,2.4,2.9,2.4c1.2,0,2.1-0.7,2.5-1.5h1.7c-0.8,2.3-2.9,3-4.3,3
			c-2.5,0-4.5-2.2-4.5-4.7c0-2.7,2-4.7,4.5-4.7c2.4,0,4.5,2,4.5,4.5c0,0.3,0,0.7,0,0.8H88.2z M93.9,78.5c-0.1-1.3-1.3-2.6-2.9-2.6
			s-2.8,1.3-2.9,2.6H93.9z"/>
		<path style="fill:#58595B;" d="M97.1,83.5v-8.9h1.6v0.8h0c0.7-1,1.8-1,2.3-1v1.7c-0.3,0-0.8,0.1-1.2,0.3c-0.5,0.3-1,1-1,2.2v4.9
			H97.1z"/>
		<path style="fill:#58595B;" d="M110.6,83.7c-3,0-4.8-2.5-4.8-4.7c0-2.4,2-4.6,4.8-4.6c2.7,0,4.8,2.1,4.8,4.6
			C115.4,81.2,113.6,83.7,110.6,83.7z M110.6,75.9c-1.9,0-3.1,1.6-3.1,3.1c0,1.6,1.3,3.2,3.1,3.2c1.8,0,3.1-1.5,3.1-3.2
			C113.7,77.5,112.5,75.9,110.6,75.9z"/>
		<path style="fill:#58595B;" d="M117,83.5v-7.3h-0.8v-1.5h0.8v-0.4c0-0.9,0.4-1.6,1.1-2.1c0.7-0.4,1.2-0.5,2.2-0.5v1.5
			c-1.1,0-1.6,0.4-1.6,1v0.4h1.6v1.5h-1.6v7.3H117z"/>
		<path style="fill:#58595B;" d="M134.5,74.7c-0.4-0.4-1.4-1.7-3.3-1.7c-2.5,0-4.4,2-4.4,4.5c0,2.5,2,4.6,4.4,4.6
			c1.2,0,2.4-0.6,3.2-1.6h2.1c-1.3,2.3-3.5,3.2-5.4,3.2c-3.4,0-6.1-2.8-6.1-6.2c0-3.5,2.8-6.1,6.1-6.1c0.9,0,2.3,0.2,3.6,1.2
			c1.1,0.8,1.5,1.6,1.8,2.1H134.5z"/>
		<path style="fill:#58595B;" d="M142.2,83.7c-3,0-4.8-2.5-4.8-4.7c0-2.4,2-4.6,4.8-4.6c2.7,0,4.8,2.1,4.8,4.6
			C146.9,81.2,145.2,83.7,142.2,83.7z M142.2,75.9c-1.9,0-3.1,1.6-3.1,3.1c0,1.6,1.3,3.2,3.1,3.2c1.8,0,3.1-1.5,3.1-3.2
			C145.3,77.5,144,75.9,142.2,75.9z"/>
		<path style="fill:#58595B;" d="M160.2,83.5v-4.9c0-0.8-0.1-2.7-2.1-2.7c-2.1,0-2.1,1.9-2.1,2.6v4.9h-1.7v-4.9c0-0.7,0-1.2-0.4-1.8
			c-0.4-0.6-1-0.8-1.6-0.8c-2.2,0-2.2,2-2.2,2.6v4.9h-1.7v-8.9h1.5v1h0c0.3-0.4,0.9-1.2,2.5-1.2c1.1,0,2.3,0.5,2.8,1.5
			c0.3-0.4,0.9-1.5,2.9-1.5c1.5,0,2.5,0.6,3.1,1.6c0.3,0.6,0.5,1.3,0.5,2.2v5.3H160.2z"/>
		<path style="fill:#58595B;" d="M175.6,83.5v-4.9c0-0.8-0.1-2.7-2.1-2.7c-2.1,0-2.1,1.9-2.1,2.6v4.9h-1.7v-4.9c0-0.7,0-1.2-0.4-1.8
			c-0.4-0.6-1-0.8-1.6-0.8c-2.2,0-2.2,2-2.2,2.6v4.9h-1.7v-8.9h1.5v1h0c0.3-0.4,0.9-1.2,2.5-1.2c1.1,0,2.3,0.5,2.8,1.5
			c0.3-0.4,0.9-1.5,2.9-1.5c1.5,0,2.5,0.6,3.1,1.6c0.3,0.6,0.5,1.3,0.5,2.2v5.3H175.6z"/>
		<path style="fill:#58595B;" d="M180.4,79.8c0.4,1.7,1.8,2.4,2.9,2.4c1.2,0,2.1-0.7,2.5-1.5h1.7c-0.8,2.3-2.9,3-4.3,3
			c-2.5,0-4.5-2.2-4.5-4.7c0-2.7,2-4.7,4.5-4.7c2.4,0,4.5,2,4.5,4.5c0,0.3,0,0.7,0,0.8H180.4z M186.2,78.5c-0.1-1.3-1.3-2.6-2.9-2.6
			s-2.8,1.3-2.9,2.6H186.2z"/>
		<path style="fill:#58595B;" d="M189.3,83.5v-8.9h1.6v0.8h0c0.7-1,1.8-1,2.3-1v1.7c-0.3,0-0.8,0.1-1.2,0.3c-0.5,0.3-1,1-1,2.2v4.9
			H189.3z"/>
		<path style="fill:#58595B;" d="M200.8,77.6c-0.3-0.6-0.9-1.7-2.5-1.7c-2.1,0-2.9,1.8-2.9,3.1c0,1.5,1,3.2,2.9,3.2
			c1.2,0,2.1-0.7,2.5-1.6h1.9c-0.7,2-2.4,3.2-4.4,3.2c-2.9,0-4.5-2.4-4.5-4.7c0-2.4,1.8-4.7,4.6-4.7c2.5,0,4,1.9,4.4,3.2H200.8z"/>
		<path style="fill:#58595B;" d="M205.3,79.8c0.4,1.7,1.8,2.4,2.9,2.4c1.2,0,2.1-0.7,2.5-1.5h1.7c-0.8,2.3-2.9,3-4.3,3
			c-2.5,0-4.5-2.2-4.5-4.7c0-2.7,2-4.7,4.5-4.7c2.4,0,4.5,2,4.5,4.5c0,0.3,0,0.7,0,0.8H205.3z M211,78.5c-0.1-1.3-1.3-2.6-2.9-2.6
			s-2.8,1.3-2.9,2.6H211z"/>
	</g>
</g>
<g>
</g>
<g>
</g>
<g>
</g>
<g>
</g>
<g>
</g>
<g>
</g>
</svg>
