<?xml version="1.0" encoding="utf-8"?>
<!-- Generator: Adobe Illustrator 22.1.0, SVG Export Plug-In . SVG Version: 6.00 Build 0)  -->
<svg version="1.1" id="Layer_2" xmlns="http://www.w3.org/2000/svg" xmlns:xlink="http://www.w3.org/1999/xlink" x="0px" y="0px"
	 viewBox="0 0 234.1 97.7" style="enable-background:new 0 0 234.1 97.7;" xml:space="preserve">
<style type="text/css">
	.st0{fill:#00674E;}
	.st1{fill:#CBB677;}
</style>
<g>
	<g>
		<path class="st0" d="M0.3,0h30.6l10,41.1h0.2L51.1,0h30.6v69.9H61.4V25.1h-0.2L49,69.9H33L20.9,25.1h-0.2v44.8H0.3V0z"/>
		<path class="st0" d="M85.4,0h38.3C142.1,0,146,10.4,146,17.5c0,7-3.4,10.9-8.6,13.7c6.3,2.2,12.1,7.1,12.1,17.4
			c0,14-12.1,21.2-24.5,21.2H85.4V0z M107,27.2h11.4c4.5,0,7.3-1.3,7.3-5.8c0-3.5-2.9-4.8-7.3-4.8H107V27.2z M107,53.2h12.6
			c4.5,0,8.4-1.3,8.4-6.7c0-4.1-2.4-6.4-7.5-6.4H107V53.2z"/>
		<path class="st0" d="M150.5,0h30.6l10,41.1h0.2l10-41.1h30.6v69.9h-20.4V25.1h-0.2l-12.1,44.8h-16l-12.1-44.8h-0.2v44.8h-20.4V0z"
			/>
	</g>
	<g>
		<path class="st1" d="M13,96.1c-0.7,0.5-1.5,0.9-2.3,1.2c-0.8,0.3-1.7,0.4-2.5,0.4c-0.9,0-1.8-0.2-2.7-0.5s-1.6-0.7-2.3-1.3
			c-1-0.8-1.8-1.8-2.3-3S0,90.5,0,89.1c0-2.5,0.8-4.5,2.3-6.1c1.6-1.6,3.5-2.4,5.8-2.4c0.9,0,1.7,0.1,2.4,0.4
			c0.8,0.3,1.5,0.6,2.3,1.1l-0.3,3.1c-0.6-0.7-1.3-1.2-2-1.5c-0.7-0.3-1.4-0.5-2.2-0.5c-1.6,0-2.9,0.6-3.9,1.7
			c-1,1.1-1.5,2.5-1.5,4.3c0,1.7,0.5,3.1,1.5,4.2c1,1.1,2.3,1.6,3.8,1.6c0.9,0,1.7-0.2,2.5-0.6c0.8-0.4,1.6-1,2.4-1.8L13,96.1z"/>
		<path class="st1" d="M22.2,89.1c0-1,0.1-1.9,0.4-2.8c0.3-0.9,0.7-1.7,1.2-2.5c0.8-1,1.7-1.8,2.8-2.4c1.1-0.6,2.3-0.9,3.5-0.9
			c1.1,0,2.1,0.2,3.1,0.6c1,0.4,1.8,1,2.6,1.8c0.8,0.8,1.3,1.7,1.7,2.8c0.4,1,0.6,2.2,0.6,3.3c0,1.2-0.2,2.3-0.6,3.3
			c-0.4,1-1,2-1.7,2.8c-0.8,0.8-1.6,1.4-2.6,1.8c-1,0.4-2,0.6-3.1,0.6c-1.1,0-2.1-0.2-3.1-0.6c-1-0.4-1.8-1-2.6-1.8
			c-0.8-0.8-1.4-1.7-1.8-2.8C22.4,91.4,22.2,90.3,22.2,89.1z M25.1,89.1c0,1.7,0.5,3.1,1.5,4.2c1,1.1,2.2,1.7,3.6,1.7
			c1.4,0,2.7-0.6,3.6-1.7c1-1.1,1.5-2.5,1.5-4.2c0-1.7-0.5-3.1-1.5-4.2c-1-1.1-2.2-1.7-3.7-1.7c-1.5,0-2.7,0.6-3.6,1.7
			C25.6,86,25.1,87.4,25.1,89.1z"/>
		<path class="st1" d="M48.4,97.2V80.5h0.3l10.4,10.8V81.1h2.8v16.6h-0.3L51.2,86.9v10.2H48.4z"/>
		<path class="st1" d="M79.6,83.5v13.6h-2.8V83.5h-5.4v-2.5H85v2.5H79.6z"/>
		<path class="st1" d="M94.5,97.2V81.1h3.7c1.3,0,2.4,0.1,3.1,0.3c0.7,0.2,1.4,0.5,1.9,0.8c0.6,0.4,1.1,0.9,1.4,1.5
			c0.3,0.6,0.5,1.2,0.5,1.9c0,1.1-0.3,2-0.9,2.7c-0.6,0.8-1.5,1.3-2.6,1.7l5.2,7.1h-3.3l-4.9-6.7h-1.4v6.7H94.5z M97.2,88.4h1.3
			c1.2,0,2.2-0.2,2.8-0.7c0.6-0.4,1-1.1,1-1.9c0-0.8-0.3-1.5-1-1.9c-0.6-0.4-1.7-0.6-3-0.6h-1V88.4z"/>
		<path class="st1" d="M116.7,97.2h-2.9l7.9-16.6h0.2l7.6,16.6h-3l-1.3-2.9H118L116.7,97.2z M119.1,92h5.3l-2.6-6L119.1,92z"/>
		<path class="st1" d="M150,96.1c-0.7,0.5-1.5,0.9-2.3,1.2c-0.8,0.3-1.7,0.4-2.5,0.4c-0.9,0-1.8-0.2-2.7-0.5
			c-0.9-0.3-1.6-0.7-2.3-1.3c-1-0.8-1.8-1.8-2.3-3c-0.5-1.2-0.8-2.5-0.8-3.8c0-2.5,0.8-4.5,2.3-6.1c1.6-1.6,3.5-2.4,5.8-2.4
			c0.9,0,1.7,0.1,2.4,0.4c0.8,0.3,1.5,0.6,2.3,1.1l-0.3,3.1c-0.6-0.7-1.3-1.2-2-1.5c-0.7-0.3-1.4-0.5-2.2-0.5
			c-1.6,0-2.9,0.6-3.9,1.7c-1,1.1-1.5,2.5-1.5,4.3c0,1.7,0.5,3.1,1.5,4.2c1,1.1,2.3,1.6,3.8,1.6c0.9,0,1.7-0.2,2.5-0.6
			c0.8-0.4,1.6-1,2.4-1.8L150,96.1z"/>
		<path class="st1" d="M166.7,83.5v13.6h-2.8V83.5h-5.4v-2.5h13.7v2.5H166.7z"/>
		<path class="st1" d="M181.6,97.2V81.1h2.8v16.1H181.6z"/>
		<path class="st1" d="M195.9,97.2V80.5h0.3l10.4,10.8V81.1h2.8v16.6H209l-10.4-10.8v10.2H195.9z"/>
		<path class="st1" d="M233,85.2c-0.8-0.7-1.5-1.2-2.3-1.6c-0.8-0.3-1.6-0.5-2.5-0.5c-1.7,0-3.1,0.6-4.1,1.7c-1,1.1-1.6,2.6-1.6,4.3
			c0,1.8,0.5,3.2,1.6,4.3c1,1.1,2.4,1.6,4.1,1.6c0.5,0,1-0.1,1.5-0.2c0.5-0.1,1.1-0.3,1.7-0.5V91h-3.9v-2.5h6.7v7.6
			c-1,0.5-1.9,0.9-2.9,1.2c-1,0.3-2,0.4-3,0.4c-2.5,0-4.6-0.8-6.2-2.4c-1.6-1.6-2.4-3.7-2.4-6.2c0-2.5,0.8-4.6,2.4-6.2
			c1.6-1.6,3.7-2.4,6.2-2.4c0.9,0,1.8,0.1,2.6,0.3c0.8,0.2,1.7,0.6,2.5,1L233,85.2z"/>
	</g>
</g>
</svg>
