<?xml version="1.0" encoding="utf-8"?>
<!-- Generator: Adobe Illustrator 23.0.2, SVG Export Plug-In . SVG Version: 6.00 Build 0)  -->
<svg version="1.1" id="Layer_1" xmlns="http://www.w3.org/2000/svg" xmlns:xlink="http://www.w3.org/1999/xlink" x="0px" y="0px"
	 viewBox="0 0 231 193" style="enable-background:new 0 0 231 193;" xml:space="preserve">
<style type="text/css">
	.st0{fill:#FFC629;}
</style>
<g>
	<path d="M18,24.7c-5.5,0-9.3-4.2-9.3-9.2c0-5.1,3.9-9.3,9.4-9.3s9.3,4.2,9.3,9.2C27.4,20.5,23.5,24.7,18,24.7z M18,9
		c-3.6,0-6,2.8-6,6.3s2.5,6.4,6.1,6.4c3.6,0,6-2.8,6-6.3S21.6,9,18,9z"/>
	<path d="M45,16.6c0,5.4-3,8-7.7,8c-4.7,0-7.6-2.7-7.6-7.9V6.4h3.1v10.2c0,3.3,1.7,5.1,4.5,5.1c2.8,0,4.5-1.7,4.5-5V6.4H45V16.6z"/>
	<path d="M59.5,24.4l-4.4-6.2h-3.9v6.2H48V6.4h8c4.1,0,6.7,2.2,6.7,5.7c0,3-1.8,4.8-4.3,5.5l4.8,6.8H59.5z M55.8,9.3h-4.6v6h4.6
		c2.3,0,3.7-1.2,3.7-3C59.5,10.3,58.1,9.3,55.8,9.3z"/>
	<path d="M84.2,6.4h3.1v17.9h-2.6l-9.9-12.8v12.8h-3.1V6.4h2.9l9.6,12.4V6.4z"/>
	<path d="M103.9,9.3H93.8v4.7h9v2.8h-9v4.8H104v2.8H90.6V6.4h13.3V9.3z"/>
	<path d="M118.2,24.4l-4.7-6.8l-4.7,6.8h-3.6l6.5-9.1l-6.3-8.8h3.7l4.5,6.4l4.5-6.4h3.6l-6.2,8.8l6.5,9.2H118.2z"/>
	<path d="M131.4,24.4h-3.2v-15h-5.7V6.4h14.5v2.9h-5.7V24.4z"/>
</g>
<g>
	<path class="st0" d="M153.6,92.2l-9.9,0.5l6.8-30h74V29.3h-80.6l-33.4,62.5l-8.3,40.8h6c8.1-7.6,20.3-12.8,31.6-12.8
		c20.9,0,37.1,16.5,38.3,36.8l38.2-7.2C211.8,117.3,188.1,90.3,153.6,92.2z"/>
	<polygon class="st0" points="136.8,29.3 5.8,29.3 5.8,62.7 78.6,62.7 10.6,188.9 56.2,180.3 	"/>
</g>
</svg>
