<?xml version="1.0" encoding="utf-8"?>
<!-- Generator: Adobe Illustrator 20.1.0, SVG Export Plug-In . SVG Version: 6.00 Build 0)  -->
<svg version="1.1" id="Layer_1" xmlns="http://www.w3.org/2000/svg" xmlns:xlink="http://www.w3.org/1999/xlink" x="0px" y="0px"
	 viewBox="0 0 298.7 80" style="enable-background:new 0 0 298.7 80;" xml:space="preserve">
<style type="text/css">
	.st0{fill:#95979A;}
	.st1{fill:#58595B;}
	.st2{fill:#AC162C;}
</style>
<g>
	<g>
		<path class="st0" d="M244.3,43.9L244.3,43.9c-2.3-1.9-4.5-4-6.8-5.9c-2.3-2-4.6-3.9-7-5.8c-2.4-1.9-4.8-3.8-7.2-5.6
			c-2.4-1.8-4.9-3.6-7.5-5.2c-5.1-3.4-10.4-6.5-15.9-9.2c-5.5-2.7-11.3-5-17.4-6.5c-6.1-1.4-12.5-2.2-18.8-1.4
			c-6.3,0.8-12.6,3.2-17.7,7.1c-5.1,3.9-9.1,9-12.1,14.4c-2.6,4.7-4.5,9.7-6.1,14.8c-3.8-3.2-7.7-6.3-11.7-9.2
			c-4.8-3.4-9.8-6.5-15.3-8.7c-2.8-1-5.8-1.8-9-1.6c-1.6,0.1-3.2,0.5-4.6,1.3c-1.4,0.8-2.6,1.9-3.6,3.2c-1.8,2.6-2.6,5.6-3,8.5
			c-0.3,2.1-0.4,4.1-0.4,6.2c-0.6-0.7-1.1-1.3-1.7-1.9c-1.2-1.2-2.5-2.3-3.8-3.4c-2.7-2.1-5.6-4-9-5c-1.7-0.5-3.5-0.6-5.3,0
			c-1.7,0.6-3.1,1.9-3.9,3.5c-0.9,1.5-1.3,3.2-1.7,4.9c-0.3,1.7-0.5,3.4-0.5,5.1c0,0.1,0.1,0.3,0.2,0.3c0.1,0,0.3-0.1,0.3-0.2
			c0.1-1.7,0.3-3.3,0.7-5c0.4-1.6,0.9-3.2,1.7-4.6c0.8-1.4,2-2.5,3.5-3c1.5-0.5,3.1-0.3,4.7,0.2c3.1,1,5.9,2.9,8.5,5
			c1.3,1.1,2.5,2.2,3.6,3.4c0.6,0.6,1.1,1.2,1.6,1.9c0.3,0.3,0.5,0.6,0.7,1c0.2,0.3,0.4,0.7,0.5,0.9l1.6,4.7l0-5
			c0-2.9,0.1-5.7,0.6-8.5c0.5-2.7,1.3-5.5,2.9-7.6c0.8-1.1,1.8-1.9,2.9-2.5c1.1-0.6,2.4-0.9,3.7-0.9c2.6-0.1,5.3,0.7,7.9,1.7
			c5.2,2.1,10,5.3,14.5,8.7c4.6,3.4,8.9,7.1,13.3,11l1.9,1.6l0.7-2.4c1.7-5.7,3.9-11.2,6.9-16.2c2.9-5,6.7-9.6,11.3-12.8
			c4.6-3.3,10.1-5.2,15.7-5.7c5.6-0.5,11.4,0.2,17,1.7c11.3,2.9,22,8.1,32.4,14c2.6,1.5,5.1,3,7.7,4.6c2.5,1.6,5.1,3.2,7.6,4.9
			l7.5,5c2.5,1.7,5,3.4,7.6,5c0.1,0.1,0.2,0,0.3-0.1C244.4,44.1,244.4,44,244.3,43.9z"/>
		<path class="st1" d="M32,36.9c9,0.3,18.1,0.4,27.1,0.6c10,0.2,20.1,0.3,30.1,0.4c10,0.1,20.1,0.2,30.1,0.2l30.1,0l30.1-0.1
			c10-0.1,20.1-0.1,30.1-0.3c10-0.1,20.1-0.3,30.1-0.5l15.1-0.4l7.5-0.2l5.9-0.2c0.7,0,1.2,0,1.2-0.1c0-0.1-0.2-0.1-1.2-0.1
			l-5.9-0.1l-7.5-0.2l-15.1-0.3c-10-0.2-20.1-0.3-30.1-0.4c-10-0.1-20.1-0.2-30.1-0.2l-30.1,0l-30.1,0.1c-10,0.1-20.1,0.1-30.1,0.3
			c-10,0.1-20.1,0.3-30.1,0.5c-9,0.3-17.9,0.3-27,0.7c-2,0.1-3,0.1-3,0.2C29.2,36.9,30.1,36.9,32,36.9z"/>
		<path class="st2" d="M227,50.1L227,50.1c-6.1-10.2-13.3-20.1-22.3-28.3c-4.5-4.1-9.4-7.8-14.8-10.8c-5.4-3-11.5-5.1-17.8-5.9
			c-6.3-0.7-12.8,0-18.7,2.1c-5.9,2.1-11.4,5.3-16.2,9.1c-4.8,3.8-9.1,8.2-13,12.8c-3.3,4-6.4,8.1-9.2,12.4c-1-1.7-2.1-3.2-3.2-4.8
			c-1.7-2.3-3.5-4.4-5.5-6.4c-2-2-4.1-3.9-6.5-5.5c-2.4-1.6-5.1-2.9-8-3.4c-2.9-0.5-6.1,0-8.7,1.5c-2.6,1.5-4.6,3.6-6.3,5.9
			c-2.6,3.8-4.4,7.9-5.9,12.1c-0.5-2.2-1.4-4.2-2.5-6.1c-0.9-1.4-2-2.7-3.3-3.7c-1.4-1-3.1-1.7-4.9-1.5c-1.7,0.1-3.3,1-4.6,2
			c-1.3,1-2.4,2.3-3.4,3.5c-1.9,2.6-3.5,5.5-4.8,8.4c-0.1,0.1,0,0.3,0.1,0.3c0.1,0.1,0.3,0,0.3-0.1c1.4-2.9,3-5.6,5-8.1
			c1-1.2,2.1-2.4,3.3-3.3c1.2-0.9,2.7-1.6,4.1-1.7c1.5-0.1,2.9,0.5,4.1,1.4c1.2,0.9,2.1,2.2,2.9,3.5c1.5,2.7,2.5,5.7,2.6,8.8
			l0.2,4.2l1.4-4c1.8-5.1,3.9-10.2,7.1-14.5c1.6-2.1,3.5-4,5.7-5.2c2.2-1.2,4.8-1.5,7.2-1.1c2.5,0.5,4.8,1.6,7,3.1
			c2.2,1.5,4.1,3.3,6,5.2c1.8,1.9,3.5,4,5.1,6.2c1.5,2.2,3,4.5,4.1,6.8l1.2,2.5l1.6-2.3c3.3-4.9,6.9-9.6,10.8-14
			c3.9-4.4,8.1-8.4,12.8-11.9c4.6-3.4,9.7-6.2,15.1-7.8c5.4-1.6,11-2.2,16.6-1.4c5.5,0.7,11,2.5,16.1,5c5.1,2.5,9.9,5.8,14.5,9.5
			c2.3,1.8,4.5,3.8,6.6,5.8c2.1,2,4.2,4.1,6.2,6.3c2,2.2,4,4.4,5.9,6.6c2,2.2,3.8,4.6,5.8,6.8c0.1,0.1,0.2,0.1,0.3,0
			C227.1,50.4,227.1,50.2,227,50.1z"/>
	</g>
	<g>
		<path class="st1" d="M5.6,70.6H3.3V54.3H8c3.9,0,5.7,2,5.7,4.9c0,2.9-1.8,4.9-5.7,4.9H5.6V70.6z M5.6,62H8c2.7,0,3.4-1.5,3.4-2.8
			c0-1.2-0.7-2.8-3.4-2.8H5.6V62z"/>
		<path class="st1" d="M17.7,57h-2.3v-2.7h2.3V57z M17.7,70.6h-2.3V58.4h2.3V70.6z"/>
		<path class="st1" d="M23,70.6h-2.3V60.5H19v-2.1h1.7v-4.1H23v4.1h2v2.1h-2V70.6z"/>
		<path class="st1" d="M28.8,70.6h-2.3V60.5h-1.7v-2.1h1.7v-4.1h2.3v4.1h2v2.1h-2V70.6z"/>
		<path class="st1" d="M37.1,61.6c-0.1-1-0.7-1.5-1.6-1.5c-0.8,0-1.4,0.5-1.4,1.3c0,1,0.9,1.3,1.9,1.6c0.9,0.3,3.7,1.1,3.7,4
			c0,2.2-1.5,3.9-4.1,3.9c-1.5,0-4.3-1-4.3-4.3h2.3c0.1,1.4,0.8,2.2,2.1,2.2c1,0,1.8-0.6,1.8-1.7c0-1.1-0.9-1.5-2.1-1.9
			c-1.3-0.5-3.4-1.1-3.4-3.7c0-1.8,1.5-3.5,3.8-3.5c1.4,0,3.7,0.9,3.7,3.6H37.1z"/>
		<path class="st1" d="M41.6,70.6V54.3h2.3v5.8h0c1-1.4,2.5-2,4.2-2c3.2,0,6.3,2.7,6.3,6.4c0,3.5-2.7,6.4-6.3,6.4
			c-1.1,0-3-0.4-4.2-2.1h0v1.8H41.6z M48,68.8c2.2,0,4.2-1.9,4.2-4.3c0-2.3-1.8-4.3-4.2-4.3c-2.5,0-4.2,2.1-4.2,4.3
			C43.8,67.2,45.9,68.8,48,68.8z"/>
		<path class="st1" d="M58.6,58.4V65c0,3,1.3,3.8,3,3.8c1.9,0,3.2-1.2,3.2-3.9v-6.5h2.3v12.2H65v-1.3h0c-0.6,1.1-2,1.6-3.6,1.6
			c-1.4,0-2.6-0.4-3.5-1.2c-1-0.9-1.6-2.2-1.6-4.7v-6.6H58.6z"/>
		<path class="st1" d="M69.8,70.6V58.4h2.1v1.1h0c1-1.4,2.5-1.4,3.1-1.4v2.4c-0.4,0-1.1,0.2-1.7,0.4c-0.7,0.4-1.3,1.3-1.3,3.1v6.7
			H69.8z"/>
		<path class="st1" d="M89,68.9c0,4-2.4,6.4-6.6,6.4c-2.8,0-5-1.5-6-3.9H79c0.4,0.5,1.3,1.8,3.5,1.8c2.4,0,4.3-1.1,4.3-4.3h0
			c-0.4,0.6-1.6,1.9-4.2,1.9c-4,0-6.5-3.5-6.5-6.4c0-2.7,2.1-6.4,6.6-6.4c1.8,0,3.4,0.8,4.2,1.7v-1.4H89V68.9z M82.5,60.2
			c-2.4,0-4.2,2-4.2,4.3c0,2.2,1.8,4.3,4.2,4.3c3,0,4.3-2.7,4.3-4.3C86.8,61.1,83.9,60.2,82.5,60.2z"/>
		<path class="st1" d="M100.3,70.6V64c0-0.9,0-3.8-3-3.8c-1.9,0-3.2,1.3-3.2,3.8v6.6h-2.3V54.3H94v5.4h0c1.1-1.6,2.9-1.6,3.4-1.6
			c1.9,0,3.4,0.8,4.3,2.2c0.5,0.8,0.7,1.8,0.8,3.1v7.2H100.3z"/>
		<path class="st1" d="M118.8,70.6l-5.4-7.5h0v7.5H111V54.3h5c2.3,0,3.5,0.6,4.3,1.4c1,1,1.5,2.5,1.5,3.8c0,4.3-3.6,5-4.7,5l4.6,6.1
			H118.8z M113.4,62.7h1.6c1,0,4.5,0,4.5-3.2c0-1.4-0.9-3-3.6-3h-2.5V62.7z"/>
		<path class="st1" d="M125.6,65.5c0.6,2.4,2.5,3.3,4,3.3c1.7,0,2.9-1,3.5-2h2.3c-1.2,3.1-4,4.1-5.9,4.1c-3.5,0-6.2-3-6.2-6.4
			c0-3.7,2.8-6.4,6.2-6.4c3.3,0,6.2,2.7,6.2,6.2c0,0.4,0,1-0.1,1.2H125.6z M133.5,63.7c-0.1-1.8-1.7-3.6-3.9-3.6
			c-2.2,0-3.8,1.8-3.9,3.6H133.5z"/>
		<path class="st1" d="M150.2,68.9c0,4-2.4,6.4-6.6,6.4c-2.8,0-5-1.5-6-3.9h2.6c0.4,0.5,1.3,1.8,3.5,1.8c2.4,0,4.3-1.1,4.3-4.3h0
			c-0.4,0.6-1.6,1.9-4.2,1.9c-4,0-6.5-3.5-6.5-6.4c0-2.7,2.1-6.4,6.6-6.4c1.8,0,3.4,0.8,4.2,1.7v-1.4h2.3V68.9z M143.7,60.2
			c-2.4,0-4.2,2-4.2,4.3c0,2.2,1.8,4.3,4.2,4.3c3,0,4.3-2.7,4.3-4.3C148,61.1,145.1,60.2,143.7,60.2z"/>
		<path class="st1" d="M155.2,57H153v-2.7h2.3V57z M155.2,70.6H153V58.4h2.3V70.6z"/>
		<path class="st1" d="M163.9,70.9c-4.1,0-6.6-3.4-6.6-6.5c0-3.3,2.8-6.3,6.6-6.3c3.7,0,6.6,2.9,6.6,6.4
			C170.5,67.4,168,70.9,163.9,70.9z M163.9,60.2c-2.6,0-4.3,2.1-4.3,4.3c0,2.2,1.7,4.3,4.3,4.3c2.5,0,4.3-2,4.3-4.4
			C168.2,62.3,166.5,60.2,163.9,60.2z"/>
		<path class="st1" d="M181.1,70.6V64c0-0.9,0-3.8-3-3.8c-1.9,0-3.2,1.3-3.2,3.8v6.6h-2.3V58.4h2.1v1.3h0c1.2-1.6,3.1-1.6,3.6-1.6
			c1.9,0,3.4,0.8,4.3,2.2c0.5,0.8,0.7,1.8,0.8,3.1v7.2H181.1z"/>
		<path class="st1" d="M196.1,70.6v-1.9h0c-0.9,1.5-2.5,2.2-4.1,2.2c-4.1,0-6.5-3.1-6.5-6.4c0-3,2.1-6.5,6.5-6.5
			c1.7,0,3.3,0.7,4.1,2h0v-1.7h2.3v12.2H196.1z M191.9,60.2c-2.8,0-4.2,2.4-4.2,4.4c0,2.2,1.7,4.3,4.2,4.3c2.4,0,4.2-2,4.2-4.3
			C196.2,61.9,194.3,60.2,191.9,60.2z"/>
		<path class="st1" d="M203.4,70.6h-2.3V54.3h2.3V70.6z"/>
		<path class="st1" d="M222.4,70.6l-1.8-4.8h-5.9l-1.8,4.8h-2.5l6.2-16.3h2.1l6.2,16.3H222.4z M219.7,63.6l-2.1-6.2h0l-2.1,6.2
			H219.7z"/>
		<path class="st1" d="M228.7,70.6h-2.3V54.3h2.3V70.6z"/>
		<path class="st1" d="M233.7,70.6h-2.3V54.3h2.3V70.6z"/>
		<path class="st1" d="M238.7,57h-2.3v-2.7h2.3V57z M238.7,70.6h-2.3V58.4h2.3V70.6z"/>
		<path class="st1" d="M251.5,70.6v-1.9h0c-0.9,1.5-2.5,2.2-4.1,2.2c-4.1,0-6.5-3.1-6.5-6.4c0-3,2.1-6.5,6.5-6.5
			c1.7,0,3.3,0.7,4.1,2h0v-1.7h2.3v12.2H251.5z M247.3,60.2c-2.8,0-4.2,2.4-4.2,4.4c0,2.2,1.7,4.3,4.2,4.3c2.4,0,4.2-2,4.2-4.3
			C251.5,61.9,249.6,60.2,247.3,60.2z"/>
		<path class="st1" d="M265,70.6V64c0-0.9,0-3.8-3-3.8c-1.9,0-3.2,1.3-3.2,3.8v6.6h-2.3V58.4h2.1v1.3h0c1.2-1.6,3.1-1.6,3.6-1.6
			c1.9,0,3.4,0.8,4.3,2.2c0.5,0.8,0.7,1.8,0.8,3.1v7.2H265z"/>
		<path class="st1" d="M279.1,62.5c-0.4-0.8-1.3-2.3-3.4-2.3c-2.9,0-4,2.5-4,4.3c0,2.1,1.3,4.3,4,4.3c1.7,0,2.9-1,3.5-2.2h2.6
			c-0.9,2.7-3.3,4.3-6,4.3c-4,0-6.2-3.3-6.2-6.4c0-3.3,2.4-6.4,6.3-6.4c3.5,0,5.5,2.6,6,4.4H279.1z"/>
		<path class="st1" d="M285.2,65.5c0.6,2.4,2.5,3.3,4,3.3c1.7,0,2.9-1,3.5-2h2.3c-1.2,3.1-4,4.1-5.9,4.1c-3.5,0-6.2-3-6.2-6.4
			c0-3.7,2.8-6.4,6.2-6.4c3.3,0,6.2,2.7,6.2,6.2c0,0.4,0,1-0.1,1.2H285.2z M293.1,63.7c-0.1-1.8-1.7-3.6-3.9-3.6s-3.8,1.8-3.9,3.6
			H293.1z"/>
	</g>
</g>
<g>
</g>
<g>
</g>
<g>
</g>
<g>
</g>
<g>
</g>
<g>
</g>
</svg>
