<?xml version="1.0" encoding="utf-8"?>
<!-- Generator: Adobe Illustrator 22.1.0, SVG Export Plug-In . SVG Version: 6.00 Build 0)  -->
<svg version="1.1" id="Layer_1" xmlns="http://www.w3.org/2000/svg" xmlns:xlink="http://www.w3.org/1999/xlink" x="0px" y="0px"
	 viewBox="0 0 100 100" style="enable-background:new 0 0 100 100;" xml:space="preserve">
<style type="text/css">
	.st0{fill:#807E7E;}
</style>
<g id="Document">
	<rect x="31.4" y="25.7" class="st0" width="37.8" height="2.2"/>
	<rect x="31.4" y="33.7" class="st0" width="37.8" height="2.2"/>
	<rect x="31.4" y="42.4" class="st0" width="37.8" height="2.2"/>
	<rect x="31.4" y="50.4" class="st0" width="37.8" height="2.2"/>
	<rect x="31.4" y="59.1" class="st0" width="37.8" height="2.2"/>
	<path class="st0" d="M76.8,8.8H24.5c-3.6,0-6.5,2.9-6.5,6.5v69.3c0,3.6,2.9,6.5,6.5,6.5h42.1c9.2,0,16.7-7.5,16.7-16.7V15.3
		C83.4,11.7,80.4,8.8,76.8,8.8z M22.4,84.7V15.3c0-1.2,1-2.2,2.2-2.2h52.3c1.2,0,2.2,1,2.2,2.2v56.1H62.7v15.4H24.5
		C23.3,86.9,22.4,85.9,22.4,84.7z M67,86.8V75.8h11.9C78.3,81.9,73.2,86.7,67,86.8z"/>
</g>
</svg>
