<?xml version="1.0" encoding="utf-8"?>
<!-- Generator: Adobe Illustrator 21.0.2, SVG Export Plug-In . SVG Version: 6.00 Build 0)  -->
<svg version="1.1" id="Layer_1" xmlns="http://www.w3.org/2000/svg" xmlns:xlink="http://www.w3.org/1999/xlink" x="0px" y="0px"
	 viewBox="0 0 332.2 102.5" style="enable-background:new 0 0 332.2 102.5;" xml:space="preserve">
<style type="text/css">
	.st0{fill:#CA9C3F;}
	.st1{fill:#55565A;}
</style>
<g>
	<g>
		<path class="st0" d="M7.7,98.2v-40h21.4v5.5l15-8.7l-15-8.7v5.5H7.7v-40L82.5,55L7.7,98.2z M13,63.5v25.5L71.8,55L13,21.1v25.5
			h10.7v-9.4l31,17.9l-31,17.9v-9.4H13z"/>
	</g>
</g>
<g>
	<path class="st1" d="M70.1,14.7h4.2v4.2c1.2-2.8,3.3-4.7,6.6-4.5v4.5h-0.2c-3.7,0-6.3,2.4-6.3,7.3v7h-4.2V14.7z"/>
	<path class="st1" d="M82,24L82,24c0-5.4,3.8-9.7,9-9.7c5.9,0,8.9,4.6,8.9,10c0,0.4,0,0.8-0.1,1.2H86.3c0.5,3,2.6,4.7,5.3,4.7
		c2.1,0,3.5-0.8,5-2.2l2.5,2.2c-1.8,2.1-4.2,3.5-7.6,3.5C86.2,33.6,82,29.7,82,24z M95.7,22.7c-0.3-2.7-1.9-4.9-4.7-4.9
		c-2.6,0-4.4,2-4.8,4.9H95.7z"/>
	<path class="st1" d="M103.3,36.7l1.6-3.2c2,1.2,4.1,2,6.6,2c3.8,0,5.9-2,5.9-5.7v-1.4c-1.5,2-3.5,3.4-6.5,3.4
		c-4.3,0-8.4-3.2-8.4-8.7V23c0-5.5,4.1-8.7,8.4-8.7c3.1,0,5,1.4,6.5,3.2v-2.8h4.2v14.7c0,3.1-0.8,5.4-2.3,7
		c-1.7,1.7-4.3,2.5-7.6,2.5C108.5,38.9,105.7,38.1,103.3,36.7z M117.4,23.1L117.4,23.1c0-3.1-2.5-5.2-5.4-5.2s-5.3,2-5.3,5.1V23
		c0,3.1,2.3,5.1,5.3,5.1C114.9,28.2,117.4,26.1,117.4,23.1z"/>
	<path class="st1" d="M126,7.8h4.6v4H126V7.8z M126.2,14.7h4.2v18.5h-4.2V14.7z"/>
	<path class="st1" d="M134.1,24.1L134.1,24.1c0-5.4,4.2-9.7,9.9-9.7s9.9,4.3,9.9,9.6V24c0,5.3-4.2,9.6-9.9,9.6
		C138.3,33.6,134.1,29.3,134.1,24.1z M149.6,24.1L149.6,24.1c0-3.3-2.3-6-5.7-6c-3.4,0-5.6,2.7-5.6,5.9V24c0,3.2,2.3,6,5.6,6
		C147.4,30,149.6,27.3,149.6,24.1z"/>
	<path class="st1" d="M157.3,14.7h4.2v2.9c1.2-1.8,2.9-3.3,5.8-3.3c4.2,0,6.6,2.8,6.6,7.1v11.8h-4.2V22.7c0-2.9-1.4-4.5-4-4.5
		c-2.5,0-4.2,1.7-4.2,4.6v10.4h-4.2V14.7z"/>
	<path class="st1" d="M189.5,33.2v-2.3c-1.3,1.5-3.2,2.7-6,2.7c-3.5,0-6.6-2-6.6-5.7v-0.1c0-4.1,3.2-6.1,7.5-6.1
		c2.2,0,3.7,0.3,5.1,0.8v-0.4c0-2.6-1.6-4-4.6-4c-2.1,0-3.6,0.5-5.3,1.2l-1.2-3.4c2-0.9,4-1.5,7-1.5c5.5,0,8.1,2.9,8.1,7.8v11H189.5
		z M189.6,25.5c-1.1-0.4-2.6-0.7-4.2-0.7c-2.7,0-4.2,1.1-4.2,2.9v0.1c0,1.8,1.6,2.7,3.6,2.7c2.8,0,4.9-1.6,4.9-3.9V25.5z"/>
	<path class="st1" d="M198.1,7.6h4.2v25.6h-4.2V7.6z"/>
	<path class="st1" d="M90.2,57.9v-9.7h-2.3v-3.6h2.3v-5.1h4.2v5.1h5v3.6h-5v9.1c0,1.6,0.8,2.3,2.3,2.3c0.9,0,1.8-0.2,2.6-0.6v3.5
		c-1.1,0.6-2.2,0.9-3.8,0.9C92.4,63.3,90.2,62,90.2,57.9z"/>
	<path class="st1" d="M102.9,44.5h4.2v4.2c1.2-2.8,3.3-4.7,6.6-4.5v4.5h-0.2c-3.7,0-6.3,2.4-6.3,7.3v7h-4.2V44.5z"/>
	<path class="st1" d="M126.9,63v-2.3c-1.3,1.5-3.2,2.7-6,2.7c-3.5,0-6.6-2-6.6-5.7v-0.1c0-4.1,3.2-6.1,7.5-6.1
		c2.2,0,3.7,0.3,5.1,0.8V52c0-2.6-1.6-4-4.6-4c-2.1,0-3.6,0.5-5.3,1.2l-1.2-3.4c2-0.9,4-1.5,7-1.5c5.5,0,8.1,2.9,8.1,7.8v11H126.9z
		 M127,55.3c-1.1-0.4-2.6-0.7-4.2-0.7c-2.7,0-4.2,1.1-4.2,2.9v0.1c0,1.8,1.6,2.7,3.6,2.7c2.8,0,4.9-1.6,4.9-3.9V55.3z"/>
	<path class="st1" d="M135.3,44.5h4.2v2.9c1.2-1.8,2.9-3.3,5.8-3.3c4.2,0,6.6,2.8,6.6,7.1V63h-4.2V52.5c0-2.9-1.4-4.5-4-4.5
		c-2.5,0-4.2,1.7-4.2,4.6V63h-4.2V44.5z"/>
	<path class="st1" d="M154.7,60.6l1.9-2.9c2,1.5,4.2,2.3,6.1,2.3c1.8,0,2.9-0.8,2.9-2v-0.1c0-1.4-2-1.9-4.1-2.6
		c-2.7-0.8-5.8-1.9-5.8-5.4v-0.1c0-3.5,2.9-5.6,6.6-5.6c2.3,0,4.8,0.8,6.8,2.1l-1.7,3c-1.8-1.1-3.7-1.8-5.2-1.8
		c-1.6,0-2.6,0.8-2.6,1.9v0.1c0,1.3,2,1.9,4.2,2.6c2.7,0.8,5.8,2.1,5.8,5.4v0.1c0,3.9-3,5.8-6.9,5.8C159.9,63.4,157,62.4,154.7,60.6
		z"/>
	<path class="st1" d="M172.8,44.5h4.2v3.1c1.4-1.9,3.3-3.5,6.3-3.5c4.4,0,8.6,3.5,8.6,9.6v0.1c0,6.1-4.2,9.6-8.6,9.6
		c-3.1,0-5-1.5-6.3-3.3v8.5h-4.2V44.5z M187.7,53.8L187.7,53.8c0-3.6-2.4-6-5.3-6c-2.9,0-5.4,2.4-5.4,5.9v0.1c0,3.6,2.5,5.9,5.4,5.9
		C185.3,59.7,187.7,57.5,187.7,53.8z"/>
	<path class="st1" d="M194.4,53.9L194.4,53.9c0-5.4,4.2-9.7,9.9-9.7s9.9,4.3,9.9,9.6v0.1c0,5.3-4.2,9.6-9.9,9.6
		C198.6,63.4,194.4,59.1,194.4,53.9z M209.9,53.9L209.9,53.9c0-3.3-2.3-6-5.7-6c-3.4,0-5.6,2.7-5.6,5.9v0.1c0,3.2,2.3,6,5.6,6
		C207.8,59.8,209.9,57.1,209.9,53.9z"/>
	<path class="st1" d="M217.6,44.5h4.2v4.2c1.2-2.8,3.3-4.7,6.6-4.5v4.5h-0.2c-3.7,0-6.3,2.4-6.3,7.3v7h-4.2V44.5z"/>
	<path class="st1" d="M232.1,57.9v-9.7h-2.3v-3.6h2.3v-5.1h4.2v5.1h5v3.6h-5v9.1c0,1.6,0.8,2.3,2.3,2.3c0.9,0,1.8-0.2,2.6-0.6v3.5
		c-1.1,0.6-2.2,0.9-3.8,0.9C234.3,63.3,232.1,62,232.1,57.9z"/>
	<path class="st1" d="M256,63v-2.3c-1.3,1.5-3.2,2.7-6,2.7c-3.5,0-6.6-2-6.6-5.7v-0.1c0-4.1,3.2-6.1,7.5-6.1c2.2,0,3.7,0.3,5.1,0.8
		V52c0-2.6-1.6-4-4.6-4c-2.1,0-3.6,0.5-5.3,1.2l-1.2-3.4c2-0.9,4-1.5,7-1.5c5.5,0,8.1,2.9,8.1,7.8v11H256z M256.1,55.3
		c-1.1-0.4-2.6-0.7-4.2-0.7c-2.7,0-4.2,1.1-4.2,2.9v0.1c0,1.8,1.6,2.7,3.6,2.7c2.8,0,4.9-1.6,4.9-3.9V55.3z"/>
	<path class="st1" d="M265.1,57.9v-9.7h-2.3v-3.6h2.3v-5.1h4.2v5.1h5v3.6h-5v9.1c0,1.6,0.8,2.3,2.3,2.3c0.9,0,1.8-0.2,2.6-0.6v3.5
		c-1.1,0.6-2.2,0.9-3.8,0.9C267.3,63.3,265.1,62,265.1,57.9z"/>
	<path class="st1" d="M277.8,37.6h4.6v4h-4.6V37.6z M278,44.5h4.2V63H278V44.5z"/>
	<path class="st1" d="M285.9,53.9L285.9,53.9c0-5.4,4.2-9.7,9.9-9.7s9.9,4.3,9.9,9.6v0.1c0,5.3-4.2,9.6-9.9,9.6
		C290.1,63.4,285.9,59.1,285.9,53.9z M301.4,53.9L301.4,53.9c0-3.3-2.3-6-5.7-6c-3.4,0-5.6,2.7-5.6,5.9v0.1c0,3.2,2.3,6,5.6,6
		C299.2,59.8,301.4,57.1,301.4,53.9z"/>
	<path class="st1" d="M309.1,44.5h4.2v2.9c1.2-1.8,2.9-3.3,5.8-3.3c4.2,0,6.6,2.8,6.6,7.1V63h-4.2V52.5c0-2.9-1.4-4.5-4-4.5
		c-2.5,0-4.2,1.7-4.2,4.6V63h-4.2V44.5z"/>
	<path class="st1" d="M81.4,92.8v-2.3c-1.3,1.5-3.2,2.7-6,2.7c-3.5,0-6.6-2-6.6-5.7v-0.1c0-4.1,3.2-6.1,7.5-6.1
		c2.2,0,3.7,0.3,5.1,0.8v-0.4c0-2.6-1.6-4-4.6-4c-2.1,0-3.6,0.5-5.3,1.2l-1.2-3.4c2-0.9,4-1.5,7-1.5c5.5,0,8.1,2.9,8.1,7.8v11H81.4z
		 M81.5,85.1c-1.1-0.4-2.6-0.7-4.2-0.7c-2.7,0-4.2,1.1-4.2,2.9v0.1c0,1.8,1.6,2.7,3.6,2.7c2.8,0,4.9-1.6,4.9-3.9V85.1z"/>
	<path class="st1" d="M90,67.2h4.2v25.6H90V67.2z"/>
	<path class="st1" d="M99.2,67.2h4.2v25.6h-4.2V67.2z"/>
	<path class="st1" d="M108.2,67.4h4.6v4h-4.6V67.4z M108.3,74.3h4.2v18.5h-4.2V74.3z"/>
	<path class="st1" d="M128.6,92.8v-2.3c-1.3,1.5-3.2,2.7-6,2.7c-3.5,0-6.6-2-6.6-5.7v-0.1c0-4.1,3.2-6.1,7.5-6.1
		c2.2,0,3.7,0.3,5.1,0.8v-0.4c0-2.6-1.6-4-4.6-4c-2.1,0-3.6,0.5-5.3,1.2l-1.2-3.4c2-0.9,4-1.5,7-1.5c5.5,0,8.1,2.9,8.1,7.8v11H128.6
		z M128.7,85.1c-1.1-0.4-2.6-0.7-4.2-0.7c-2.7,0-4.2,1.1-4.2,2.9v0.1c0,1.8,1.6,2.7,3.6,2.7c2.8,0,4.9-1.6,4.9-3.9V85.1z"/>
	<path class="st1" d="M136.9,74.3h4.2v2.9c1.2-1.8,2.9-3.3,5.8-3.3c4.2,0,6.6,2.8,6.6,7.1v11.8h-4.2V82.3c0-2.9-1.4-4.5-4-4.5
		c-2.5,0-4.2,1.7-4.2,4.6v10.4h-4.2V74.3z"/>
	<path class="st1" d="M156.8,83.7L156.8,83.7c0-5.3,4.1-9.7,9.6-9.7c3.5,0,5.7,1.3,7.4,3.2l-2.6,2.8c-1.3-1.4-2.7-2.3-4.8-2.3
		c-3.1,0-5.3,2.7-5.3,5.9v0.1c0,3.3,2.3,6,5.5,6c2,0,3.5-0.9,4.8-2.3l2.6,2.5c-1.8,2-4,3.5-7.6,3.5
		C160.9,93.3,156.8,88.9,156.8,83.7z"/>
	<path class="st1" d="M175.4,83.6L175.4,83.6c0-5.4,3.8-9.7,9-9.7c5.9,0,8.9,4.6,8.9,10c0,0.4,0,0.8-0.1,1.2h-13.6
		c0.5,3,2.6,4.7,5.3,4.7c2.1,0,3.5-0.8,5-2.2l2.5,2.2c-1.8,2.1-4.2,3.5-7.6,3.5C179.6,93.3,175.4,89.4,175.4,83.6z M189.1,82.3
		c-0.3-2.7-1.9-4.9-4.7-4.9c-2.6,0-4.4,2-4.8,4.9H189.1z"/>
</g>
<g>
	<path class="st1" d="M203.1,72.1c2.6,0,4.7,2.1,4.7,4.7c0,2.6-2.1,4.7-4.7,4.7s-4.7-2.1-4.7-4.7C198.4,74.1,200.5,72.1,203.1,72.1z
		 M203.1,80c1.7,0,3.1-1.5,3.1-3.1c0-1.7-1.4-3.2-3.1-3.2s-3.1,1.4-3.1,3.2C200,78.5,201.4,80,203.1,80z"/>
	<path class="st1" d="M210.4,72.3h4.6v1.6h-2.9v2.2h2.8v1.6h-2.8v3.7h-1.7V72.3z"/>
	<path class="st1" d="M223.7,78.8c0.1,0.9,0.7,1.2,1.2,1.2c0.7,0,1.3-0.5,1.3-1.1c0-0.9-0.6-1.1-1.7-1.5c-0.7-0.3-2.2-0.7-2.2-2.6
		c0-1.4,1.1-2.6,2.7-2.6c1.1,0,2.6,0.7,2.7,2.6h-1.7c-0.1-0.8-0.6-1-1-1c-0.5,0-0.9,0.4-0.9,0.9c0,0.8,0.6,1,1.5,1.3
		c0.7,0.2,2.4,0.8,2.4,2.8c0,2-1.5,2.9-2.9,2.9c-1.2,0-2.9-0.8-3-2.8H223.7z"/>
	<path class="st1" d="M234.7,72.1c2.6,0,4.7,2.1,4.7,4.7c0,2.6-2.1,4.7-4.7,4.7s-4.7-2.1-4.7-4.7C229.9,74.1,232.1,72.1,234.7,72.1z
		 M234.7,80c1.7,0,3.1-1.5,3.1-3.1c0-1.7-1.4-3.2-3.1-3.2s-3.1,1.4-3.1,3.2C231.6,78.5,232.9,80,234.7,80z"/>
	<path class="st1" d="M243.6,72.3l0,5.8c0,0.5,0,1.9,1.6,1.9s1.6-1.5,1.6-1.9v-5.8h1.7V78c0,0.7-0.1,1.5-0.5,2.1
		c-0.5,0.7-1.5,1.3-2.7,1.3c-1.4,0-2.3-0.8-2.7-1.3c-0.3-0.4-0.6-1.1-0.6-2.2v-5.8H243.6z"/>
	<path class="st1" d="M252.2,73.8h-1.7v-1.6h5.1v1.6h-1.7v7.5h-1.7V73.8z"/>
	<path class="st1" d="M257.9,72.3h1.7V76h3.3v-3.7h1.7v9.1h-1.7v-3.8h-3.3v3.8h-1.7V72.3z"/>
	<path class="st1" d="M266.8,72.3h1.7l1.6,6.3h0l1.6-6.3h1.2l1.5,6.3h0l1.6-6.3h1.7l-2.6,9.1h-1.3l-1.5-6h0l-1.5,6h-1.3L266.8,72.3z
		"/>
	<path class="st1" d="M279.9,72.3h4.9v1.6h-3.2v2.2h3.1v1.6h-3.1v2.1h3.2v1.6h-4.9V72.3z"/>
	<path class="st1" d="M288.8,78.8c0.1,0.9,0.7,1.2,1.2,1.2c0.7,0,1.3-0.5,1.3-1.1c0-0.9-0.6-1.1-1.7-1.5c-0.7-0.3-2.2-0.7-2.2-2.6
		c0-1.4,1.1-2.6,2.7-2.6c1.1,0,2.6,0.7,2.7,2.6H291c-0.1-0.8-0.6-1-1-1c-0.5,0-0.9,0.4-0.9,0.9c0,0.8,0.6,1,1.5,1.3
		c0.7,0.2,2.4,0.8,2.4,2.8c0,2-1.5,2.9-2.9,2.9c-1.2,0-2.9-0.8-3-2.8H288.8z"/>
	<path class="st1" d="M296.5,73.8h-1.7v-1.6h5.1v1.6h-1.7v7.5h-1.7V73.8z"/>
	<path class="st1" d="M302,72.3h4.9v1.6h-3.2v2.2h3.1v1.6h-3.1v2.1h3.2v1.6H302V72.3z"/>
	<path class="st1" d="M309.8,72.3h2.8c1,0,1.7,0.2,2.2,0.6s1.1,1.2,1.1,2.2c0,0.6-0.2,1.5-0.9,2.2c-0.5,0.5-1.1,0.6-1.5,0.7l2.5,3.3
		h-2l-2.4-3.5h0v3.5h-1.7V72.3z M311.5,76.6h1.1c1.4,0,1.6-0.9,1.6-1.4c0-0.5-0.3-1.4-1.6-1.4h-1.1V76.6z"/>
	<path class="st1" d="M318.4,72.3h1.9l3.8,6.6h0v-6.6h1.7v9.1h-1.9l-3.8-6.6h0v6.6h-1.7V72.3z"/>
	<path class="st1" d="M198.8,84.5h2.3c1,0,1.8,0,2.7,0.7c0.6,0.5,0.9,1.2,0.9,2.1s-0.3,1.5-0.9,2.1c-0.9,0.7-1.7,0.7-2.7,0.7h-0.6
		v3.5h-1.7V84.5z M200.5,88.6h0.5c0.7,0,1.9,0,1.9-1.2s-1.2-1.2-1.8-1.2h-0.6V88.6z"/>
	<path class="st1" d="M207,84.5h4.9v1.6h-3.2v2.2h3.1v1.6h-3.1v2.1h3.2v1.6H207V84.5z"/>
	<path class="st1" d="M214.8,84.5h1.9l3.8,6.6h0v-6.6h1.7v9.1h-1.9l-3.8-6.6h0v6.6h-1.7V84.5z"/>
	<path class="st1" d="M225.3,84.5h1.9l3.8,6.6h0v-6.6h1.7v9.1h-1.9L227,87h0v6.6h-1.7V84.5z"/>
	<path class="st1" d="M236.8,91c0.1,0.9,0.7,1.2,1.2,1.2c0.7,0,1.3-0.5,1.3-1.1c0-0.9-0.6-1.1-1.7-1.5c-0.7-0.3-2.2-0.7-2.2-2.6
		c0-1.4,1.1-2.6,2.7-2.6c1.1,0,2.6,0.7,2.7,2.6H239c-0.1-0.8-0.6-1-1-1c-0.5,0-0.9,0.4-0.9,0.9c0,0.8,0.6,1,1.5,1.3
		c0.7,0.2,2.4,0.8,2.4,2.8c0,2-1.5,2.9-2.9,2.9c-1.2,0-2.9-0.8-3-2.8H236.8z"/>
	<path class="st1" d="M245.6,90.3l-3-5.7h1.8l2,4.2l2-4.2h1.9l-3,5.7v3.3h-1.7V90.3z"/>
	<path class="st1" d="M252.6,84.5h1.7v7.5h2.8v1.6h-4.5V84.5z"/>
	<path class="st1" d="M257.5,84.5h1.8l2.4,6.9h0l2.4-6.9h1.8l-3.5,9.1h-1.4L257.5,84.5z"/>
	<path class="st1" d="M270,84.5h1.3l3.8,9.1h-1.9l-1-2.3h-3.3l-1,2.3h-1.9L270,84.5z M269.6,89.7h2.1l-1-2.8h0L269.6,89.7z"/>
	<path class="st1" d="M277.5,84.5h1.9l3.8,6.6h0v-6.6h1.7v9.1H283l-3.8-6.6h0v6.6h-1.7V84.5z"/>
	<path class="st1" d="M288,84.5h1.7v9.1H288V84.5z"/>
	<path class="st1" d="M295.8,84.5h1.3l3.8,9.1h-1.9l-1-2.3h-3.3l-1,2.3H292L295.8,84.5z M295.4,89.7h2.1l-1-2.8h0L295.4,89.7z"/>
</g>
</svg>
